<svg width="525" height="295" viewBox="0 0 525 295" fill="none" xmlns="http://www.w3.org/2000/svg">
<g clip-path="url(#clip0_374_1290)">
<rect width="525" height="295" rx="15" fill="#282828"/>
<line y1="249.5" x2="525.004" y2="249.5" stroke="#444444" stroke-width="3"/>
<line y1="189.5" x2="525.004" y2="189.5" stroke="#444444" stroke-width="3"/>
<line y1="129.5" x2="525.004" y2="129.5" stroke="#444444" stroke-width="3"/>
<line y1="69.5" x2="525.004" y2="69.5" stroke="#444444" stroke-width="3"/>
<line x1="48.5" y1="295.001" x2="48.5" y2="-0.000854492" stroke="#444444" stroke-width="3"/>
<line x1="251" y1="295" x2="251" stroke="#444444" stroke-width="3"/>
<line x1="453.5" y1="295" x2="453.5" stroke="#444444" stroke-width="3"/>
<path d="M0 186.641V372H525V88.9759C524.712 88.9945 524.383 88.9945 523.964 88.9945C521.939 87.9149 520.232 86.5147 518.478 85.0758C518.219 84.8632 517.959 84.6498 517.696 84.4365L516.589 86.8365C513.586 92.9242 511.251 96.8164 505.194 100.172C501.577 102.923 499.33 107.106 497.165 111.136C496.716 111.971 496.271 112.8 495.818 113.608L494.906 114.519C493.057 114.429 491.209 114.336 489.361 114.229C485.8 113.967 484.048 113.838 482.355 114.093C480.716 114.34 479.131 114.946 476.012 116.14C474.852 117.454 473.724 118.799 472.636 120.174C472.035 120.862 471.686 121.261 471.26 121.543C470.671 121.933 469.936 122.099 468.185 122.496C461.246 121.085 455.058 118.318 448.699 115.26C443.407 112.783 438.995 110.797 433.145 112.525L430.182 113.608C422.992 115.145 415.668 116.414 408.389 114.868C405.39 114.315 403.117 114.019 400.1 114.519C397.532 116.764 395.751 119.16 393.782 121.94C389.815 127.42 384.241 130.298 378.398 133.316C377.899 133.574 377.398 133.833 376.896 134.094C374.679 135.424 373.212 136.707 371.498 138.62C370.127 139.958 369.542 140.529 368.842 140.774C368.32 140.956 367.734 140.956 366.712 140.956C365.522 140.455 364.986 140.229 364.473 139.96C364.052 139.74 363.647 139.49 362.909 139.036C360.483 138.051 358.859 138.326 356.446 138.735C356.229 138.772 356.005 138.81 355.773 138.848C349.728 139.483 345.792 138.014 340.845 134.575L338.908 132.41C338.128 131.606 337.698 131.162 337.175 130.915C336.533 130.612 335.751 130.604 334.008 130.586C329.04 131.453 325.031 135.25 321.324 138.761C320.526 139.517 319.743 140.259 318.967 140.956C316.194 143.351 315.235 144.18 314.144 144.43C313.567 144.562 312.954 144.533 312.016 144.488C311.12 144.158 310.595 143.965 310.094 143.722C309.383 143.379 308.72 142.937 307.116 141.867C304.11 142.135 301.799 142.71 299.043 143.954C297.597 144.281 296.88 144.443 296.199 144.349C295.531 144.256 294.897 143.916 293.641 143.242L291.163 141.07L288.517 138.769C286.44 136.689 284.929 134.757 283.357 132.296C281.821 130.042 281.179 129.242 278.518 128.514C276.937 128.378 275.351 128.292 273.764 128.261C270.983 128.176 268.668 127.386 266.094 126.37L264.794 128.133L263.074 130.415L261.376 132.691C260.598 133.572 260.184 134.041 259.683 134.384C259.114 134.774 258.433 135.001 256.978 135.486L254.357 134.119C251.067 132.54 250.338 132.588 246.95 133.663C245.184 134.822 243.458 136.044 241.766 137.309C237.319 140.382 234.554 141.461 229.242 141.572C225.1 142.093 221.443 144.194 217.842 146.263C217.212 146.625 216.584 146.986 215.956 147.337L214.036 148.316C209.972 150.443 207.198 153.134 204.105 156.453C201.331 155.215 199.435 153.823 197.311 151.66L195.601 149.933L193.849 148.135L192.055 146.315C190.598 144.837 189.145 143.354 187.696 141.867L186.434 142.956C178.987 149.362 176.058 151.883 172.7 152.758C170.522 153.326 168.163 153.203 164.276 152.999L162.171 152.807C161.103 149.808 160.041 146.806 158.981 143.805L158.058 141.216L157.186 138.741L156.376 136.455C156.072 135.479 155.926 135.01 155.855 134.529C155.79 134.084 155.79 133.629 155.79 132.751H153.967L153.273 134.721C151.557 138.654 148.954 142.019 146.343 145.396C145.844 146.041 145.345 146.687 144.851 147.337L143.551 149.107C141.725 151.481 140.487 152.731 137.665 153.829C133.943 156.072 132.829 158.781 131.28 162.546C131.172 162.808 131.062 163.075 130.949 163.347C130.34 164.755 129.727 166.162 129.111 167.567L128.32 169.452C127.997 170.102 127.806 170.486 127.568 170.837C127.225 171.344 126.784 171.785 125.707 172.862C123.073 172.577 121.285 172.029 118.984 170.697L116.591 170.127C115.053 171.243 113.52 172.37 112.047 173.571C109.806 174.93 108.312 174.967 105.709 175.027C100.892 175.267 98.9692 177.076 95.6065 180.358C91.3083 184.215 86.0571 185.566 80.5259 186.764C72.3204 188.662 64.6194 192.807 57.5044 197.258C56.5085 197.823 56.0109 198.105 55.4768 198.224C54.9434 198.344 54.3737 198.301 53.2348 198.216C50.9058 197.459 48.6487 196.617 46.3978 195.652L45.7711 197.589C43.9969 201.475 43.3583 202.874 42.3463 203.907C41.7773 204.488 41.0901 204.953 40.0166 205.68C36.0553 206.984 33.0494 206.945 29.0774 205.68C24.9927 202.755 21.6841 198.939 18.4513 195.124C17.9058 194.508 17.5801 194.14 17.2152 193.817C16.6744 193.337 16.0476 192.955 14.4917 192.006C13.4764 191.998 12.9488 191.995 12.4226 192.02C11.8535 192.047 11.286 192.107 10.1047 192.233C7.55256 192.311 6.53506 192.343 5.65781 192.007C5.07616 191.785 4.55616 191.401 3.69139 190.763C2.45844 189.391 1.22898 188.016 0 186.641Z" fill="url(#paint0_linear_374_1290)" fill-opacity="0.35"/>
<path fill-rule="evenodd" clip-rule="evenodd" d="M452.686 110.697C452.619 110.661 452.552 110.626 452.485 110.591L452.483 110.59C452.551 110.625 452.618 110.661 452.686 110.697Z" fill="url(#paint1_linear_374_1290)" fill-opacity="0.35"/>
<path d="M1080.15 58C1085.51 58 1089.22 60.7732 1092.92 64.3812C1094.38 66.5324 1095.69 68.6854 1096.91 70.9832C1098.34 72.8464 1098.34 72.8464 1101.05 73.1305C1104.01 72.8416 1104.01 72.8416 1105.86 70.4241C1106.44 69.5017 1107.02 68.5792 1107.62 67.6288C1110.68 62.8105 1110.68 62.8105 1112.95 61.5859C1115.7 61.6761 1116.69 62.977 1118.67 64.837C1122.71 68.313 1126.47 70.1076 1131.38 71.9589C1137.63 74.3967 1140.72 77.1497 1144 83.2008C1144.88 85.3481 1144.88 85.3481 1144.88 87.1713C1145.65 86.7012 1146.42 86.2312 1147.21 85.7469C1150.91 84.2002 1152.87 84.4583 1156.73 85.3481C1157.33 85.6489 1157.93 85.9497 1158.55 86.2597C1172.48 88.2144 1172.48 88.2144 1185.16 84.1409C1186.92 81.2777 1188.23 78.4094 1189.55 75.3204C1195.49 66.785 1195.49 66.785 1200.11 65.5991C1201.66 65.5105 1203.22 65.4695 1204.77 65.4815C1208.25 65.1685 1209.85 63.0435 1212.34 60.7348C1213.24 61.0356 1214.14 61.3365 1215.07 61.6464C1215.47 63.6405 1215.47 63.6405 1215.07 66.2044C1212.79 68.7955 1210.17 70.6142 1206.7 70.9618C1206.02 70.9712 1205.34 70.9806 1204.65 70.9903C1200.88 71.2457 1199.34 72.3295 1196.78 75.0925C1193.2 79.5381 1190.33 84.3863 1187.51 89.3363C1185.9 91.7293 1185.9 91.7293 1183.17 92.6409C1179.26 92.8553 1175.34 92.8097 1171.43 92.8118C1169.81 92.8286 1169.81 92.8286 1168.16 92.8456C1167.11 92.8474 1166.07 92.8492 1165 92.851C1163.57 92.8566 1163.57 92.8566 1162.11 92.8623C1159.36 92.6326 1157.44 91.864 1154.91 90.8177C1151.74 91.0531 1151.74 91.0531 1148.53 91.7293C1147.49 91.8985 1146.46 92.0677 1145.39 92.2421C1144.62 92.3737 1143.85 92.5053 1143.06 92.6409C1142.18 91.3721 1141.3 90.0988 1140.43 88.8235C1139.7 87.7607 1139.7 87.7607 1138.96 86.6763C1137.59 84.4365 1137.59 84.4365 1136.72 81.9687C1135.97 79.7755 1135.97 79.7755 1134.11 78.9953C1133.12 78.7556 1133.12 78.7556 1132.12 78.511C1125.58 76.6409 1119.39 74.1043 1114.8 68.9392C1114.19 68.9392 1113.59 68.9392 1112.97 68.9392C1112.11 70.2386 1111.3 71.5753 1110.52 72.9275C1108.51 76.0524 1107.81 77.0062 1104.31 78.568C1103.26 78.6996 1102.21 78.8312 1101.12 78.9669C1099.79 79.1449 1099.79 79.1449 1098.44 79.3265C1095.65 78.9669 1095.65 78.9669 1093.52 76.638C1092.91 75.6391 1092.3 74.6403 1091.66 73.6112C1091.04 72.617 1090.41 71.6229 1089.76 70.5986C1088.36 68.0276 1088.36 68.0276 1088.36 66.2044C1085.2 65.3019 1085.2 65.3019 1081.98 64.3812C1081.62 64.9182 1081.27 65.4553 1080.9 66.0086C1079.26 68.2185 1077.78 69.9895 1075.6 71.674C1073.4 71.731 1073.4 71.731 1071.1 71.2752C1067.69 70.5944 1067.69 70.5944 1064.57 71.8378C1062.68 73.5303 1060.93 75.3038 1059.19 77.1436C1047.45 88.1506 1047.45 88.1506 1042.21 88.0259C1040.04 87.1713 1040.04 87.1713 1037.77 85.6329C1035.54 84.1361 1035.54 84.1361 1033.09 85.0632C1030.79 86.2959 1030.79 86.2959 1028.19 88.0829C1024.96 87.7946 1022.15 87.2848 1019.08 86.2597C1018.33 86.2808 1017.58 86.302 1016.81 86.3238C1013.94 86.3793 1011.78 86.2624 1009.05 85.3481C1006.54 82.2773 1005.02 79.0018 1003.58 75.3204C1001.82 77.599 1000.25 79.8716 998.851 82.3854C998.306 83.3631 997.761 84.3407 997.199 85.3481C990.036 85.6346 985.068 83.8825 979.177 79.9354C976.684 77.6304 975.413 75.2428 973.839 72.2438C972.38 69.421 972.38 69.421 970.763 67.116C967.612 65.9764 967.612 65.9764 964.381 67.116C963.809 67.257 963.237 67.398 962.647 67.5433C958.798 68.7019 956.117 70.5322 953.043 73.0984C949.586 75.9451 947.086 76.8233 942.738 77.5354C937.243 78.9234 932.993 82.8449 929.342 87.0003C926.795 89.7184 925.243 90.2623 921.536 90.4189C920.759 90.44 919.983 90.4612 919.182 90.483C915.913 90.9794 914.396 92.7358 912.092 94.9804C907.872 98.6685 902.187 98.3652 896.923 98.1105C895.402 97.8138 893.883 97.5102 892.365 97.1989C888.835 96.5759 886.787 96.685 883.74 98.634C880.21 101.417 877.055 104.221 874.19 107.682C870.529 110.67 868.37 110.201 863.813 109.904C861.153 109.966 860.066 110.432 857.895 111.898C854.989 113.608 854.989 113.608 852.14 113.038C850.493 112.25 848.857 111.437 847.24 110.588C844.87 109.687 844.87 109.687 842.33 111.033C839.458 112.716 837.723 114.29 835.561 116.798C834.861 117.604 834.162 118.411 833.442 119.241C830.612 122.618 827.817 126.019 825.045 129.443C822.343 132.744 819.539 135.948 816.702 139.133C813.67 138.923 812.949 138.1 810.897 135.764C810.126 134.728 809.365 133.686 808.611 132.637C807.81 131.555 807.008 130.474 806.204 129.393C805.818 128.872 805.432 128.35 805.034 127.813C803.648 125.986 802.161 124.264 800.635 122.553C798.47 119.989 798.47 119.989 798.47 118.166C792.655 115.671 786.978 116.267 780.795 116.494C776.082 116.591 773.218 116.519 769.298 113.608C765.643 113.791 763.071 115.054 760.182 117.254C757.931 119.9 755.845 122.65 753.801 125.459C749.053 124.662 745.623 123.124 741.95 119.989C740.9 118.461 739.895 116.901 738.931 115.317C736.517 111.586 734.948 110.254 730.612 109.221C729.751 109.046 728.89 108.87 728.002 108.69C720.44 106.994 716.518 101.81 712.117 95.7638C709.711 93.1964 708 92.4246 704.575 91.7293C702.508 92.8993 702.508 92.8993 700.928 94.4641C700.327 94.4641 699.725 94.4641 699.105 94.4641C698.737 95.6645 698.737 95.6645 698.361 96.8891C695.369 105.33 690.94 110.527 683.209 114.929C681.091 116.211 679.711 117.362 678.081 119.191C675.359 122.166 672.156 123.512 668.534 125.184C665.707 126.676 663.59 128.557 661.338 130.804C659.906 131.84 659.906 131.84 656.26 131.84C655.192 129.296 654.129 126.751 653.069 124.205C652.765 123.481 652.46 122.757 652.147 122.012C651.859 121.318 651.571 120.625 651.274 119.911C651.007 119.271 650.74 118.631 650.464 117.972C649.879 116.343 649.879 116.343 649.879 114.519C649.239 115.234 648.6 115.948 647.941 116.684C644.257 120.048 641.374 120.72 636.489 121.299C635.493 121.168 634.496 121.036 633.47 120.901C631.118 117.61 629.521 113.91 627.829 110.246C627.346 109.209 626.863 108.171 626.366 107.102C625.265 104.492 625.265 104.492 625.265 102.669C624.52 102.483 624.52 102.483 623.759 102.295C617.093 100.392 612.267 96.8604 607.318 92.0604C605.834 90.5816 605.834 90.5816 603.387 88.9945C600.594 88.9405 600.594 88.9405 597.917 90.8177C595.995 94.1882 594.755 97.7616 593.473 101.415C593.107 102.407 592.74 103.399 592.362 104.42C591.46 106.869 590.578 109.323 589.713 111.785C587.549 111.505 587.549 111.505 585.155 110.873C583.755 108.731 582.714 106.853 581.679 104.549C581.254 103.665 581.254 103.665 580.819 102.763C578.774 98.433 578.774 98.433 578.774 96.2873C578.277 96.5141 577.779 96.7409 577.267 96.9746C574.849 97.8302 573.144 98.2587 570.569 98.1105C568.138 96.2437 566.337 94.2291 564.405 91.8539C561.926 89.4872 560.257 89.2494 556.895 88.9945C556.477 89.7078 556.058 90.4211 555.627 91.156C555.068 92.0784 554.509 93.0009 553.932 93.9513C553.382 94.8714 552.833 95.7915 552.266 96.7395C550.514 99.0221 550.514 99.0221 548.477 99.7948C547.946 99.8407 547.415 99.8865 546.867 99.9337C545.647 97.9995 544.432 96.0621 543.221 94.1222C542.873 93.5723 542.525 93.0223 542.167 92.4557C539.575 88.2894 539.575 88.2894 539.575 86.2597C533.967 85.052 533.967 85.052 528.863 87.1713C525.901 88.9945 525.901 88.9945 523.963 88.9945C521.64 87.7554 519.735 86.0941 517.696 84.4365C517.148 85.6245 517.148 85.6245 516.589 86.8365C513.586 92.9242 511.251 96.8164 505.194 100.172C500.828 103.493 498.458 108.9 495.818 113.608C495.517 113.909 495.216 114.209 494.906 114.519C493.057 114.429 491.209 114.336 489.361 114.229C482.353 113.713 482.353 113.713 476.012 116.14C474.852 117.454 473.724 118.799 472.636 120.174C471.204 121.812 471.204 121.812 468.185 122.496C461.246 121.085 455.058 118.318 448.699 115.26C443.407 112.783 438.995 110.797 433.145 112.525C432.167 112.882 431.19 113.24 430.182 113.608C422.992 115.145 415.668 116.414 408.389 114.868C405.39 114.315 403.117 114.019 400.1 114.519C397.532 116.764 395.751 119.16 393.782 121.94C389.477 127.887 383.278 130.771 376.896 134.094C374.679 135.424 373.212 136.707 371.498 138.62C369.105 140.956 369.105 140.956 366.712 140.956C364.547 140.044 364.547 140.044 362.909 139.036C360.264 137.962 358.573 138.386 355.773 138.848C349.728 139.483 345.792 138.014 340.845 134.575C340.206 133.86 339.567 133.146 338.908 132.41C337.17 130.618 337.17 130.618 334.008 130.586C327.971 131.64 323.35 137.02 318.967 140.956C314.729 144.617 314.729 144.617 312.016 144.488C309.851 143.691 309.851 143.691 307.116 141.867C304.11 142.135 301.799 142.71 299.043 143.954C296.177 144.602 296.177 144.602 293.641 143.242C292.415 142.167 292.415 142.167 291.163 141.07C290.29 140.311 289.417 139.552 288.517 138.769C286.44 136.689 284.929 134.757 283.357 132.296C281.821 130.042 281.179 129.242 278.518 128.514C276.937 128.378 275.351 128.292 273.764 128.261C270.983 128.176 268.668 127.386 266.094 126.37C265.451 127.243 265.451 127.243 264.794 128.133C264.227 128.886 263.659 129.639 263.074 130.415C262.514 131.166 261.953 131.917 261.376 132.691C259.713 134.575 259.713 134.575 256.978 135.486C256.113 135.035 255.248 134.584 254.357 134.119C251.067 132.54 250.338 132.588 246.95 133.663C245.184 134.822 243.458 136.044 241.766 137.309C237.319 140.382 234.554 141.461 229.242 141.572C224.376 142.185 220.179 144.977 215.956 147.337C215.322 147.66 214.689 147.983 214.036 148.316C209.972 150.443 207.198 153.134 204.105 156.453C201.331 155.215 199.435 153.823 197.311 151.66C196.747 151.09 196.183 150.52 195.601 149.933C195.023 149.34 194.445 148.746 193.849 148.135C193.257 147.534 192.665 146.934 192.055 146.315C190.598 144.837 189.145 143.354 187.696 141.867C187.072 142.406 187.072 142.406 186.434 142.956C174.158 153.517 174.158 153.517 164.276 152.999C163.581 152.935 162.887 152.872 162.171 152.807C161.103 149.808 160.041 146.806 158.981 143.805C158.676 142.95 158.372 142.096 158.058 141.216C157.771 140.399 157.483 139.582 157.186 138.741C156.785 137.609 156.785 137.609 156.376 136.455C155.79 134.575 155.79 134.575 155.79 132.751C155.188 132.751 154.587 132.751 153.967 132.751C153.738 133.401 153.509 134.051 153.273 134.721C151.23 139.406 147.927 143.285 144.851 147.337C144.207 148.213 144.207 148.213 143.551 149.107C141.725 151.481 140.487 152.731 137.665 153.829C133.685 156.228 132.686 159.16 130.949 163.347C130.34 164.755 129.727 166.162 129.111 167.567C128.85 168.189 128.589 168.811 128.32 169.452C127.53 171.039 127.53 171.039 125.707 172.862C123.073 172.577 121.285 172.029 118.984 170.697C118.194 170.509 117.405 170.321 116.591 170.127C115.053 171.243 113.52 172.37 112.047 173.571C109.806 174.93 108.312 174.967 105.709 175.027C100.892 175.267 98.9692 177.076 95.6065 180.358C91.3083 184.215 86.0571 185.566 80.5259 186.764C72.3204 188.662 64.6194 192.807 57.5044 197.258C55.5138 198.387 55.5138 198.387 53.2348 198.216C50.9058 197.459 48.6487 196.617 46.3978 195.652C46.191 196.291 45.9842 196.93 45.7711 197.589C42.9993 203.661 42.9993 203.661 40.0166 205.68C36.0553 206.984 33.0494 206.945 29.0774 205.68C24.9927 202.755 21.6841 198.939 18.4513 195.124C17.0973 193.596 17.0973 193.596 14.4917 192.006C12.3782 191.991 12.3782 191.991 10.1047 192.233C5.86042 192.363 5.86042 192.363 3.69139 190.763C2.42704 189.356 1.16636 187.946 -0.0938993 186.536C-2.24722 186.794 -3.55195 187.331 -5.39259 188.473C-8.35766 189.659 -10.6964 188.985 -13.7679 188.359C-14.3696 188.058 -14.9712 187.757 -15.5911 187.448C-23.9063 186.221 -29.0328 190.248 -35.6464 194.74C-44.5118 200.68 -54.1478 201.493 -64.5495 201.528C-69.4929 201.629 -72.9709 202.596 -77.3987 204.772C-81.1617 206.476 -85.1979 207.098 -89.2315 207.887C-92.5794 208.599 -95.1562 209.37 -98.0271 211.263C-102.479 214.005 -107.171 213.148 -112.196 212.83C-117.694 212.618 -120.359 213.671 -124.983 216.619C-128.003 216.391 -128.003 216.391 -131.365 215.707C-132.921 215.634 -134.479 215.598 -136.037 215.593C-137.14 215.59 -137.14 215.59 -138.266 215.586C-140.467 215.643 -140.467 215.643 -142.514 216.174C-146.156 216.816 -149.725 216.632 -153.414 216.562C-162.289 216.479 -170.901 217.184 -179.68 218.442C-180.689 218.584 -181.698 218.726 -182.738 218.873C-187.373 219.617 -191.042 220.668 -195.177 223C-195.778 223 -196.38 223 -197 223C-197 221.195 -197 219.39 -197 217.53C-183.217 209.955 -167.128 210.747 -151.801 210.43C-146.401 210.314 -141.059 209.966 -135.683 209.452C-133.367 209.335 -131.465 209.521 -129.2 209.953C-125.801 210.581 -125.801 210.581 -123.039 208.432C-118.411 205.624 -113.816 206.404 -108.6 206.734C-103.06 206.947 -100.49 205.869 -95.8121 202.945C-92.9812 202.35 -92.9812 202.35 -90.1716 202.09C-85.9158 201.559 -82.677 200.672 -78.8335 198.786C-73.9786 196.582 -69.8303 196.184 -64.5898 196.051C-52.0623 195.704 -41.9733 193.689 -32 185.624C-26.5264 181.405 -21.3449 181.472 -14.6795 181.978C-13.3481 182.194 -12.0182 182.42 -10.6913 182.662C-6.5335 182.948 -5.25764 181.544 -1.9171 179.243C1.39421 179.808 2.50533 180.908 4.69201 183.459C6.87297 185.807 6.87297 185.807 8.99008 185.663C9.65871 185.594 10.3274 185.525 11.0163 185.453C16.0951 185.158 18.609 187.591 22.3151 190.809C25.0067 193.383 27.5599 196.06 30.0032 198.871C31.8117 200.412 31.8117 200.412 34.5114 200.723C37.4557 200.454 37.4557 200.454 39.4112 198.016C40.0247 197.086 40.6381 196.155 41.2701 195.196C42.2113 193.8 42.2113 193.8 43.1716 192.376C43.6346 191.652 44.0976 190.928 44.5746 190.182C49.7736 190.994 49.7736 190.994 52.2093 191.892C55.3791 192.043 56.8911 190.64 59.4416 188.908C67.3693 184.19 76.4968 181.125 85.3973 178.873C90.061 177.625 92.9722 175.541 96.365 172.235C99.5775 169.28 99.5775 169.28 102.248 168.995C103.637 169.103 105.026 169.224 106.414 169.358C109.608 169.127 111.091 167.07 113.287 164.91C114.768 163.746 114.768 163.746 117.674 163.746C119.863 164.524 121.873 165.32 123.884 166.481C124.166 165.437 124.166 165.437 124.454 164.373C127.35 156.606 130.048 151.28 137.291 147.07C140.729 144.511 142.62 141.015 144.869 137.42C146.642 134.626 148.52 132.003 150.548 129.39C151.402 128.285 151.402 128.285 152.272 127.157C154.084 125.341 155.105 124.874 157.613 124.547C165.432 142.812 165.432 142.812 164.906 148.249C172.056 148.096 176.47 144.079 181.304 139.083C182.358 137.959 183.396 136.818 184.409 135.657C185.873 134.575 185.873 134.575 187.599 134.781C189.881 135.619 190.9 136.616 192.539 138.399C193.087 138.976 193.634 139.553 194.198 140.147C195.337 141.374 196.472 142.604 197.603 143.837C198.424 144.699 198.424 144.699 199.262 145.578C199.755 146.112 200.247 146.645 200.754 147.195C202.23 148.451 202.23 148.451 204.144 148.091C206.397 147.139 207.905 145.597 209.721 143.993C212.381 142.067 215.343 141.088 218.409 139.962C220.628 139.175 220.628 139.175 222.793 137.594C225.282 136.288 226.315 136.35 229.06 136.341C234.737 136.009 238.552 132.874 242.901 129.486C246.003 127.174 247.234 126.348 251.241 126.491C252.232 126.752 253.223 127.013 254.243 127.282C255.343 127.536 255.343 127.536 256.465 127.795C256.935 127.926 257.405 128.058 257.89 128.193C258.308 127.601 258.726 127.009 259.157 126.399C259.996 125.256 259.996 125.256 260.852 124.091C261.677 122.949 261.677 122.949 262.519 121.784C263.386 120.895 263.386 120.895 264.271 119.989C267.917 119.989 267.917 119.989 270.253 121.299C273.465 122.759 274.815 122.767 278.23 122.724C281.8 122.933 283.071 123.315 285.725 125.79C287.111 127.536 288.45 129.321 289.732 131.145C291.674 133.737 293.487 135.513 296.177 137.309C299.683 137.231 299.683 137.231 302.558 135.486C305.644 135.849 308.552 136.28 311.528 137.188C314.598 137.609 314.598 137.609 317.279 135.301C318.271 134.388 319.251 133.461 320.22 132.523C325.134 128.07 328.941 125.113 335.757 124.276C338.942 124.643 340.159 125.986 342.498 128.136C346.758 131.709 348.975 132.841 354.519 132.751C355.832 132.595 357.142 132.424 358.451 132.239C361.812 131.84 361.812 131.84 364.547 133.663C368.791 133.663 371.315 131.19 374.482 128.681C376.284 127.365 377.956 126.475 379.987 125.573C386.143 122.646 390.956 118.033 394.459 112.24C396.177 109.802 396.875 109.146 399.843 108.562C403.397 108.53 406.816 108.808 410.323 109.377C417.583 110.548 426.654 109.314 433.359 106.162C441.151 103.585 448.901 108.887 455.666 112.235C462.252 115.456 462.252 115.456 469.381 115.431C471.136 113.835 471.136 113.835 472.458 111.728C474.331 109.605 475.651 108.281 478.512 107.882C483.109 107.826 487.629 108.389 492.171 109.05C492.613 108.247 493.055 107.445 493.51 106.618C494.127 105.548 494.744 104.478 495.362 103.409C496.25 101.839 496.25 101.839 497.157 100.236C498.823 97.7013 500.435 96.4903 503.082 95.0338C507.513 92.496 509.187 89.1246 511.315 84.6074C511.673 83.8888 512.032 83.1702 512.401 82.4299C513.272 80.6766 514.12 78.9113 514.961 77.1436C518.064 77.6306 519.372 77.933 521.855 79.9924C523.86 81.9213 523.86 81.9213 525.958 81.5877C527.75 80.8195 527.75 80.8195 529.433 79.7645C533.103 78.2533 536.413 79.7585 540.087 80.7901C544.344 83.2668 545.783 86.43 547.779 90.8177C550.371 88.3443 552.219 85.6253 554.16 82.6133C564.614 83.6764 564.614 83.6764 568.917 88.7096C570.959 90.8968 571.808 91.678 574.828 91.9429C577.639 91.6818 577.639 91.6818 581.508 90.8177C583.313 94.4276 585.118 98.0376 586.978 101.757C587.674 100.046 588.369 98.335 589.086 96.5722C593.261 86.3038 593.261 86.3038 597.803 84.0946C598.403 83.7867 599.002 83.4789 599.619 83.1616C602.201 82.4334 603.58 82.6583 606.122 83.5249C608.401 85.2804 608.401 85.2804 610.68 87.4561C616.726 93.3657 616.726 93.3657 624.297 96.7431C628.645 98.3565 630.05 100.315 632.102 104.435C632.897 106.262 633.659 108.104 634.381 109.961C634.903 111.26 634.903 111.26 635.435 112.586C635.689 113.224 635.943 113.862 636.205 114.519C638.772 114.863 638.772 114.863 641.674 114.519C643.89 112.768 643.89 112.768 645.662 110.417C646.604 109.275 646.604 109.275 647.564 108.11C648.027 107.517 648.49 106.925 648.967 106.315C650.612 106.354 650.612 106.354 652.613 107.227C653.746 109.472 654.63 111.54 655.462 113.893C657.436 119.327 657.436 119.327 659.906 124.547C660.47 123.889 661.034 123.231 661.615 122.553C663.772 120.378 665.903 119.207 668.68 117.938C673.546 115.658 677.335 112.546 681.379 109.039C683.608 107.227 683.608 107.227 685.513 106.447C688.237 104.814 689.227 102.111 690.616 99.3639C693.932 93.1846 697.917 87.4967 704.546 84.5504C708.81 84.288 712.469 88.1818 715.514 90.8177C717.477 93.114 719.288 95.4891 721.115 97.8933C724.624 102.126 728.211 103.501 733.632 104.036C737.617 104.666 739.217 106.114 741.598 109.347C742.599 110.821 743.551 112.328 744.5 113.836C746.818 116.729 748.417 117.352 751.978 118.166C752.526 117.44 752.526 117.44 753.085 116.699C756.932 111.918 760.549 108.824 766.564 107.227C769.203 107.344 770.549 107.813 772.816 109.098C775.042 110.082 776.409 110.114 778.824 109.979C779.593 109.949 780.363 109.919 781.155 109.888C781.962 109.856 782.768 109.824 783.599 109.79C795.913 109.591 795.913 109.591 801.205 114.519C806.003 119.246 810.312 124.357 813.967 130.017C813.967 130.618 813.967 131.22 813.967 131.84C817.399 130.696 818.246 129.259 820.462 126.427C823.915 122.095 827.503 117.951 831.248 113.871C833.165 111.783 833.165 111.783 834.916 109.377C836.823 107.149 838.19 106.204 840.859 105.061C841.546 104.754 842.232 104.446 842.939 104.128C845.261 103.499 846.377 103.649 848.608 104.492C849.341 104.999 850.074 105.507 850.83 106.03C853.122 107.537 853.122 107.537 855.616 106.543C856.311 106.167 857.007 105.791 857.724 105.403C860.02 104.255 861.712 104.427 864.276 104.378C869.283 103.968 871.155 102.642 874.389 98.9509C877.969 94.9477 881.672 92.0434 887.095 91.3589C891.336 91.32 895.311 91.603 899.487 92.356C903.445 92.7441 906.233 91.8382 909.685 89.9061C910.735 88.9833 911.761 88.0326 912.762 87.0573C915.414 84.5629 917.061 84.1405 920.681 84.0376C923.964 83.9557 923.964 83.9557 926.628 82.2572C927.466 81.1427 928.295 80.0207 929.114 78.8921C932.836 74.6617 938.512 71.9312 944.041 71.2752C947.441 70.6978 948.119 70.0025 950.536 67.6858C956.228 62.3553 963.535 60.8313 971.236 61.0268C974.167 61.8299 974.958 62.9039 976.631 65.4068C977.44 66.8715 978.222 68.3525 978.967 69.8508C981.794 74.684 983.95 76.7057 988.995 78.9669C990.8 78.9669 992.605 78.9669 994.464 78.9669C996.871 74.7552 999.277 70.5436 1001.76 66.2044C1002.96 66.5052 1004.16 66.8061 1005.4 67.116C1006.16 68.607 1006.92 70.1056 1007.58 71.6442C1009.94 77.0653 1009.94 77.0653 1014.37 80.7166C1016.3 81.278 1018.11 81.5994 1020.1 81.8156C1020.72 81.8837 1021.34 81.9518 1021.98 82.0219C1026.67 82.2413 1029.07 80.7601 1032.75 78.0552C1035.97 78.1196 1037.58 78.4232 1040.04 80.5052C1041.86 81.9821 1041.86 81.9821 1044.37 81.3598C1049.38 78.8563 1053.15 75.0395 1057.01 71.0188C1063.44 64.553 1063.44 64.553 1067.32 64.0038C1069.58 64.2402 1071.61 64.608 1073.77 65.2928C1074.07 64.6912 1074.38 64.0895 1074.69 63.4696C1075.29 63.4696 1075.89 63.4696 1076.51 63.4696C1076.77 62.9056 1077.03 62.3415 1077.31 61.7604C1078.33 59.8232 1078.33 59.8232 1080.15 58Z" fill="#58994B"/>
<circle cx="470.5" cy="114.5" r="10.5" fill="#58994B"/>
<path d="M470.5 295V0" stroke="#58994B" stroke-width="3" stroke-dasharray="6 5"/>
<path d="M94.3828 111.52C94.3828 114.613 93.7695 117.227 92.5428 119.36C91.3162 121.44 89.6895 123.12 87.6628 124.4C85.6361 125.68 83.3161 126.613 80.7028 127.2C78.1428 127.733 75.5028 128 72.7828 128H50.2228V71.36H72.7828C74.9695 71.36 77.2095 71.6 79.5028 72.08C81.7961 72.5067 83.8761 73.28 85.7428 74.4C87.6095 75.4667 89.1295 76.9333 90.3028 78.8C91.4761 80.6667 92.0628 83.04 92.0628 85.92C92.0628 89.0667 91.2095 91.68 89.5028 93.76C87.7961 95.7867 85.5561 97.2533 82.7828 98.16V98.32C84.3828 98.5867 85.8761 99.0933 87.2628 99.84C88.7028 100.533 89.9295 101.44 90.9428 102.56C92.0095 103.68 92.8361 104.987 93.4228 106.48C94.0628 107.973 94.3828 109.653 94.3828 111.52ZM78.8628 87.76C78.8628 85.84 78.1161 84.4533 76.6228 83.6C75.1828 82.6933 73.0228 82.24 70.1428 82.24H63.4228V93.92H70.7828C73.3428 93.92 75.3161 93.4133 76.7028 92.4C78.1428 91.3333 78.8628 89.7867 78.8628 87.76ZM80.7028 110.24C80.7028 107.893 79.8228 106.267 78.0628 105.36C76.3028 104.453 73.9561 104 71.0228 104H63.4228V116.96H71.1028C72.1695 116.96 73.2628 116.88 74.3828 116.72C75.5561 116.507 76.5961 116.16 77.5028 115.68C78.4628 115.2 79.2361 114.533 79.8228 113.68C80.4095 112.773 80.7028 111.627 80.7028 110.24ZM151.426 106.64C151.426 110.053 150.839 113.173 149.666 116C148.546 118.773 146.919 121.173 144.786 123.2C142.653 125.173 140.066 126.72 137.026 127.84C134.039 128.96 130.706 129.52 127.026 129.52C123.293 129.52 119.933 128.96 116.946 127.84C113.959 126.72 111.426 125.173 109.346 123.2C107.266 121.173 105.666 118.773 104.546 116C103.426 113.173 102.866 110.053 102.866 106.64V71.36H116.466V105.52C116.466 107.067 116.653 108.533 117.026 109.92C117.453 111.307 118.066 112.56 118.866 113.68C119.719 114.747 120.813 115.6 122.146 116.24C123.533 116.88 125.186 117.2 127.106 117.2C129.026 117.2 130.653 116.88 131.986 116.24C133.373 115.6 134.493 114.747 135.346 113.68C136.199 112.56 136.813 111.307 137.186 109.92C137.559 108.533 137.746 107.067 137.746 105.52V71.36H151.426V106.64ZM192.408 86.08C191.235 84.5867 189.688 83.4133 187.768 82.56C185.902 81.6533 184.088 81.2 182.328 81.2C181.422 81.2 180.488 81.28 179.528 81.44C178.622 81.6 177.795 81.92 177.048 82.4C176.302 82.8267 175.662 83.4133 175.128 84.16C174.648 84.8533 174.408 85.76 174.408 86.88C174.408 87.84 174.595 88.64 174.968 89.28C175.395 89.92 175.982 90.48 176.728 90.96C177.528 91.44 178.462 91.8933 179.528 92.32C180.595 92.6933 181.795 93.0933 183.128 93.52C185.048 94.16 187.048 94.88 189.128 95.68C191.208 96.4267 193.102 97.44 194.808 98.72C196.515 100 197.928 101.6 199.048 103.52C200.168 105.387 200.728 107.733 200.728 110.56C200.728 113.813 200.115 116.64 198.888 119.04C197.715 121.387 196.115 123.333 194.088 124.88C192.062 126.427 189.742 127.573 187.128 128.32C184.515 129.067 181.822 129.44 179.048 129.44C174.995 129.44 171.075 128.747 167.288 127.36C163.502 125.92 160.355 123.893 157.848 121.28L166.808 112.16C168.195 113.867 170.008 115.307 172.248 116.48C174.542 117.6 176.808 118.16 179.048 118.16C180.062 118.16 181.048 118.053 182.008 117.84C182.968 117.627 183.795 117.28 184.488 116.8C185.235 116.32 185.822 115.68 186.248 114.88C186.675 114.08 186.888 113.12 186.888 112C186.888 110.933 186.622 110.027 186.088 109.28C185.555 108.533 184.782 107.867 183.768 107.28C182.808 106.64 181.582 106.08 180.088 105.6C178.648 105.067 176.995 104.507 175.128 103.92C173.315 103.333 171.528 102.64 169.768 101.84C168.062 101.04 166.515 100.027 165.128 98.8C163.795 97.52 162.702 96 161.848 94.24C161.048 92.4267 160.648 90.24 160.648 87.68C160.648 84.5333 161.288 81.84 162.568 79.6C163.848 77.36 165.528 75.52 167.608 74.08C169.688 72.64 172.035 71.6 174.648 70.96C177.262 70.2667 179.902 69.92 182.568 69.92C185.768 69.92 189.022 70.5067 192.328 71.68C195.688 72.8533 198.622 74.5867 201.128 76.88L192.408 86.08ZM209.754 128V71.36H223.514V128H209.754ZM271.223 128L248.423 90.96H248.183L248.503 128H235.223V71.36H250.823L273.543 108.32H273.783L273.463 71.36H286.743V128H271.223ZM298.426 128V71.36H336.506V82.96H311.626V93.6H335.146V104.56H311.626V116.32H337.946V128H298.426ZM369.98 70.56C373.02 70.6667 376.14 71.2 379.34 72.16C382.54 73.12 385.393 74.6133 387.9 76.64C385.286 79.6267 382.7 82.5333 380.14 85.36C378.806 84.0267 377.206 82.9867 375.34 82.24C373.473 81.4933 371.686 81.0933 369.98 81.04V93.84C372.06 94.48 374.166 95.2 376.3 96C378.433 96.8 380.38 97.8667 382.14 99.2C383.9 100.533 385.34 102.16 386.46 104.08C387.58 106 388.14 108.4 388.14 111.28C388.14 114.213 387.606 116.773 386.54 118.96C385.526 121.093 384.14 122.88 382.38 124.32C380.673 125.76 378.7 126.853 376.46 127.6C374.273 128.347 372.006 128.747 369.66 128.8V134.64H363.74V128.8C360.273 128.693 356.78 128.053 353.26 126.88C349.74 125.653 346.646 123.84 343.98 121.44C345.366 120 346.753 118.56 348.14 117.12C349.58 115.627 350.993 114.133 352.38 112.64C353.073 113.44 353.9 114.187 354.86 114.88C355.82 115.52 356.806 116.08 357.82 116.56C358.833 117.04 359.846 117.44 360.86 117.76C361.873 118.027 362.833 118.16 363.74 118.16V104.16C361.446 103.52 359.233 102.8 357.1 102C355.02 101.2 353.18 100.16 351.58 98.88C349.98 97.6 348.7 96.0533 347.74 94.24C346.78 92.3733 346.3 90.1067 346.3 87.44C346.3 84.8267 346.833 82.5067 347.9 80.48C348.966 78.4 350.353 76.6667 352.06 75.28C353.766 73.84 355.686 72.7467 357.82 72C359.953 71.2 362.06 70.7467 364.14 70.64V65.12H369.98V70.56ZM364.14 80.88C362.7 81.04 361.393 81.6 360.22 82.56C359.1 83.4667 358.54 84.8 358.54 86.56C358.54 88.2667 359.046 89.5733 360.06 90.48C361.073 91.3867 362.433 92.0533 364.14 92.48V80.88ZM369.66 118.24C371.473 118.133 372.886 117.547 373.9 116.48C374.966 115.36 375.5 113.867 375.5 112C375.5 110.133 374.94 108.747 373.82 107.84C372.753 106.88 371.366 106.133 369.66 105.6V118.24ZM421.698 70.56C424.738 70.6667 427.858 71.2 431.058 72.16C434.258 73.12 437.112 74.6133 439.618 76.64C437.005 79.6267 434.418 82.5333 431.858 85.36C430.525 84.0267 428.925 82.9867 427.058 82.24C425.192 81.4933 423.405 81.0933 421.698 81.04V93.84C423.778 94.48 425.885 95.2 428.018 96C430.152 96.8 432.098 97.8667 433.858 99.2C435.618 100.533 437.058 102.16 438.178 104.08C439.298 106 439.858 108.4 439.858 111.28C439.858 114.213 439.325 116.773 438.258 118.96C437.245 121.093 435.858 122.88 434.098 124.32C432.392 125.76 430.418 126.853 428.178 127.6C425.992 128.347 423.725 128.747 421.378 128.8V134.64H415.458V128.8C411.992 128.693 408.498 128.053 404.978 126.88C401.458 125.653 398.365 123.84 395.698 121.44C397.085 120 398.472 118.56 399.858 117.12C401.298 115.627 402.712 114.133 404.098 112.64C404.792 113.44 405.618 114.187 406.578 114.88C407.538 115.52 408.525 116.08 409.538 116.56C410.552 117.04 411.565 117.44 412.578 117.76C413.592 118.027 414.552 118.16 415.458 118.16V104.16C413.165 103.52 410.952 102.8 408.818 102C406.738 101.2 404.898 100.16 403.298 98.88C401.698 97.6 400.418 96.0533 399.458 94.24C398.498 92.3733 398.018 90.1067 398.018 87.44C398.018 84.8267 398.552 82.5067 399.618 80.48C400.685 78.4 402.072 76.6667 403.778 75.28C405.485 73.84 407.405 72.7467 409.538 72C411.672 71.2 413.778 70.7467 415.858 70.64V65.12H421.698V70.56ZM415.858 80.88C414.418 81.04 413.112 81.6 411.938 82.56C410.818 83.4667 410.258 84.8 410.258 86.56C410.258 88.2667 410.765 89.5733 411.778 90.48C412.792 91.3867 414.152 92.0533 415.858 92.48V80.88ZM421.378 118.24C423.192 118.133 424.605 117.547 425.618 116.48C426.685 115.36 427.218 113.867 427.218 112C427.218 110.133 426.658 108.747 425.538 107.84C424.472 106.88 423.085 106.133 421.378 105.6V118.24Z" fill="white"/>
<path d="M94.3984 201.52C94.3984 204.613 93.7851 207.227 92.5584 209.36C91.3318 211.44 89.7051 213.12 87.6784 214.4C85.6518 215.68 83.3318 216.613 80.7184 217.2C78.1584 217.733 75.5184 218 72.7984 218H50.2384V161.36H72.7984C74.9851 161.36 77.2251 161.6 79.5184 162.08C81.8118 162.507 83.8918 163.28 85.7584 164.4C87.6251 165.467 89.1451 166.933 90.3184 168.8C91.4918 170.667 92.0784 173.04 92.0784 175.92C92.0784 179.067 91.2251 181.68 89.5184 183.76C87.8118 185.787 85.5718 187.253 82.7984 188.16V188.32C84.3984 188.587 85.8918 189.093 87.2784 189.84C88.7184 190.533 89.9451 191.44 90.9584 192.56C92.0251 193.68 92.8518 194.987 93.4384 196.48C94.0784 197.973 94.3984 199.653 94.3984 201.52ZM78.8784 177.76C78.8784 175.84 78.1318 174.453 76.6384 173.6C75.1984 172.693 73.0384 172.24 70.1584 172.24H63.4384V183.92H70.7984C73.3584 183.92 75.3318 183.413 76.7184 182.4C78.1584 181.333 78.8784 179.787 78.8784 177.76ZM80.7184 200.24C80.7184 197.893 79.8384 196.267 78.0784 195.36C76.3184 194.453 73.9718 194 71.0384 194H63.4384V206.96H71.1184C72.1851 206.96 73.2784 206.88 74.3984 206.72C75.5718 206.507 76.6118 206.16 77.5184 205.68C78.4784 205.2 79.2518 204.533 79.8384 203.68C80.4251 202.773 80.7184 201.627 80.7184 200.24Z" fill="white"/>
<path d="M126 161L156 218H96L126 161Z" fill="#00BB13"/>
<path d="M163.238 218V161.36H176.998V218H163.238ZM188.707 218V161.36H202.467V206.08H224.387V218H188.707ZM287.435 189.44C287.435 193.92 286.661 198.027 285.115 201.76C283.568 205.44 281.408 208.613 278.635 211.28C275.915 213.893 272.661 215.92 268.875 217.36C265.088 218.8 260.981 219.52 256.555 219.52C252.128 219.52 248.021 218.8 244.235 217.36C240.501 215.92 237.248 213.893 234.475 211.28C231.755 208.613 229.621 205.44 228.075 201.76C226.528 198.027 225.755 193.92 225.755 189.44C225.755 184.907 226.528 180.827 228.075 177.2C229.621 173.52 231.755 170.4 234.475 167.84C237.248 165.28 240.501 163.307 244.235 161.92C248.021 160.533 252.128 159.84 256.555 159.84C260.981 159.84 265.088 160.533 268.875 161.92C272.661 163.307 275.915 165.28 278.635 167.84C281.408 170.4 283.568 173.52 285.115 177.2C286.661 180.827 287.435 184.907 287.435 189.44ZM272.795 189.44C272.795 186.987 272.395 184.693 271.595 182.56C270.795 180.427 269.675 178.613 268.235 177.12C266.848 175.573 265.141 174.373 263.115 173.52C261.141 172.613 258.955 172.16 256.555 172.16C254.155 172.16 251.968 172.613 249.995 173.52C248.021 174.373 246.315 175.573 244.875 177.12C243.435 178.613 242.315 180.427 241.515 182.56C240.768 184.693 240.395 186.987 240.395 189.44C240.395 192 240.795 194.373 241.595 196.56C242.395 198.693 243.488 200.533 244.875 202.08C246.315 203.627 248.021 204.853 249.995 205.76C251.968 206.613 254.155 207.04 256.555 207.04C258.955 207.04 261.141 206.613 263.115 205.76C265.088 204.853 266.795 203.627 268.235 202.08C269.675 200.533 270.795 198.693 271.595 196.56C272.395 194.373 272.795 192 272.795 189.44Z" fill="white"/>
<path d="M316 218L346 161H286L316 218Z" fill="#CC0000"/>
<path fill-rule="evenodd" clip-rule="evenodd" d="M347.663 173.04L353.811 161.36H393.338V173.04H377.338V218H363.658V173.04H347.663Z" fill="white"/>
</g>
<defs>
<linearGradient id="paint0_linear_374_1290" x1="262.5" y1="77" x2="262.5" y2="372" gradientUnits="userSpaceOnUse">
<stop stop-color="#58994B"/>
<stop offset="0.7" stop-color="#1D3319"/>
</linearGradient>
<linearGradient id="paint1_linear_374_1290" x1="262.5" y1="77" x2="262.5" y2="372" gradientUnits="userSpaceOnUse">
<stop stop-color="#58994B"/>
<stop offset="0.7" stop-color="#1D3319"/>
</linearGradient>
<clipPath id="clip0_374_1290">
<rect width="525" height="295" rx="15" fill="white"/>
</clipPath>
</defs>
</svg>
