<svg width="50" height="100" viewBox="0 0 50 100" fill="none" xmlns="http://www.w3.org/2000/svg">
<path d="M24.6312 -0.00561523C23.015 1.11499 15.6961 7.62494 12.657 13.6827C9.61781 19.7404 5.90851 31.4066 5.46888 42.5376C5.16032 50.3516 5.77123 55.5694 6.92285 59.7622L0.255246 75.3335C-0.606633 77.0882 0.756525 79.0918 2.81219 79.0917C17.599 79.0917 32.3859 79.0918 47.1727 79.0918C49.2283 79.0918 50.5915 77.0882 49.7296 75.3335L42.1968 58.0006C43.492 53.1943 44.3032 47.9127 44.3032 41.6016C44.3032 32.6504 39.7112 19.8949 36.649 13.7599C33.5869 7.62494 26.268 1.12932 24.6312 -0.00561523Z" fill="#F5A51A"/>
<path d="M17.6573 13.6989C16.4659 13.695 15.3823 14.393 14.9216 15.4918C12.0925 22.2395 8.68928 32.3582 8.28339 42.6358C7.99602 49.9096 8.52954 54.7411 9.49838 58.5293C10.4682 62.3208 11.8994 65.1869 13.6362 68.6459L13.6451 68.6637C14.2512 69.8707 14.8938 73.1505 15.5489 74.5451L33.6933 74.5452C37.9228 65.0317 41.4868 54.6313 41.4868 41.6016C41.4868 33.4728 37.5772 22.8297 34.3701 15.5058C33.8995 14.4312 32.8348 13.7477 31.6616 13.744L17.6573 13.6989Z" fill="#F4F4F4"/>
<path d="M31.8563 24.2831C35.4309 27.6437 35.4309 33.0925 31.8563 36.4531C28.2816 39.8139 22.4861 39.8137 18.9116 36.4531C15.337 33.0924 15.3369 27.6439 18.9116 24.2831C22.4861 20.9225 28.2817 20.9224 31.8563 24.2831Z" fill="#9B9B9B"/>
<path d="M29.8648 26.1554C32.3395 28.4819 32.3395 32.2542 29.8648 34.5808C27.39 36.9075 23.3777 36.9073 20.9031 34.5808C18.4285 32.2542 18.4283 28.4821 20.9031 26.1554C23.3777 23.8289 27.3902 23.8289 29.8648 26.1554Z" fill="#83CBFF"/>
<path d="M24.4564 99.9944C21.64 99.9944 12.4392 90.282 15.4264 83.729C15.4264 83.729 18.4137 79.1759 24.8094 79.1562C31.2053 79.1367 33.3497 81.8565 33.3497 81.8565C36.1661 87.1521 31.8504 94.3673 30.4422 94.3672C29.6646 94.3673 29.6568 93.0434 29.034 93.0433C28.4113 93.0434 28.2859 93.8294 27.6259 95.6912C27.1565 97.0151 25.583 99.9945 24.4564 99.9944Z" fill="#F8312F"/>
<path d="M14.6723 79.176C14.6722 76.9825 16.5637 75.2042 18.8969 75.2043L32.9787 75.2043C35.312 75.2043 37.2033 76.9824 37.2033 79.176C37.2035 81.3694 35.312 83.1478 32.9788 83.1477L18.8968 83.1478C16.5636 83.1477 14.6723 81.3696 14.6723 79.176Z" fill="#533566"/>
<path d="M28.8279 55.1101C27.3169 52.0348 22.668 52.0348 21.157 55.1101L12.2042 75.3335C11.3423 77.0882 12.7055 79.0918 14.7612 79.0917L35.2237 79.0918C37.2794 79.0918 38.6426 77.0882 37.7806 75.3335L28.8279 55.1101Z" fill="#F9C23C"/>
</svg>
