<svg width="525" height="295" viewBox="0 0 525 295" fill="none" xmlns="http://www.w3.org/2000/svg">
<rect x="0.5" y="0.5" width="524" height="294" rx="14.5" fill="black"/>
<rect x="0.5" y="0.5" width="524" height="294" rx="14.5" stroke="black"/>
<g filter="url(#filter0_di_570_2)">
<path d="M134.671 121.905C134.4 121.714 134.13 121.524 133.84 121.32C133.448 121.043 133.053 120.764 132.622 120.493C132.419 120.349 132.198 120.222 131.982 120.086C130.355 119.049 128.643 118.154 126.866 117.411C126.553 117.28 126.245 117.144 125.926 117.024C125.464 116.852 124.991 116.71 124.516 116.565C124.04 116.42 123.564 116.299 123.082 116.175C122.662 116.078 122.241 115.988 121.811 115.916C121.606 115.881 121.41 115.82 121.204 115.792L119.219 114.392C117.311 113.079 112.167 109.418 108.024 106.496L103.671 103.425C100.542 101.335 96.7297 100.554 93.0397 101.246C89.3495 101.939 86.0718 104.051 83.9003 107.135C82.445 109.033 81.4627 111.255 81.036 113.615L81.0209 113.637C80.964 114.017 80.9305 114.4 80.9207 114.784C80.9171 114.98 80.926 115.194 80.9419 115.379C80.9552 115.746 80.9891 116.111 81.0435 116.474C81.1057 116.875 81.1918 117.272 81.3013 117.663C81.3259 117.749 81.3297 117.825 81.3562 117.908C81.175 117.943 80.99 118.024 80.8123 118.065C80.2237 118.196 79.6432 118.361 79.0738 118.56C78.7774 118.667 78.4824 118.796 78.1892 118.922C77.6456 119.155 77.1166 119.42 76.6051 119.717C76.3055 119.887 76.0112 120.061 75.7183 120.257C75.171 120.633 74.6468 121.043 74.1482 121.483C73.894 121.71 73.6481 121.89 73.4101 122.128C72.6324 122.876 71.9271 123.697 71.3031 124.579C70.9032 125.231 70.5526 125.912 70.254 126.616C70.1363 126.878 70.0395 127.151 69.938 127.424C69.7898 127.823 69.6618 128.257 69.5379 128.713C69.3907 129.257 69.2759 129.809 69.1945 130.367C69.1333 130.762 69.0875 131.164 69.0596 131.587C69.0317 132.01 69.0135 132.366 69.0305 132.748C69.0467 133.36 69.1045 133.97 69.2034 134.575C69.2369 134.793 69.2385 135.005 69.2839 135.224C69.4402 135.986 69.6592 136.734 69.9383 137.46C69.8634 137.492 69.7852 137.547 69.7084 137.582C69.3541 137.738 68.9838 137.952 68.6128 138.161C68.378 138.296 68.1435 138.419 67.9182 138.58C67.539 138.824 67.1498 139.106 66.785 139.405C66.5575 139.581 66.3287 139.737 66.1018 139.93C65.6955 140.276 65.2952 140.684 64.8846 141.101C64.6942 141.3 64.4981 141.466 64.3055 141.679C63.6917 142.361 63.121 143.081 62.5972 143.835L62.5877 143.849C62.2234 144.442 61.9042 145.062 61.6325 145.704C61.5157 145.971 61.4188 146.244 61.3174 146.517C61.2159 146.791 61.1182 147.14 61.0227 147.474C60.8469 148.098 60.7175 148.734 60.6352 149.377C60.5967 149.658 60.561 149.942 60.5415 150.236C60.5155 150.657 60.5097 151.071 60.5248 151.495C60.5399 151.92 60.5912 152.281 60.6407 152.685C60.6901 153.09 60.7095 153.404 60.7928 153.771C60.952 154.5 61.173 155.214 61.4532 155.905C61.3342 155.984 61.2357 156.125 61.1099 156.219C60.6305 156.604 60.1741 157.017 59.743 157.455C59.5369 157.659 59.3283 157.849 59.1274 158.069C58.4678 158.787 57.8561 159.549 57.2962 160.349L57.281 160.371C56.2612 161.96 55.5636 163.736 55.2284 165.598C54.8933 167.459 54.9272 169.369 55.3283 171.217C55.7294 173.066 56.4897 174.816 57.5653 176.366C58.6409 177.917 60.0107 179.238 61.5956 180.254L70.173 186.304C70.751 186.706 71.3593 187.062 71.9924 187.368C72.041 187.402 72.0924 187.438 72.1411 187.473L72.5332 187.749C85.5005 197.01 103.263 209.697 121.617 206.494C131.567 204.743 140.394 198.422 147.854 187.689C165.989 161.598 154.135 137.559 138.432 124.842C137.972 124.398 137.479 123.988 136.959 123.617C136.535 123.293 136.061 122.931 135.553 122.548C135.272 122.338 134.977 122.125 134.671 121.905ZM99.8746 108.874L104.22 111.94C106.308 113.412 108.655 115.068 110.71 116.517L111.445 117.036C106.885 119.176 102.993 122.535 100.194 126.747C98.1404 125.359 95.7443 123.722 93.3998 122.068C92.2848 121.295 91.2251 120.445 90.2285 119.522L89.772 119.054C89.0885 118.385 88.5029 117.621 88.0332 116.785C87.9753 116.671 87.9348 116.561 87.8869 116.45C87.8391 116.339 87.7761 116.169 87.7315 116.036C87.556 115.494 87.5079 114.918 87.5911 114.354C87.5976 114.299 87.607 114.245 87.6195 114.191C87.6495 114.02 87.6912 113.851 87.7445 113.686C87.8243 113.446 87.9202 113.211 88.0315 112.984L88.1035 112.84C88.4606 112.184 88.858 111.552 89.2939 110.947C90.4647 109.31 92.2109 108.185 94.1766 107.8C96.1426 107.414 98.1801 107.799 99.8746 108.874ZM82.3812 165.865L72.4707 158.874C71.0356 157.908 69.7631 156.717 68.7007 155.346L68.6602 155.318C68.3229 154.856 68.0301 154.362 67.786 153.844C67.6956 153.648 67.6162 153.447 67.5479 153.242C67.453 152.999 67.3725 152.751 67.3065 152.499C67.2478 152.259 67.1983 152.017 67.1632 151.789C67.1281 151.562 67.1322 151.463 67.123 151.302C67.0797 150.545 67.1732 149.785 67.3992 149.061C67.4435 148.922 67.4871 148.778 67.5423 148.647C67.5975 148.515 67.651 148.374 67.7097 148.249C67.82 148.006 67.9449 147.77 68.0838 147.543C69.3521 145.435 71.3627 143.886 73.7147 143.205C74.9585 144.557 76.3401 145.774 77.8367 146.835L88.7505 154.533C89.9561 155.37 91.2177 156.121 92.5266 156.782C93.8118 157.611 94.7541 158.882 95.1791 160.358C95.2973 162.202 94.6941 164.019 93.4982 165.42C92.0592 166.924 90.0997 167.809 88.0281 167.892C85.9568 167.975 83.9337 167.248 82.3812 165.865ZM92.8097 149.232C92.7232 149.171 92.6502 149.12 92.5582 149.055L81.6445 141.357C80.0817 140.296 78.6929 138.996 77.5284 137.504C77.3578 137.274 77.2218 137.052 77.0804 136.826C76.8612 136.497 76.662 136.154 76.4836 135.801C76.3533 135.53 76.2303 135.261 76.1346 134.998C76.0389 134.736 75.9751 134.48 75.9 134.24C75.8174 133.954 75.7499 133.664 75.6981 133.371C75.6797 133.252 75.6841 133.142 75.673 133.024C75.6146 132.402 75.6362 131.775 75.7373 131.158C75.7563 131.049 75.7636 130.929 75.788 130.824C75.8432 130.571 75.9135 130.336 75.9847 130.106C76.0445 129.933 76.1015 129.758 76.1657 129.597C76.2298 129.435 76.2901 129.278 76.3661 129.117C76.5122 128.814 76.6664 128.517 76.8195 128.267C77.2171 127.693 77.6708 127.161 78.1743 126.678C78.8582 126.032 79.6439 125.505 80.4992 125.119C80.688 125.033 80.8776 124.911 81.0642 124.839C82.5697 124.284 84.1935 124.137 85.7729 124.414C86.9768 125.543 88.2599 126.584 89.6127 127.528C92.0193 129.226 94.4749 130.905 96.5747 132.325C92.6505 139.142 91.4152 144.705 92.8097 149.232ZM65.3797 174.804C64.5 174.281 63.7329 173.586 63.1233 172.76C62.5138 171.935 62.0741 170.995 61.8301 169.996C61.5861 168.997 61.5427 167.958 61.7025 166.942C61.8622 165.926 62.2219 164.952 62.7604 164.078C63.3098 163.278 63.9447 162.541 64.6538 161.881C64.686 161.835 64.7219 161.783 64.7785 161.754C64.9383 161.611 65.1063 161.555 65.2694 161.431C66.3202 162.494 67.4628 163.462 68.6838 164.322L78.5943 171.313C80.7944 172.879 83.3341 173.892 86.002 174.268C85.7646 176.015 85.0789 177.67 84.012 179.068C82.8081 180.503 81.1426 181.468 79.3054 181.794C77.4686 182.12 75.5761 181.788 73.9572 180.854L65.3797 174.804ZM133.935 129.717L134.185 129.938C162.113 152.409 145.966 178.81 142.446 183.874C135.94 193.234 128.76 198.485 120.494 199.929C107.791 202.145 94.5445 194.811 83.5771 187.375C85.8812 186.418 87.8958 184.869 89.4203 182.883C91.4259 180.252 92.5644 177.055 92.6765 173.739C95.1744 172.951 97.3553 171.376 98.8988 169.246C100.012 167.843 100.832 166.226 101.308 164.495C101.784 162.763 101.907 160.953 101.67 159.172C101.581 158.75 101.467 158.333 101.328 157.924C103.965 158.85 106.804 159.026 109.533 158.434C106.891 167.186 106.576 176.483 108.621 185.396C108.716 185.822 108.894 186.225 109.144 186.582C109.394 186.939 109.712 187.243 110.078 187.476C110.445 187.709 110.853 187.867 111.281 187.942C111.708 188.016 112.145 188.005 112.569 187.909C112.992 187.812 113.392 187.633 113.746 187.381C114.1 187.13 114.402 186.81 114.633 186.44C114.865 186.071 115.022 185.66 115.096 185.229C115.169 184.799 115.158 184.358 115.063 183.932C113.656 177.755 113.528 171.353 114.684 165.124C115.842 158.895 118.26 152.973 121.788 147.726C122.098 147.28 122.375 146.882 122.615 146.536L131.252 152.628C131.969 153.134 132.857 153.332 133.719 153.179C134.581 153.026 135.348 152.534 135.85 151.812C136.352 151.089 136.549 150.195 136.397 149.327C136.245 148.458 135.756 147.686 135.039 147.18L125.926 140.752C124.698 139.893 123.213 139.484 121.721 139.596C120.964 139.502 120.2 139.682 119.562 140.104C118.422 140.581 117.439 141.374 116.727 142.391L111.638 149.713C110.496 151.037 108.919 151.903 107.196 152.154C105.472 152.405 103.717 152.024 102.249 151.08C99.6802 149.268 94.8993 145.896 105.105 131.213C106.354 129.026 108.029 127.115 110.03 125.596C112.031 124.077 114.317 122.982 116.749 122.376C118.106 122.185 119.485 122.223 120.831 122.487C121.097 122.533 121.367 122.556 121.632 122.621C122.042 122.716 122.441 122.86 122.845 122.986C123.603 123.227 124.347 123.512 125.071 123.842C125.221 123.911 125.381 123.975 125.518 124.039C126.005 124.273 126.476 124.528 126.943 124.789C127.073 124.881 127.235 124.95 127.369 125.024C127.82 125.285 128.258 125.558 128.685 125.831L129.121 126.114C129.511 126.389 129.906 126.643 130.279 126.907C130.479 127.048 130.674 127.185 130.869 127.322C131.158 127.526 131.447 127.731 131.709 127.94C132.15 128.25 132.562 128.586 132.943 128.878L133.056 128.959C133.37 129.187 133.664 129.44 133.935 129.717Z" fill="white"/>
</g>
<g filter="url(#filter1_di_570_2)">
<path d="M223.647 137.764C218.539 133.117 216.715 125.268 221.531 119.362C223.942 116.404 227.619 115.195 231.103 115.302C233.632 115.38 236.238 116.143 238.556 117.6C238.394 116.516 238.346 115.413 238.421 114.328C238.648 111.077 240.044 107.504 243.436 105.315C245.52 103.969 248.221 102.909 251.206 103.006C254.305 103.107 257.342 104.45 259.902 107.271C260.752 108.209 262.16 110.128 263.724 112.319C264.913 113.983 266.289 115.944 267.74 118.01C268.267 118.762 268.805 119.527 269.347 120.298C271.232 122.978 273.158 125.7 274.946 128.156C274.929 126.925 274.889 125.793 274.848 124.914C274.672 121.069 274.786 117.243 276.705 113.782C278.501 110.543 281.644 108.582 286.144 108.162C290.654 107.741 294.139 109.155 296.502 111.55C298.74 113.818 299.718 116.701 299.901 118.96C300.993 132.453 301.92 142.593 307.281 154.145C313.83 168.257 310.907 182.956 304.865 192.199L304.787 192.32L304.698 192.434C300.742 197.562 295.743 201.968 289.404 204.558C283.033 207.161 275.576 207.82 266.923 205.868C261.462 204.636 255.221 201.573 250.171 198.788C247.602 197.372 245.257 195.979 243.377 194.849L242.356 194.235C241.04 193.443 240.116 192.887 239.564 192.589L218.751 183.335L218.65 183.282C212.681 180.17 210.3 172.815 213.29 166.787L213.299 166.769C214.589 164.205 216.519 162.388 218.758 161.277L218.366 161.027C215.12 158.957 213.282 155.982 212.794 152.755C212.319 149.622 213.152 146.516 214.716 144.03C216.281 141.544 218.718 139.456 221.743 138.548C222.487 138.324 223.252 138.177 224.028 138.111L223.647 137.764ZM240.204 153.089L240.199 153.083L240.172 153.054L240.19 153.074C240.201 153.085 240.204 153.089 240.204 153.089ZM227.132 167.766C223.873 166.57 221.036 167.714 219.841 170.078C218.657 172.476 219.58 175.417 221.937 176.706L242.751 185.96L242.855 186.015C243.607 186.408 244.819 187.139 246.218 187.982L247.135 188.534C248.993 189.65 251.247 190.988 253.695 192.338C258.681 195.087 264.149 197.701 268.527 198.688C275.901 200.352 281.816 199.715 286.644 197.742C291.461 195.774 295.46 192.366 298.821 188.042C303.598 180.644 305.959 168.709 300.643 157.254C294.663 144.368 293.689 133 292.601 119.556C292.534 118.734 292.133 117.574 291.302 116.731C290.596 116.016 289.322 115.255 286.822 115.489C284.313 115.723 283.535 116.583 283.103 117.363C282.473 118.498 282.196 120.231 282.072 122.875L282.092 123.189C282.112 123.522 282.138 123.996 282.165 124.575C282.218 125.73 282.272 127.314 282.277 129.017C282.282 130.709 282.237 132.578 282.082 134.284C281.938 135.865 281.666 137.755 281.007 139.215C280.492 140.357 279.434 141.157 278.2 141.337C276.965 141.518 275.724 141.055 274.906 140.108C271.974 136.716 267.409 130.293 263.365 124.544C262.813 123.758 262.269 122.983 261.737 122.226C260.293 120.17 258.943 118.246 257.773 116.608C256.116 114.287 254.986 112.775 254.489 112.228C253.177 110.781 251.968 110.393 250.968 110.36C249.853 110.324 248.6 110.728 247.395 111.505C246.469 112.103 245.841 113.209 245.727 114.841C245.611 116.519 246.099 118.236 246.822 119.311C248.39 121.643 249.99 124.002 251.472 126.186L251.475 126.19L251.482 126.201C252.554 127.779 253.563 129.266 254.452 130.585C255.001 131.399 255.503 132.147 255.939 132.804L261.025 140.237C262.171 141.911 261.749 144.202 260.082 145.352C258.416 146.504 256.136 146.08 254.99 144.405L252.21 140.343C252.149 140.295 252.1 140.254 252.065 140.223L251.996 140.164L236.003 124.888C234.521 123.436 232.618 122.71 230.879 122.657C229.11 122.602 227.847 123.226 227.197 124.024C225.431 126.19 225.623 129.635 228.563 132.31C232.824 136.185 237.245 140.244 240.495 143.261C242.033 144.689 243.319 145.893 244.205 146.736L248.527 150.555C250.045 151.897 250.193 154.222 248.857 155.747C247.522 157.273 245.207 157.422 243.689 156.08L241.256 153.93C241.172 153.887 241.105 153.848 241.061 153.822L241.006 153.789L227.838 146.408L227.749 146.358L227.663 146.303C226.133 145.329 224.854 145.293 223.842 145.597C222.736 145.929 221.661 146.765 220.907 147.962C220.153 149.16 219.86 150.498 220.034 151.649C220.194 152.703 220.774 153.848 222.295 154.817L222.303 154.822C226.739 157.662 230.957 160.144 233.993 161.882C236.993 163.598 240.005 165.279 243.159 166.696L243.427 166.816L243.44 166.821L243.443 166.823C245.293 167.644 246.13 169.817 245.312 171.675C244.494 173.534 242.332 174.374 240.482 173.552L240.475 173.55L240.459 173.542L240.399 173.515L240.17 173.413C239.973 173.325 239.689 173.197 239.338 173.037C238.636 172.717 237.664 172.27 236.579 171.758C235.794 171.387 234.933 170.974 234.064 170.545L227.132 167.766ZM255.884 178.26C258.069 174.595 261.663 168.719 265.858 163.199C267.289 161.316 268.746 159.536 270.199 157.925C270.151 158.175 270.104 158.427 270.059 158.683C268.728 166.13 268.226 176.269 271.814 186.557C272.482 188.474 274.572 189.484 276.481 188.812C278.389 188.14 279.394 186.041 278.726 184.123C275.697 175.441 276.07 166.687 277.267 159.983C277.863 156.649 278.654 153.876 279.29 151.949C279.608 150.987 279.886 150.24 280.08 149.745C280.177 149.497 280.253 149.312 280.302 149.196L280.354 149.072L280.362 149.053L280.365 149.048C280.991 147.634 280.669 145.977 279.559 144.903C278.447 143.828 276.784 143.568 275.4 144.253C269.795 147.028 264.387 153.01 260.037 158.734C255.583 164.595 251.817 170.762 249.6 174.48C248.561 176.224 249.126 178.483 250.861 179.527C252.596 180.571 254.845 180.004 255.884 178.26Z" fill="white"/>
</g>
<g filter="url(#filter2_di_570_2)">
<path d="M456.228 191.667C465.802 178.128 465.835 166.422 464.173 158.982C463.127 154.3 461.124 149.88 458.287 145.993C457.377 144.746 456.388 143.562 455.326 142.449C454.081 140.872 452.486 139.46 450.608 138.309C449.667 137.621 448.69 136.977 447.681 136.382C435.95 129.659 431.092 126.872 428.446 123.184L416.391 106.912C413.956 103.446 410.28 101.03 406.11 100.154C404.488 99.8931 402.829 99.9643 401.235 100.363C399.642 100.761 398.148 101.478 396.845 102.47C395.394 103.441 394.153 104.69 393.197 106.143C392.241 107.596 391.588 109.224 391.278 110.931C390.967 112.637 391.005 114.388 391.388 116.08C391.772 117.773 392.494 119.372 393.511 120.783L398.064 126.91C393.923 124.405 389.738 121.923 386.764 120.272C385.275 119.415 383.629 118.86 381.922 118.637C380.214 118.415 378.479 118.53 376.816 118.976C375.154 119.422 373.597 120.191 372.237 121.236C370.876 122.282 369.739 123.585 368.89 125.069C367.977 126.535 367.378 128.171 367.13 129.876C366.882 131.581 366.99 133.318 367.448 134.979C368.201 137.996 370.076 140.62 372.698 142.326L385.059 149.874C384.47 150.45 383.936 151.078 383.462 151.75C382.62 152.816 381.96 154.006 381.503 155.272C381.04 156.437 380.729 157.68 380.638 158.988C380.543 160.354 380.693 161.713 381.094 163.045C379.932 163.867 378.922 164.882 378.107 166.045C377.005 167.505 376.222 169.176 375.809 170.953C375.719 171.342 375.646 171.735 375.592 172.129C375.405 173.356 375.398 174.617 375.599 175.889C375.734 176.742 375.959 177.572 376.271 178.375C376.657 179.426 377.179 180.426 377.825 181.35C378.869 182.845 380.217 184.108 381.782 185.06L388.598 189.785C389.033 190.087 389.476 190.359 389.925 190.602C395.987 195.133 402.469 199.084 409.284 202.403C427.297 211.252 445.287 207.139 456.228 191.667ZM382.894 173.26C383.032 172.301 383.438 171.277 384.168 170.245C384.587 169.652 385.062 169.209 385.573 168.889C385.716 168.801 385.864 168.721 386.016 168.648C387.039 169.359 388.725 170.605 390.634 172.015L391.18 172.419C393.289 173.976 395.582 175.665 397.315 176.866C398.767 177.873 400.375 178.625 401.967 179.151C401.838 179.916 401.482 180.79 400.789 181.77C399.632 183.407 398.225 184.34 396.928 184.667C395.977 184.907 394.924 184.868 393.801 184.348C393.779 184.338 393.758 184.327 393.736 184.317C393.426 184.165 393.127 183.99 392.844 183.792L386.041 179.075C386.031 179.07 386.021 179.065 386.01 179.059C384.342 177.897 383.49 176.683 383.107 175.581C383.059 175.423 383.018 175.262 382.983 175.1C382.855 174.494 382.825 173.873 382.894 173.26ZM402.383 190.212C404.123 189.14 405.634 187.676 406.842 185.967C408.331 183.861 409.251 181.529 409.398 179.14C411.866 178.226 414.039 176.587 415.631 174.335C417.317 171.951 418.106 169.268 418.065 166.599C419.677 167.518 422.016 168.492 424.67 168.667C425.267 168.706 425.873 168.704 426.482 168.654C426.404 169.968 426.393 171.302 426.464 172.693C426.664 176.592 427.495 180.766 429.075 186.037C429.655 187.974 431.712 189.078 433.668 188.503C435.624 187.928 436.739 185.892 436.158 183.955C434.675 179.008 434.003 175.441 433.844 172.323C433.71 169.699 433.932 167.274 434.443 164.469C434.729 164.134 435.007 163.776 435.277 163.395C436.574 161.561 438.147 161.035 440.244 160.946C441.322 160.9 442.408 160.979 443.666 161.07L443.923 161.089C445.13 161.175 446.727 161.29 448.188 161.078C451.364 160.614 454.042 159.319 455.887 157.213L455.953 157.137C456.361 158.254 456.698 159.399 456.961 160.564C457.806 165.269 457.638 170.098 456.469 174.734C455.3 179.371 453.155 183.711 450.175 187.47C441.351 199.949 427.299 203.085 412.571 195.848C409.081 194.138 405.681 192.257 402.383 190.212ZM411.546 155.035C411.53 155.024 411.514 155.012 411.498 155.001L403.78 149.65C400.422 147.322 396.843 146.19 393.398 146.362L376.439 136.015C375.517 135.259 374.868 134.226 374.592 133.073C374.392 132.351 374.347 131.595 374.46 130.855C374.572 130.115 374.84 129.406 375.245 128.774C375.609 128.109 376.105 127.523 376.704 127.053C377.302 126.583 377.991 126.238 378.728 126.04C379.465 125.841 380.236 125.792 380.992 125.897C381.749 126.002 382.476 126.257 383.13 126.649C389.327 130.092 401.081 137.338 406.277 140.54L406.447 140.645L406.887 140.909C407.685 141.446 408.635 141.715 409.599 141.679C410.564 141.643 411.491 141.303 412.247 140.709C413.01 140.077 413.539 139.212 413.75 138.249C413.961 137.287 413.842 136.282 413.412 135.394C413.3 135.134 413.16 134.887 412.994 134.658L399.526 116.531C399.061 115.893 398.736 115.167 398.57 114.397C398.405 113.628 398.403 112.833 398.566 112.063C398.728 111.293 399.051 110.565 399.514 109.925C399.977 109.286 400.569 108.749 401.253 108.349C401.757 107.935 402.344 107.633 402.975 107.462C403.607 107.29 404.268 107.254 404.914 107.355C407.135 107.94 409.075 109.285 410.389 111.151L422.472 127.46C424.485 130.27 427.061 132.46 431.275 135.182C430.418 135.39 429.572 135.645 428.738 135.947C422.665 138.143 417.566 142.682 413.722 148.637C412.314 150.819 411.657 152.99 411.546 155.035ZM405.684 172.582C404.333 172.3 402.797 171.735 401.553 170.873C399.929 169.747 397.729 168.128 395.598 166.553L395.017 166.124C393.134 164.733 391.338 163.406 390.221 162.632C389.347 162.025 388.767 161.433 388.412 160.989L388.368 160.933C388.19 160.379 388.109 159.795 388.133 159.205C388.145 158.893 388.187 158.586 388.257 158.287C388.476 157.625 388.843 156.908 389.386 156.139C390.394 154.714 391.77 153.898 393.335 153.706C394.923 153.512 397.062 153.924 399.542 155.644L407.26 160.995C411.075 163.64 411.43 167.52 409.578 170.139C408.619 171.495 407.241 172.332 405.684 172.582ZM446.515 144.405C447.643 145.257 448.704 146.191 449.69 147.2C450.495 148.311 450.885 149.425 450.943 150.324C451.002 151.225 450.751 151.91 450.305 152.419C449.851 152.938 448.925 153.574 447.112 153.839C446.589 153.915 445.816 153.889 444.443 153.79L444.134 153.768C442.954 153.681 441.455 153.571 439.929 153.636C436.408 153.785 432.272 154.889 429.224 159.198C427.855 161.135 426.439 161.451 425.161 161.367C423.601 161.264 422.033 160.492 421.185 159.903C420.565 159.473 419.613 158.454 419.167 157.141C418.781 156.005 418.707 154.5 419.948 152.578C423.138 147.636 427.063 144.342 431.272 142.82C435.415 141.322 440.169 141.414 445.393 143.822C445.791 144.006 446.165 144.201 446.515 144.405ZM410.705 134.661L410.941 134.824C410.867 134.764 410.788 134.709 410.705 134.661Z" fill="white"/>
</g>
<mask id="path-5-inside-1_570_2" fill="white">
<path d="M134.671 121.905C134.4 121.714 134.13 121.524 133.84 121.32C133.448 121.043 133.053 120.764 132.622 120.493C132.419 120.349 132.198 120.222 131.982 120.086C130.355 119.049 128.643 118.154 126.866 117.411C126.553 117.28 126.245 117.144 125.926 117.024C125.464 116.852 124.991 116.71 124.516 116.565C124.04 116.42 123.564 116.299 123.082 116.175C122.662 116.078 122.241 115.988 121.811 115.916C121.606 115.881 121.41 115.82 121.204 115.792L119.219 114.392C117.311 113.079 112.167 109.418 108.024 106.496L103.671 103.425C100.542 101.335 96.7297 100.554 93.0397 101.246C89.3495 101.939 86.0718 104.051 83.9003 107.135C82.445 109.033 81.4627 111.255 81.036 113.615L81.0209 113.637C80.964 114.017 80.9305 114.4 80.9207 114.784C80.9171 114.98 80.926 115.194 80.9419 115.379C80.9552 115.746 80.9891 116.111 81.0435 116.474C81.1057 116.875 81.1918 117.272 81.3013 117.663C81.3259 117.749 81.3297 117.825 81.3562 117.908C81.175 117.943 80.99 118.024 80.8123 118.065C80.2237 118.196 79.6432 118.361 79.0738 118.56C78.7774 118.667 78.4824 118.796 78.1892 118.922C77.6456 119.155 77.1166 119.42 76.6051 119.717C76.3055 119.887 76.0112 120.061 75.7183 120.257C75.171 120.633 74.6468 121.043 74.1482 121.483C73.894 121.71 73.6481 121.89 73.4101 122.128C72.6324 122.876 71.9271 123.697 71.3031 124.579C70.9032 125.231 70.5526 125.912 70.254 126.616C70.1363 126.878 70.0395 127.151 69.938 127.424C69.7898 127.823 69.6618 128.257 69.5379 128.713C69.3907 129.257 69.2759 129.809 69.1945 130.367C69.1333 130.762 69.0875 131.164 69.0596 131.587C69.0317 132.01 69.0135 132.366 69.0305 132.748C69.0467 133.36 69.1045 133.97 69.2034 134.575C69.2369 134.793 69.2385 135.005 69.2839 135.224C69.4402 135.986 69.6592 136.734 69.9383 137.46C69.8634 137.492 69.7852 137.547 69.7084 137.582C69.3541 137.738 68.9838 137.952 68.6128 138.161C68.378 138.296 68.1435 138.419 67.9182 138.58C67.539 138.824 67.1498 139.106 66.785 139.405C66.5575 139.581 66.3287 139.737 66.1018 139.93C65.6955 140.276 65.2952 140.684 64.8846 141.101C64.6942 141.3 64.4981 141.466 64.3055 141.679C63.6917 142.361 63.121 143.081 62.5972 143.835L62.5877 143.849C62.2234 144.442 61.9042 145.062 61.6325 145.704C61.5157 145.971 61.4188 146.244 61.3174 146.517C61.2159 146.791 61.1182 147.14 61.0227 147.474C60.8469 148.098 60.7175 148.734 60.6352 149.377C60.5967 149.658 60.561 149.942 60.5415 150.236C60.5155 150.657 60.5097 151.071 60.5248 151.495C60.5399 151.92 60.5912 152.281 60.6407 152.685C60.6901 153.09 60.7095 153.404 60.7928 153.771C60.952 154.5 61.173 155.214 61.4532 155.905C61.3342 155.984 61.2357 156.125 61.1099 156.219C60.6305 156.604 60.1741 157.017 59.743 157.455C59.5369 157.659 59.3283 157.849 59.1274 158.069C58.4678 158.787 57.8561 159.549 57.2962 160.349L57.281 160.371C56.2612 161.96 55.5636 163.736 55.2284 165.598C54.8933 167.459 54.9272 169.369 55.3283 171.217C55.7294 173.066 56.4897 174.816 57.5653 176.366C58.6409 177.917 60.0107 179.238 61.5956 180.254L70.173 186.304C70.751 186.706 71.3593 187.062 71.9924 187.368C72.041 187.402 72.0924 187.438 72.1411 187.473L72.5332 187.749C85.5005 197.01 103.263 209.697 121.617 206.494C131.567 204.743 140.394 198.422 147.854 187.689C165.989 161.598 154.135 137.559 138.432 124.842C137.972 124.398 137.479 123.988 136.959 123.617C136.535 123.293 136.061 122.931 135.553 122.548C135.272 122.338 134.977 122.125 134.671 121.905ZM99.8746 108.874L104.22 111.94C106.308 113.412 108.655 115.068 110.71 116.517L111.445 117.036C106.885 119.176 102.993 122.535 100.194 126.747C98.1404 125.359 95.7443 123.722 93.3998 122.068C92.2848 121.295 91.2251 120.445 90.2285 119.522L89.772 119.054C89.0885 118.385 88.5029 117.621 88.0332 116.785C87.9753 116.671 87.9348 116.561 87.8869 116.45C87.8391 116.339 87.7761 116.169 87.7315 116.036C87.556 115.494 87.5079 114.918 87.5911 114.354C87.5976 114.299 87.607 114.245 87.6195 114.191C87.6495 114.02 87.6912 113.851 87.7445 113.686C87.8243 113.446 87.9202 113.211 88.0315 112.984L88.1035 112.84C88.4606 112.184 88.858 111.552 89.2939 110.947C90.4647 109.31 92.2109 108.185 94.1766 107.8C96.1426 107.414 98.1801 107.799 99.8746 108.874ZM82.3812 165.865L72.4707 158.874C71.0356 157.908 69.7631 156.717 68.7007 155.346L68.6602 155.318C68.3229 154.856 68.0301 154.362 67.786 153.844C67.6956 153.648 67.6162 153.447 67.5479 153.242C67.453 152.999 67.3725 152.751 67.3065 152.499C67.2478 152.259 67.1983 152.017 67.1632 151.789C67.1281 151.562 67.1322 151.463 67.123 151.302C67.0797 150.545 67.1732 149.785 67.3992 149.061C67.4435 148.922 67.4871 148.778 67.5423 148.647C67.5975 148.515 67.651 148.374 67.7097 148.249C67.82 148.006 67.9449 147.77 68.0838 147.543C69.3521 145.435 71.3627 143.886 73.7147 143.205C74.9585 144.557 76.3401 145.774 77.8367 146.835L88.7505 154.533C89.9561 155.37 91.2177 156.121 92.5266 156.782C93.8118 157.611 94.7541 158.882 95.1791 160.358C95.2973 162.202 94.6941 164.019 93.4982 165.42C92.0592 166.924 90.0997 167.809 88.0281 167.892C85.9568 167.975 83.9337 167.248 82.3812 165.865ZM92.8097 149.232C92.7232 149.171 92.6502 149.12 92.5582 149.055L81.6445 141.357C80.0817 140.296 78.6929 138.996 77.5284 137.504C77.3578 137.274 77.2218 137.052 77.0804 136.826C76.8612 136.497 76.662 136.154 76.4836 135.801C76.3533 135.53 76.2303 135.261 76.1346 134.998C76.0389 134.736 75.9751 134.48 75.9 134.24C75.8174 133.954 75.7499 133.664 75.6981 133.371C75.6797 133.252 75.6841 133.142 75.673 133.024C75.6146 132.402 75.6362 131.775 75.7373 131.158C75.7563 131.049 75.7636 130.929 75.788 130.824C75.8432 130.571 75.9135 130.336 75.9847 130.106C76.0445 129.933 76.1015 129.758 76.1657 129.597C76.2298 129.435 76.2901 129.278 76.3661 129.117C76.5122 128.814 76.6664 128.517 76.8195 128.267C77.2171 127.693 77.6708 127.161 78.1743 126.678C78.8582 126.032 79.6439 125.505 80.4992 125.119C80.688 125.033 80.8776 124.911 81.0642 124.839C82.5697 124.284 84.1935 124.137 85.7729 124.414C86.9768 125.543 88.2599 126.584 89.6127 127.528C92.0193 129.226 94.4749 130.905 96.5747 132.325C92.6505 139.142 91.4152 144.705 92.8097 149.232ZM65.3797 174.804C64.5 174.281 63.7329 173.586 63.1233 172.76C62.5138 171.935 62.0741 170.995 61.8301 169.996C61.5861 168.997 61.5427 167.958 61.7025 166.942C61.8622 165.926 62.2219 164.952 62.7604 164.078C63.3098 163.278 63.9447 162.541 64.6538 161.881C64.686 161.835 64.7219 161.783 64.7785 161.754C64.9383 161.611 65.1063 161.555 65.2694 161.431C66.3202 162.494 67.4628 163.462 68.6838 164.322L78.5943 171.313C80.7944 172.879 83.3341 173.892 86.002 174.268C85.7646 176.015 85.0789 177.67 84.012 179.068C82.8081 180.503 81.1426 181.468 79.3054 181.794C77.4686 182.12 75.5761 181.788 73.9572 180.854L65.3797 174.804ZM133.935 129.717L134.185 129.938C162.113 152.409 145.966 178.81 142.446 183.874C135.94 193.234 128.76 198.485 120.494 199.929C107.791 202.145 94.5445 194.811 83.5771 187.375C85.8812 186.418 87.8958 184.869 89.4203 182.883C91.4259 180.252 92.5644 177.055 92.6765 173.739C95.1744 172.951 97.3553 171.376 98.8988 169.246C100.012 167.843 100.832 166.226 101.308 164.495C101.784 162.763 101.907 160.953 101.67 159.172C101.581 158.75 101.467 158.333 101.328 157.924C103.965 158.85 106.804 159.026 109.533 158.434C106.891 167.186 106.576 176.483 108.621 185.396C108.716 185.822 108.894 186.225 109.144 186.582C109.394 186.939 109.712 187.243 110.078 187.476C110.445 187.709 110.853 187.867 111.281 187.942C111.708 188.016 112.145 188.005 112.569 187.909C112.992 187.812 113.392 187.633 113.746 187.381C114.1 187.13 114.402 186.81 114.633 186.44C114.865 186.071 115.022 185.66 115.096 185.229C115.169 184.799 115.158 184.358 115.063 183.932C113.656 177.755 113.528 171.353 114.684 165.124C115.842 158.895 118.26 152.973 121.788 147.726C122.098 147.28 122.375 146.882 122.615 146.536L131.252 152.628C131.969 153.134 132.857 153.332 133.719 153.179C134.581 153.026 135.348 152.534 135.85 151.812C136.352 151.089 136.549 150.195 136.397 149.327C136.245 148.458 135.756 147.686 135.039 147.18L125.926 140.752C124.698 139.893 123.213 139.484 121.721 139.596C120.964 139.502 120.2 139.682 119.562 140.104C118.422 140.581 117.439 141.374 116.727 142.391L111.638 149.713C110.496 151.037 108.919 151.903 107.196 152.154C105.472 152.405 103.717 152.024 102.249 151.08C99.6802 149.268 94.8993 145.896 105.105 131.213C106.354 129.026 108.029 127.115 110.03 125.596C112.031 124.077 114.317 122.982 116.749 122.376C118.106 122.185 119.485 122.223 120.831 122.487C121.097 122.533 121.367 122.556 121.632 122.621C122.042 122.716 122.441 122.86 122.845 122.986C123.603 123.227 124.347 123.512 125.071 123.842C125.221 123.911 125.381 123.975 125.518 124.039C126.005 124.273 126.476 124.528 126.943 124.789C127.073 124.881 127.235 124.95 127.369 125.024C127.82 125.285 128.258 125.558 128.685 125.831L129.121 126.114C129.511 126.389 129.906 126.643 130.279 126.907C130.479 127.048 130.674 127.185 130.869 127.322C131.158 127.526 131.447 127.731 131.709 127.94C132.15 128.25 132.562 128.586 132.943 128.878L133.056 128.959C133.37 129.187 133.664 129.44 133.935 129.717Z"/>
</mask>
<path d="M134.671 121.905C134.4 121.714 134.13 121.524 133.84 121.32C133.448 121.043 133.053 120.764 132.622 120.493C132.419 120.349 132.198 120.222 131.982 120.086C130.355 119.049 128.643 118.154 126.866 117.411C126.553 117.28 126.245 117.144 125.926 117.024C125.464 116.852 124.991 116.71 124.516 116.565C124.04 116.42 123.564 116.299 123.082 116.175C122.662 116.078 122.241 115.988 121.811 115.916C121.606 115.881 121.41 115.82 121.204 115.792L119.219 114.392C117.311 113.079 112.167 109.418 108.024 106.496L103.671 103.425C100.542 101.335 96.7297 100.554 93.0397 101.246C89.3495 101.939 86.0718 104.051 83.9003 107.135C82.445 109.033 81.4627 111.255 81.036 113.615L81.0209 113.637C80.964 114.017 80.9305 114.4 80.9207 114.784C80.9171 114.98 80.926 115.194 80.9419 115.379C80.9552 115.746 80.9891 116.111 81.0435 116.474C81.1057 116.875 81.1918 117.272 81.3013 117.663C81.3259 117.749 81.3297 117.825 81.3562 117.908C81.175 117.943 80.99 118.024 80.8123 118.065C80.2237 118.196 79.6432 118.361 79.0738 118.56C78.7774 118.667 78.4824 118.796 78.1892 118.922C77.6456 119.155 77.1166 119.42 76.6051 119.717C76.3055 119.887 76.0112 120.061 75.7183 120.257C75.171 120.633 74.6468 121.043 74.1482 121.483C73.894 121.71 73.6481 121.89 73.4101 122.128C72.6324 122.876 71.9271 123.697 71.3031 124.579C70.9032 125.231 70.5526 125.912 70.254 126.616C70.1363 126.878 70.0395 127.151 69.938 127.424C69.7898 127.823 69.6618 128.257 69.5379 128.713C69.3907 129.257 69.2759 129.809 69.1945 130.367C69.1333 130.762 69.0875 131.164 69.0596 131.587C69.0317 132.01 69.0135 132.366 69.0305 132.748C69.0467 133.36 69.1045 133.97 69.2034 134.575C69.2369 134.793 69.2385 135.005 69.2839 135.224C69.4402 135.986 69.6592 136.734 69.9383 137.46C69.8634 137.492 69.7852 137.547 69.7084 137.582C69.3541 137.738 68.9838 137.952 68.6128 138.161C68.378 138.296 68.1435 138.419 67.9182 138.58C67.539 138.824 67.1498 139.106 66.785 139.405C66.5575 139.581 66.3287 139.737 66.1018 139.93C65.6955 140.276 65.2952 140.684 64.8846 141.101C64.6942 141.3 64.4981 141.466 64.3055 141.679C63.6917 142.361 63.121 143.081 62.5972 143.835L62.5877 143.849C62.2234 144.442 61.9042 145.062 61.6325 145.704C61.5157 145.971 61.4188 146.244 61.3174 146.517C61.2159 146.791 61.1182 147.14 61.0227 147.474C60.8469 148.098 60.7175 148.734 60.6352 149.377C60.5967 149.658 60.561 149.942 60.5415 150.236C60.5155 150.657 60.5097 151.071 60.5248 151.495C60.5399 151.92 60.5912 152.281 60.6407 152.685C60.6901 153.09 60.7095 153.404 60.7928 153.771C60.952 154.5 61.173 155.214 61.4532 155.905C61.3342 155.984 61.2357 156.125 61.1099 156.219C60.6305 156.604 60.1741 157.017 59.743 157.455C59.5369 157.659 59.3283 157.849 59.1274 158.069C58.4678 158.787 57.8561 159.549 57.2962 160.349L57.281 160.371C56.2612 161.96 55.5636 163.736 55.2284 165.598C54.8933 167.459 54.9272 169.369 55.3283 171.217C55.7294 173.066 56.4897 174.816 57.5653 176.366C58.6409 177.917 60.0107 179.238 61.5956 180.254L70.173 186.304C70.751 186.706 71.3593 187.062 71.9924 187.368C72.041 187.402 72.0924 187.438 72.1411 187.473L72.5332 187.749C85.5005 197.01 103.263 209.697 121.617 206.494C131.567 204.743 140.394 198.422 147.854 187.689C165.989 161.598 154.135 137.559 138.432 124.842C137.972 124.398 137.479 123.988 136.959 123.617C136.535 123.293 136.061 122.931 135.553 122.548C135.272 122.338 134.977 122.125 134.671 121.905ZM99.8746 108.874L104.22 111.94C106.308 113.412 108.655 115.068 110.71 116.517L111.445 117.036C106.885 119.176 102.993 122.535 100.194 126.747C98.1404 125.359 95.7443 123.722 93.3998 122.068C92.2848 121.295 91.2251 120.445 90.2285 119.522L89.772 119.054C89.0885 118.385 88.5029 117.621 88.0332 116.785C87.9753 116.671 87.9348 116.561 87.8869 116.45C87.8391 116.339 87.7761 116.169 87.7315 116.036C87.556 115.494 87.5079 114.918 87.5911 114.354C87.5976 114.299 87.607 114.245 87.6195 114.191C87.6495 114.02 87.6912 113.851 87.7445 113.686C87.8243 113.446 87.9202 113.211 88.0315 112.984L88.1035 112.84C88.4606 112.184 88.858 111.552 89.2939 110.947C90.4647 109.31 92.2109 108.185 94.1766 107.8C96.1426 107.414 98.1801 107.799 99.8746 108.874ZM82.3812 165.865L72.4707 158.874C71.0356 157.908 69.7631 156.717 68.7007 155.346L68.6602 155.318C68.3229 154.856 68.0301 154.362 67.786 153.844C67.6956 153.648 67.6162 153.447 67.5479 153.242C67.453 152.999 67.3725 152.751 67.3065 152.499C67.2478 152.259 67.1983 152.017 67.1632 151.789C67.1281 151.562 67.1322 151.463 67.123 151.302C67.0797 150.545 67.1732 149.785 67.3992 149.061C67.4435 148.922 67.4871 148.778 67.5423 148.647C67.5975 148.515 67.651 148.374 67.7097 148.249C67.82 148.006 67.9449 147.77 68.0838 147.543C69.3521 145.435 71.3627 143.886 73.7147 143.205C74.9585 144.557 76.3401 145.774 77.8367 146.835L88.7505 154.533C89.9561 155.37 91.2177 156.121 92.5266 156.782C93.8118 157.611 94.7541 158.882 95.1791 160.358C95.2973 162.202 94.6941 164.019 93.4982 165.42C92.0592 166.924 90.0997 167.809 88.0281 167.892C85.9568 167.975 83.9337 167.248 82.3812 165.865ZM92.8097 149.232C92.7232 149.171 92.6502 149.12 92.5582 149.055L81.6445 141.357C80.0817 140.296 78.6929 138.996 77.5284 137.504C77.3578 137.274 77.2218 137.052 77.0804 136.826C76.8612 136.497 76.662 136.154 76.4836 135.801C76.3533 135.53 76.2303 135.261 76.1346 134.998C76.0389 134.736 75.9751 134.48 75.9 134.24C75.8174 133.954 75.7499 133.664 75.6981 133.371C75.6797 133.252 75.6841 133.142 75.673 133.024C75.6146 132.402 75.6362 131.775 75.7373 131.158C75.7563 131.049 75.7636 130.929 75.788 130.824C75.8432 130.571 75.9135 130.336 75.9847 130.106C76.0445 129.933 76.1015 129.758 76.1657 129.597C76.2298 129.435 76.2901 129.278 76.3661 129.117C76.5122 128.814 76.6664 128.517 76.8195 128.267C77.2171 127.693 77.6708 127.161 78.1743 126.678C78.8582 126.032 79.6439 125.505 80.4992 125.119C80.688 125.033 80.8776 124.911 81.0642 124.839C82.5697 124.284 84.1935 124.137 85.7729 124.414C86.9768 125.543 88.2599 126.584 89.6127 127.528C92.0193 129.226 94.4749 130.905 96.5747 132.325C92.6505 139.142 91.4152 144.705 92.8097 149.232ZM65.3797 174.804C64.5 174.281 63.7329 173.586 63.1233 172.76C62.5138 171.935 62.0741 170.995 61.8301 169.996C61.5861 168.997 61.5427 167.958 61.7025 166.942C61.8622 165.926 62.2219 164.952 62.7604 164.078C63.3098 163.278 63.9447 162.541 64.6538 161.881C64.686 161.835 64.7219 161.783 64.7785 161.754C64.9383 161.611 65.1063 161.555 65.2694 161.431C66.3202 162.494 67.4628 163.462 68.6838 164.322L78.5943 171.313C80.7944 172.879 83.3341 173.892 86.002 174.268C85.7646 176.015 85.0789 177.67 84.012 179.068C82.8081 180.503 81.1426 181.468 79.3054 181.794C77.4686 182.12 75.5761 181.788 73.9572 180.854L65.3797 174.804ZM133.935 129.717L134.185 129.938C162.113 152.409 145.966 178.81 142.446 183.874C135.94 193.234 128.76 198.485 120.494 199.929C107.791 202.145 94.5445 194.811 83.5771 187.375C85.8812 186.418 87.8958 184.869 89.4203 182.883C91.4259 180.252 92.5644 177.055 92.6765 173.739C95.1744 172.951 97.3553 171.376 98.8988 169.246C100.012 167.843 100.832 166.226 101.308 164.495C101.784 162.763 101.907 160.953 101.67 159.172C101.581 158.75 101.467 158.333 101.328 157.924C103.965 158.85 106.804 159.026 109.533 158.434C106.891 167.186 106.576 176.483 108.621 185.396C108.716 185.822 108.894 186.225 109.144 186.582C109.394 186.939 109.712 187.243 110.078 187.476C110.445 187.709 110.853 187.867 111.281 187.942C111.708 188.016 112.145 188.005 112.569 187.909C112.992 187.812 113.392 187.633 113.746 187.381C114.1 187.13 114.402 186.81 114.633 186.44C114.865 186.071 115.022 185.66 115.096 185.229C115.169 184.799 115.158 184.358 115.063 183.932C113.656 177.755 113.528 171.353 114.684 165.124C115.842 158.895 118.26 152.973 121.788 147.726C122.098 147.28 122.375 146.882 122.615 146.536L131.252 152.628C131.969 153.134 132.857 153.332 133.719 153.179C134.581 153.026 135.348 152.534 135.85 151.812C136.352 151.089 136.549 150.195 136.397 149.327C136.245 148.458 135.756 147.686 135.039 147.18L125.926 140.752C124.698 139.893 123.213 139.484 121.721 139.596C120.964 139.502 120.2 139.682 119.562 140.104C118.422 140.581 117.439 141.374 116.727 142.391L111.638 149.713C110.496 151.037 108.919 151.903 107.196 152.154C105.472 152.405 103.717 152.024 102.249 151.08C99.6802 149.268 94.8993 145.896 105.105 131.213C106.354 129.026 108.029 127.115 110.03 125.596C112.031 124.077 114.317 122.982 116.749 122.376C118.106 122.185 119.485 122.223 120.831 122.487C121.097 122.533 121.367 122.556 121.632 122.621C122.042 122.716 122.441 122.86 122.845 122.986C123.603 123.227 124.347 123.512 125.071 123.842C125.221 123.911 125.381 123.975 125.518 124.039C126.005 124.273 126.476 124.528 126.943 124.789C127.073 124.881 127.235 124.95 127.369 125.024C127.82 125.285 128.258 125.558 128.685 125.831L129.121 126.114C129.511 126.389 129.906 126.643 130.279 126.907C130.479 127.048 130.674 127.185 130.869 127.322C131.158 127.526 131.447 127.731 131.709 127.94C132.15 128.25 132.562 128.586 132.943 128.878L133.056 128.959C133.37 129.187 133.664 129.44 133.935 129.717Z" stroke="#FFCB05" stroke-width="4" stroke-linejoin="round" mask="url(#path-5-inside-1_570_2)"/>
<mask id="path-6-inside-2_570_2" fill="white">
<path d="M223.647 137.764C218.539 133.117 216.715 125.268 221.531 119.362C223.942 116.404 227.619 115.195 231.103 115.302C233.632 115.38 236.238 116.143 238.556 117.6C238.394 116.516 238.346 115.413 238.421 114.328C238.648 111.077 240.044 107.504 243.436 105.315C245.52 103.969 248.221 102.909 251.206 103.006C254.305 103.107 257.342 104.45 259.902 107.271C260.752 108.209 262.16 110.128 263.724 112.319C264.913 113.983 266.289 115.944 267.74 118.01C268.267 118.762 268.805 119.527 269.347 120.298C271.232 122.978 273.158 125.7 274.946 128.156C274.929 126.925 274.889 125.793 274.848 124.914C274.672 121.069 274.786 117.243 276.705 113.782C278.501 110.543 281.644 108.582 286.144 108.162C290.654 107.741 294.139 109.155 296.502 111.55C298.74 113.818 299.718 116.701 299.901 118.96C300.993 132.453 301.92 142.593 307.281 154.145C313.83 168.257 310.907 182.956 304.865 192.199L304.787 192.32L304.698 192.434C300.742 197.562 295.743 201.968 289.404 204.558C283.033 207.161 275.576 207.82 266.923 205.868C261.462 204.636 255.221 201.573 250.171 198.788C247.602 197.372 245.257 195.979 243.377 194.849L242.356 194.235C241.04 193.443 240.116 192.887 239.564 192.589L218.751 183.335L218.65 183.282C212.681 180.17 210.3 172.815 213.29 166.787L213.299 166.769C214.589 164.205 216.519 162.388 218.758 161.277L218.366 161.027C215.12 158.957 213.282 155.982 212.794 152.755C212.319 149.622 213.152 146.516 214.716 144.03C216.281 141.544 218.718 139.456 221.743 138.548C222.487 138.324 223.252 138.177 224.028 138.111L223.647 137.764ZM240.204 153.089L240.199 153.083L240.172 153.054L240.19 153.074C240.201 153.085 240.204 153.089 240.204 153.089ZM227.132 167.766C223.873 166.57 221.036 167.714 219.841 170.078C218.657 172.476 219.58 175.417 221.937 176.706L242.751 185.96L242.855 186.015C243.607 186.408 244.819 187.139 246.218 187.982L247.135 188.534C248.993 189.65 251.247 190.988 253.695 192.338C258.681 195.087 264.149 197.701 268.527 198.688C275.901 200.352 281.816 199.715 286.644 197.742C291.461 195.774 295.46 192.366 298.821 188.042C303.598 180.644 305.959 168.709 300.643 157.254C294.663 144.368 293.689 133 292.601 119.556C292.534 118.734 292.133 117.574 291.302 116.731C290.596 116.016 289.322 115.255 286.822 115.489C284.313 115.723 283.535 116.583 283.103 117.363C282.473 118.498 282.196 120.231 282.072 122.875L282.092 123.189C282.112 123.522 282.138 123.996 282.165 124.575C282.218 125.73 282.272 127.314 282.277 129.017C282.282 130.709 282.237 132.578 282.082 134.284C281.938 135.865 281.666 137.755 281.007 139.215C280.492 140.357 279.434 141.157 278.2 141.337C276.965 141.518 275.724 141.055 274.906 140.108C271.974 136.716 267.409 130.293 263.365 124.544C262.813 123.758 262.269 122.983 261.737 122.226C260.293 120.17 258.943 118.246 257.773 116.608C256.116 114.287 254.986 112.775 254.489 112.228C253.177 110.781 251.968 110.393 250.968 110.36C249.853 110.324 248.6 110.728 247.395 111.505C246.469 112.103 245.841 113.209 245.727 114.841C245.611 116.519 246.099 118.236 246.822 119.311C248.39 121.643 249.99 124.002 251.472 126.186L251.475 126.19L251.482 126.201C252.554 127.779 253.563 129.266 254.452 130.585C255.001 131.399 255.503 132.147 255.939 132.804L261.025 140.237C262.171 141.911 261.749 144.202 260.082 145.352C258.416 146.504 256.136 146.08 254.99 144.405L252.21 140.343C252.149 140.295 252.1 140.254 252.065 140.223L251.996 140.164L236.003 124.888C234.521 123.436 232.618 122.71 230.879 122.657C229.11 122.602 227.847 123.226 227.197 124.024C225.431 126.19 225.623 129.635 228.563 132.31C232.824 136.185 237.245 140.244 240.495 143.261C242.033 144.689 243.319 145.893 244.205 146.736L248.527 150.555C250.045 151.897 250.193 154.222 248.857 155.747C247.522 157.273 245.207 157.422 243.689 156.08L241.256 153.93C241.172 153.887 241.105 153.848 241.061 153.822L241.006 153.789L227.838 146.408L227.749 146.358L227.663 146.303C226.133 145.329 224.854 145.293 223.842 145.597C222.736 145.929 221.661 146.765 220.907 147.962C220.153 149.16 219.86 150.498 220.034 151.649C220.194 152.703 220.774 153.848 222.295 154.817L222.303 154.822C226.739 157.662 230.957 160.144 233.993 161.882C236.993 163.598 240.005 165.279 243.159 166.696L243.427 166.816L243.44 166.821L243.443 166.823C245.293 167.644 246.13 169.817 245.312 171.675C244.494 173.534 242.332 174.374 240.482 173.552L240.475 173.55L240.459 173.542L240.399 173.515L240.17 173.413C239.973 173.325 239.689 173.197 239.338 173.037C238.636 172.717 237.664 172.27 236.579 171.758C235.794 171.387 234.933 170.974 234.064 170.545L227.132 167.766ZM255.884 178.26C258.069 174.595 261.663 168.719 265.858 163.199C267.289 161.316 268.746 159.536 270.199 157.925C270.151 158.175 270.104 158.427 270.059 158.683C268.728 166.13 268.226 176.269 271.814 186.557C272.482 188.474 274.572 189.484 276.481 188.812C278.389 188.14 279.394 186.041 278.726 184.123C275.697 175.441 276.07 166.687 277.267 159.983C277.863 156.649 278.654 153.876 279.29 151.949C279.608 150.987 279.886 150.24 280.08 149.745C280.177 149.497 280.253 149.312 280.302 149.196L280.354 149.072L280.362 149.053L280.365 149.048C280.991 147.634 280.669 145.977 279.559 144.903C278.447 143.828 276.784 143.568 275.4 144.253C269.795 147.028 264.387 153.01 260.037 158.734C255.583 164.595 251.817 170.762 249.6 174.48C248.561 176.224 249.126 178.483 250.861 179.527C252.596 180.571 254.845 180.004 255.884 178.26Z"/>
</mask>
<path d="M223.647 137.764C218.539 133.117 216.715 125.268 221.531 119.362C223.942 116.404 227.619 115.195 231.103 115.302C233.632 115.38 236.238 116.143 238.556 117.6C238.394 116.516 238.346 115.413 238.421 114.328C238.648 111.077 240.044 107.504 243.436 105.315C245.52 103.969 248.221 102.909 251.206 103.006C254.305 103.107 257.342 104.45 259.902 107.271C260.752 108.209 262.16 110.128 263.724 112.319C264.913 113.983 266.289 115.944 267.74 118.01C268.267 118.762 268.805 119.527 269.347 120.298C271.232 122.978 273.158 125.7 274.946 128.156C274.929 126.925 274.889 125.793 274.848 124.914C274.672 121.069 274.786 117.243 276.705 113.782C278.501 110.543 281.644 108.582 286.144 108.162C290.654 107.741 294.139 109.155 296.502 111.55C298.74 113.818 299.718 116.701 299.901 118.96C300.993 132.453 301.92 142.593 307.281 154.145C313.83 168.257 310.907 182.956 304.865 192.199L304.787 192.32L304.698 192.434C300.742 197.562 295.743 201.968 289.404 204.558C283.033 207.161 275.576 207.82 266.923 205.868C261.462 204.636 255.221 201.573 250.171 198.788C247.602 197.372 245.257 195.979 243.377 194.849L242.356 194.235C241.04 193.443 240.116 192.887 239.564 192.589L218.751 183.335L218.65 183.282C212.681 180.17 210.3 172.815 213.29 166.787L213.299 166.769C214.589 164.205 216.519 162.388 218.758 161.277L218.366 161.027C215.12 158.957 213.282 155.982 212.794 152.755C212.319 149.622 213.152 146.516 214.716 144.03C216.281 141.544 218.718 139.456 221.743 138.548C222.487 138.324 223.252 138.177 224.028 138.111L223.647 137.764ZM240.204 153.089L240.199 153.083L240.172 153.054L240.19 153.074C240.201 153.085 240.204 153.089 240.204 153.089ZM227.132 167.766C223.873 166.57 221.036 167.714 219.841 170.078C218.657 172.476 219.58 175.417 221.937 176.706L242.751 185.96L242.855 186.015C243.607 186.408 244.819 187.139 246.218 187.982L247.135 188.534C248.993 189.65 251.247 190.988 253.695 192.338C258.681 195.087 264.149 197.701 268.527 198.688C275.901 200.352 281.816 199.715 286.644 197.742C291.461 195.774 295.46 192.366 298.821 188.042C303.598 180.644 305.959 168.709 300.643 157.254C294.663 144.368 293.689 133 292.601 119.556C292.534 118.734 292.133 117.574 291.302 116.731C290.596 116.016 289.322 115.255 286.822 115.489C284.313 115.723 283.535 116.583 283.103 117.363C282.473 118.498 282.196 120.231 282.072 122.875L282.092 123.189C282.112 123.522 282.138 123.996 282.165 124.575C282.218 125.73 282.272 127.314 282.277 129.017C282.282 130.709 282.237 132.578 282.082 134.284C281.938 135.865 281.666 137.755 281.007 139.215C280.492 140.357 279.434 141.157 278.2 141.337C276.965 141.518 275.724 141.055 274.906 140.108C271.974 136.716 267.409 130.293 263.365 124.544C262.813 123.758 262.269 122.983 261.737 122.226C260.293 120.17 258.943 118.246 257.773 116.608C256.116 114.287 254.986 112.775 254.489 112.228C253.177 110.781 251.968 110.393 250.968 110.36C249.853 110.324 248.6 110.728 247.395 111.505C246.469 112.103 245.841 113.209 245.727 114.841C245.611 116.519 246.099 118.236 246.822 119.311C248.39 121.643 249.99 124.002 251.472 126.186L251.475 126.19L251.482 126.201C252.554 127.779 253.563 129.266 254.452 130.585C255.001 131.399 255.503 132.147 255.939 132.804L261.025 140.237C262.171 141.911 261.749 144.202 260.082 145.352C258.416 146.504 256.136 146.08 254.99 144.405L252.21 140.343C252.149 140.295 252.1 140.254 252.065 140.223L251.996 140.164L236.003 124.888C234.521 123.436 232.618 122.71 230.879 122.657C229.11 122.602 227.847 123.226 227.197 124.024C225.431 126.19 225.623 129.635 228.563 132.31C232.824 136.185 237.245 140.244 240.495 143.261C242.033 144.689 243.319 145.893 244.205 146.736L248.527 150.555C250.045 151.897 250.193 154.222 248.857 155.747C247.522 157.273 245.207 157.422 243.689 156.08L241.256 153.93C241.172 153.887 241.105 153.848 241.061 153.822L241.006 153.789L227.838 146.408L227.749 146.358L227.663 146.303C226.133 145.329 224.854 145.293 223.842 145.597C222.736 145.929 221.661 146.765 220.907 147.962C220.153 149.16 219.86 150.498 220.034 151.649C220.194 152.703 220.774 153.848 222.295 154.817L222.303 154.822C226.739 157.662 230.957 160.144 233.993 161.882C236.993 163.598 240.005 165.279 243.159 166.696L243.427 166.816L243.44 166.821L243.443 166.823C245.293 167.644 246.13 169.817 245.312 171.675C244.494 173.534 242.332 174.374 240.482 173.552L240.475 173.55L240.459 173.542L240.399 173.515L240.17 173.413C239.973 173.325 239.689 173.197 239.338 173.037C238.636 172.717 237.664 172.27 236.579 171.758C235.794 171.387 234.933 170.974 234.064 170.545L227.132 167.766ZM255.884 178.26C258.069 174.595 261.663 168.719 265.858 163.199C267.289 161.316 268.746 159.536 270.199 157.925C270.151 158.175 270.104 158.427 270.059 158.683C268.728 166.13 268.226 176.269 271.814 186.557C272.482 188.474 274.572 189.484 276.481 188.812C278.389 188.14 279.394 186.041 278.726 184.123C275.697 175.441 276.07 166.687 277.267 159.983C277.863 156.649 278.654 153.876 279.29 151.949C279.608 150.987 279.886 150.24 280.08 149.745C280.177 149.497 280.253 149.312 280.302 149.196L280.354 149.072L280.362 149.053L280.365 149.048C280.991 147.634 280.669 145.977 279.559 144.903C278.447 143.828 276.784 143.568 275.4 144.253C269.795 147.028 264.387 153.01 260.037 158.734C255.583 164.595 251.817 170.762 249.6 174.48C248.561 176.224 249.126 178.483 250.861 179.527C252.596 180.571 254.845 180.004 255.884 178.26Z" stroke="#F70A8D" stroke-width="4" mask="url(#path-6-inside-2_570_2)"/>
<mask id="path-7-inside-3_570_2" fill="white">
<path d="M456.228 191.667C465.802 178.128 465.835 166.422 464.173 158.982C463.127 154.3 461.124 149.88 458.287 145.993C457.377 144.746 456.388 143.562 455.326 142.449C454.081 140.872 452.486 139.46 450.608 138.309C449.667 137.621 448.69 136.977 447.681 136.382C435.95 129.659 431.092 126.872 428.446 123.184L416.391 106.912C413.956 103.446 410.28 101.03 406.11 100.154C404.488 99.8931 402.829 99.9643 401.235 100.363C399.642 100.761 398.148 101.478 396.845 102.47C395.394 103.441 394.153 104.69 393.197 106.143C392.241 107.596 391.588 109.224 391.278 110.931C390.967 112.637 391.005 114.388 391.388 116.08C391.772 117.773 392.494 119.372 393.511 120.783L398.064 126.91C393.923 124.405 389.738 121.923 386.764 120.272C385.275 119.415 383.629 118.86 381.922 118.637C380.214 118.415 378.479 118.53 376.816 118.976C375.154 119.422 373.597 120.191 372.237 121.236C370.876 122.282 369.739 123.585 368.89 125.069C367.977 126.535 367.378 128.171 367.13 129.876C366.882 131.581 366.99 133.318 367.448 134.979C368.201 137.996 370.076 140.62 372.698 142.326L385.059 149.874C384.47 150.45 383.936 151.078 383.462 151.75C382.62 152.816 381.96 154.006 381.503 155.272C381.04 156.437 380.729 157.68 380.638 158.988C380.543 160.354 380.693 161.713 381.094 163.045C379.932 163.867 378.922 164.882 378.107 166.045C377.005 167.505 376.222 169.176 375.809 170.953C375.719 171.342 375.646 171.735 375.592 172.129C375.405 173.356 375.398 174.617 375.599 175.889C375.734 176.742 375.959 177.572 376.271 178.375C376.657 179.426 377.179 180.426 377.825 181.35C378.869 182.845 380.217 184.108 381.782 185.06L388.598 189.785C389.033 190.087 389.476 190.359 389.925 190.602C395.987 195.133 402.469 199.084 409.284 202.403C427.297 211.252 445.287 207.139 456.228 191.667ZM382.894 173.26C383.032 172.301 383.438 171.277 384.168 170.245C384.587 169.652 385.062 169.209 385.573 168.889C385.716 168.801 385.864 168.721 386.016 168.648C387.039 169.359 388.725 170.605 390.634 172.015L391.18 172.419C393.289 173.976 395.582 175.665 397.315 176.866C398.767 177.873 400.375 178.625 401.967 179.151C401.838 179.916 401.482 180.79 400.789 181.77C399.632 183.407 398.225 184.34 396.928 184.667C395.977 184.907 394.924 184.868 393.801 184.348C393.779 184.338 393.758 184.327 393.736 184.317C393.426 184.165 393.127 183.99 392.844 183.792L386.041 179.075C386.031 179.07 386.021 179.065 386.01 179.059C384.342 177.897 383.49 176.683 383.107 175.581C383.059 175.423 383.018 175.262 382.983 175.1C382.855 174.494 382.825 173.873 382.894 173.26ZM402.383 190.212C404.123 189.14 405.634 187.676 406.842 185.967C408.331 183.861 409.251 181.529 409.398 179.14C411.866 178.226 414.039 176.587 415.631 174.335C417.317 171.951 418.106 169.268 418.065 166.599C419.677 167.518 422.016 168.492 424.67 168.667C425.267 168.706 425.873 168.704 426.482 168.654C426.404 169.968 426.393 171.302 426.464 172.693C426.664 176.592 427.495 180.766 429.075 186.037C429.655 187.974 431.712 189.078 433.668 188.503C435.624 187.928 436.739 185.892 436.158 183.955C434.675 179.008 434.003 175.441 433.844 172.323C433.71 169.699 433.932 167.274 434.443 164.469C434.729 164.134 435.007 163.776 435.277 163.395C436.574 161.561 438.147 161.035 440.244 160.946C441.322 160.9 442.408 160.979 443.666 161.07L443.923 161.089C445.13 161.175 446.727 161.29 448.188 161.078C451.364 160.614 454.042 159.319 455.887 157.213L455.953 157.137C456.361 158.254 456.698 159.399 456.961 160.564C457.806 165.269 457.638 170.098 456.469 174.734C455.3 179.371 453.155 183.711 450.175 187.47C441.351 199.949 427.299 203.085 412.571 195.848C409.081 194.138 405.681 192.257 402.383 190.212ZM411.546 155.035C411.53 155.024 411.514 155.012 411.498 155.001L403.78 149.65C400.422 147.322 396.843 146.19 393.398 146.362L376.439 136.015C375.517 135.259 374.868 134.226 374.592 133.073C374.392 132.351 374.347 131.595 374.46 130.855C374.572 130.115 374.84 129.406 375.245 128.774C375.609 128.109 376.105 127.523 376.704 127.053C377.302 126.583 377.991 126.238 378.728 126.04C379.465 125.841 380.236 125.792 380.992 125.897C381.749 126.002 382.476 126.257 383.13 126.649C389.327 130.092 401.081 137.338 406.277 140.54L406.447 140.645L406.887 140.909C407.685 141.446 408.635 141.715 409.599 141.679C410.564 141.643 411.491 141.303 412.247 140.709C413.01 140.077 413.539 139.212 413.75 138.249C413.961 137.287 413.842 136.282 413.412 135.394C413.3 135.134 413.16 134.887 412.994 134.658L399.526 116.531C399.061 115.893 398.736 115.167 398.57 114.397C398.405 113.628 398.403 112.833 398.566 112.063C398.728 111.293 399.051 110.565 399.514 109.925C399.977 109.286 400.569 108.749 401.253 108.349C401.757 107.935 402.344 107.633 402.975 107.462C403.607 107.29 404.268 107.254 404.914 107.355C407.135 107.94 409.075 109.285 410.389 111.151L422.472 127.46C424.485 130.27 427.061 132.46 431.275 135.182C430.418 135.39 429.572 135.645 428.738 135.947C422.665 138.143 417.566 142.682 413.722 148.637C412.314 150.819 411.657 152.99 411.546 155.035ZM405.684 172.582C404.333 172.3 402.797 171.735 401.553 170.873C399.929 169.747 397.729 168.128 395.598 166.553L395.017 166.124C393.134 164.733 391.338 163.406 390.221 162.632C389.347 162.025 388.767 161.433 388.412 160.989L388.368 160.933C388.19 160.379 388.109 159.795 388.133 159.205C388.145 158.893 388.187 158.586 388.257 158.287C388.476 157.625 388.843 156.908 389.386 156.139C390.394 154.714 391.77 153.898 393.335 153.706C394.923 153.512 397.062 153.924 399.542 155.644L407.26 160.995C411.075 163.64 411.43 167.52 409.578 170.139C408.619 171.495 407.241 172.332 405.684 172.582ZM446.515 144.405C447.643 145.257 448.704 146.191 449.69 147.2C450.495 148.311 450.885 149.425 450.943 150.324C451.002 151.225 450.751 151.91 450.305 152.419C449.851 152.938 448.925 153.574 447.112 153.839C446.589 153.915 445.816 153.889 444.443 153.79L444.134 153.768C442.954 153.681 441.455 153.571 439.929 153.636C436.408 153.785 432.272 154.889 429.224 159.198C427.855 161.135 426.439 161.451 425.161 161.367C423.601 161.264 422.033 160.492 421.185 159.903C420.565 159.473 419.613 158.454 419.167 157.141C418.781 156.005 418.707 154.5 419.948 152.578C423.138 147.636 427.063 144.342 431.272 142.82C435.415 141.322 440.169 141.414 445.393 143.822C445.791 144.006 446.165 144.201 446.515 144.405ZM410.705 134.661L410.941 134.824C410.867 134.764 410.788 134.709 410.705 134.661Z"/>
</mask>
<path d="M456.228 191.667C465.802 178.128 465.835 166.422 464.173 158.982C463.127 154.3 461.124 149.88 458.287 145.993C457.377 144.746 456.388 143.562 455.326 142.449C454.081 140.872 452.486 139.46 450.608 138.309C449.667 137.621 448.69 136.977 447.681 136.382C435.95 129.659 431.092 126.872 428.446 123.184L416.391 106.912C413.956 103.446 410.28 101.03 406.11 100.154C404.488 99.8931 402.829 99.9643 401.235 100.363C399.642 100.761 398.148 101.478 396.845 102.47C395.394 103.441 394.153 104.69 393.197 106.143C392.241 107.596 391.588 109.224 391.278 110.931C390.967 112.637 391.005 114.388 391.388 116.08C391.772 117.773 392.494 119.372 393.511 120.783L398.064 126.91C393.923 124.405 389.738 121.923 386.764 120.272C385.275 119.415 383.629 118.86 381.922 118.637C380.214 118.415 378.479 118.53 376.816 118.976C375.154 119.422 373.597 120.191 372.237 121.236C370.876 122.282 369.739 123.585 368.89 125.069C367.977 126.535 367.378 128.171 367.13 129.876C366.882 131.581 366.99 133.318 367.448 134.979C368.201 137.996 370.076 140.62 372.698 142.326L385.059 149.874C384.47 150.45 383.936 151.078 383.462 151.75C382.62 152.816 381.96 154.006 381.503 155.272C381.04 156.437 380.729 157.68 380.638 158.988C380.543 160.354 380.693 161.713 381.094 163.045C379.932 163.867 378.922 164.882 378.107 166.045C377.005 167.505 376.222 169.176 375.809 170.953C375.719 171.342 375.646 171.735 375.592 172.129C375.405 173.356 375.398 174.617 375.599 175.889C375.734 176.742 375.959 177.572 376.271 178.375C376.657 179.426 377.179 180.426 377.825 181.35C378.869 182.845 380.217 184.108 381.782 185.06L388.598 189.785C389.033 190.087 389.476 190.359 389.925 190.602C395.987 195.133 402.469 199.084 409.284 202.403C427.297 211.252 445.287 207.139 456.228 191.667ZM382.894 173.26C383.032 172.301 383.438 171.277 384.168 170.245C384.587 169.652 385.062 169.209 385.573 168.889C385.716 168.801 385.864 168.721 386.016 168.648C387.039 169.359 388.725 170.605 390.634 172.015L391.18 172.419C393.289 173.976 395.582 175.665 397.315 176.866C398.767 177.873 400.375 178.625 401.967 179.151C401.838 179.916 401.482 180.79 400.789 181.77C399.632 183.407 398.225 184.34 396.928 184.667C395.977 184.907 394.924 184.868 393.801 184.348C393.779 184.338 393.758 184.327 393.736 184.317C393.426 184.165 393.127 183.99 392.844 183.792L386.041 179.075C386.031 179.07 386.021 179.065 386.01 179.059C384.342 177.897 383.49 176.683 383.107 175.581C383.059 175.423 383.018 175.262 382.983 175.1C382.855 174.494 382.825 173.873 382.894 173.26ZM402.383 190.212C404.123 189.14 405.634 187.676 406.842 185.967C408.331 183.861 409.251 181.529 409.398 179.14C411.866 178.226 414.039 176.587 415.631 174.335C417.317 171.951 418.106 169.268 418.065 166.599C419.677 167.518 422.016 168.492 424.67 168.667C425.267 168.706 425.873 168.704 426.482 168.654C426.404 169.968 426.393 171.302 426.464 172.693C426.664 176.592 427.495 180.766 429.075 186.037C429.655 187.974 431.712 189.078 433.668 188.503C435.624 187.928 436.739 185.892 436.158 183.955C434.675 179.008 434.003 175.441 433.844 172.323C433.71 169.699 433.932 167.274 434.443 164.469C434.729 164.134 435.007 163.776 435.277 163.395C436.574 161.561 438.147 161.035 440.244 160.946C441.322 160.9 442.408 160.979 443.666 161.07L443.923 161.089C445.13 161.175 446.727 161.29 448.188 161.078C451.364 160.614 454.042 159.319 455.887 157.213L455.953 157.137C456.361 158.254 456.698 159.399 456.961 160.564C457.806 165.269 457.638 170.098 456.469 174.734C455.3 179.371 453.155 183.711 450.175 187.47C441.351 199.949 427.299 203.085 412.571 195.848C409.081 194.138 405.681 192.257 402.383 190.212ZM411.546 155.035C411.53 155.024 411.514 155.012 411.498 155.001L403.78 149.65C400.422 147.322 396.843 146.19 393.398 146.362L376.439 136.015C375.517 135.259 374.868 134.226 374.592 133.073C374.392 132.351 374.347 131.595 374.46 130.855C374.572 130.115 374.84 129.406 375.245 128.774C375.609 128.109 376.105 127.523 376.704 127.053C377.302 126.583 377.991 126.238 378.728 126.04C379.465 125.841 380.236 125.792 380.992 125.897C381.749 126.002 382.476 126.257 383.13 126.649C389.327 130.092 401.081 137.338 406.277 140.54L406.447 140.645L406.887 140.909C407.685 141.446 408.635 141.715 409.599 141.679C410.564 141.643 411.491 141.303 412.247 140.709C413.01 140.077 413.539 139.212 413.75 138.249C413.961 137.287 413.842 136.282 413.412 135.394C413.3 135.134 413.16 134.887 412.994 134.658L399.526 116.531C399.061 115.893 398.736 115.167 398.57 114.397C398.405 113.628 398.403 112.833 398.566 112.063C398.728 111.293 399.051 110.565 399.514 109.925C399.977 109.286 400.569 108.749 401.253 108.349C401.757 107.935 402.344 107.633 402.975 107.462C403.607 107.29 404.268 107.254 404.914 107.355C407.135 107.94 409.075 109.285 410.389 111.151L422.472 127.46C424.485 130.27 427.061 132.46 431.275 135.182C430.418 135.39 429.572 135.645 428.738 135.947C422.665 138.143 417.566 142.682 413.722 148.637C412.314 150.819 411.657 152.99 411.546 155.035ZM405.684 172.582C404.333 172.3 402.797 171.735 401.553 170.873C399.929 169.747 397.729 168.128 395.598 166.553L395.017 166.124C393.134 164.733 391.338 163.406 390.221 162.632C389.347 162.025 388.767 161.433 388.412 160.989L388.368 160.933C388.19 160.379 388.109 159.795 388.133 159.205C388.145 158.893 388.187 158.586 388.257 158.287C388.476 157.625 388.843 156.908 389.386 156.139C390.394 154.714 391.77 153.898 393.335 153.706C394.923 153.512 397.062 153.924 399.542 155.644L407.26 160.995C411.075 163.64 411.43 167.52 409.578 170.139C408.619 171.495 407.241 172.332 405.684 172.582ZM446.515 144.405C447.643 145.257 448.704 146.191 449.69 147.2C450.495 148.311 450.885 149.425 450.943 150.324C451.002 151.225 450.751 151.91 450.305 152.419C449.851 152.938 448.925 153.574 447.112 153.839C446.589 153.915 445.816 153.889 444.443 153.79L444.134 153.768C442.954 153.681 441.455 153.571 439.929 153.636C436.408 153.785 432.272 154.889 429.224 159.198C427.855 161.135 426.439 161.451 425.161 161.367C423.601 161.264 422.033 160.492 421.185 159.903C420.565 159.473 419.613 158.454 419.167 157.141C418.781 156.005 418.707 154.5 419.948 152.578C423.138 147.636 427.063 144.342 431.272 142.82C435.415 141.322 440.169 141.414 445.393 143.822C445.791 144.006 446.165 144.201 446.515 144.405ZM410.705 134.661L410.941 134.824C410.867 134.764 410.788 134.709 410.705 134.661Z" stroke="#00A6ED" stroke-width="4" mask="url(#path-7-inside-3_570_2)"/>
<defs>
<filter id="filter0_di_570_2" x="5" y="51" width="202" height="206" filterUnits="userSpaceOnUse" color-interpolation-filters="sRGB">
<feFlood flood-opacity="0" result="BackgroundImageFix"/>
<feColorMatrix in="SourceAlpha" type="matrix" values="0 0 0 0 0 0 0 0 0 0 0 0 0 0 0 0 0 0 127 0" result="hardAlpha"/>
<feOffset/>
<feGaussianBlur stdDeviation="25"/>
<feComposite in2="hardAlpha" operator="out"/>
<feColorMatrix type="matrix" values="0 0 0 0 1 0 0 0 0 0.796078 0 0 0 0 0.0196078 0 0 0 1 0"/>
<feBlend mode="normal" in2="BackgroundImageFix" result="effect1_dropShadow_570_2"/>
<feBlend mode="normal" in="SourceGraphic" in2="effect1_dropShadow_570_2" result="shape"/>
<feColorMatrix in="SourceAlpha" type="matrix" values="0 0 0 0 0 0 0 0 0 0 0 0 0 0 0 0 0 0 127 0" result="hardAlpha"/>
<feOffset/>
<feGaussianBlur stdDeviation="10"/>
<feComposite in2="hardAlpha" operator="arithmetic" k2="-1" k3="1"/>
<feColorMatrix type="matrix" values="0 0 0 0 1 0 0 0 0 0.796078 0 0 0 0 0.0196078 0 0 0 1 0"/>
<feBlend mode="normal" in2="shape" result="effect2_innerShadow_570_2"/>
</filter>
<filter id="filter1_di_570_2" x="162" y="53" width="199" height="204" filterUnits="userSpaceOnUse" color-interpolation-filters="sRGB">
<feFlood flood-opacity="0" result="BackgroundImageFix"/>
<feColorMatrix in="SourceAlpha" type="matrix" values="0 0 0 0 0 0 0 0 0 0 0 0 0 0 0 0 0 0 127 0" result="hardAlpha"/>
<feOffset/>
<feGaussianBlur stdDeviation="25"/>
<feComposite in2="hardAlpha" operator="out"/>
<feColorMatrix type="matrix" values="0 0 0 0 0.968627 0 0 0 0 0.0392157 0 0 0 0 0.552941 0 0 0 1 0"/>
<feBlend mode="normal" in2="BackgroundImageFix" result="effect1_dropShadow_570_2"/>
<feBlend mode="normal" in="SourceGraphic" in2="effect1_dropShadow_570_2" result="shape"/>
<feColorMatrix in="SourceAlpha" type="matrix" values="0 0 0 0 0 0 0 0 0 0 0 0 0 0 0 0 0 0 127 0" result="hardAlpha"/>
<feOffset/>
<feGaussianBlur stdDeviation="10"/>
<feComposite in2="hardAlpha" operator="arithmetic" k2="-1" k3="1"/>
<feColorMatrix type="matrix" values="0 0 0 0 0.968627 0 0 0 0 0.0392157 0 0 0 0 0.552941 0 0 0 1 0"/>
<feBlend mode="normal" in2="shape" result="effect2_innerShadow_570_2"/>
</filter>
<filter id="filter2_di_570_2" x="317" y="50" width="198" height="207" filterUnits="userSpaceOnUse" color-interpolation-filters="sRGB">
<feFlood flood-opacity="0" result="BackgroundImageFix"/>
<feColorMatrix in="SourceAlpha" type="matrix" values="0 0 0 0 0 0 0 0 0 0 0 0 0 0 0 0 0 0 127 0" result="hardAlpha"/>
<feOffset/>
<feGaussianBlur stdDeviation="25"/>
<feComposite in2="hardAlpha" operator="out"/>
<feColorMatrix type="matrix" values="0 0 0 0 0 0 0 0 0 0.65098 0 0 0 0 0.929412 0 0 0 1 0"/>
<feBlend mode="normal" in2="BackgroundImageFix" result="effect1_dropShadow_570_2"/>
<feBlend mode="normal" in="SourceGraphic" in2="effect1_dropShadow_570_2" result="shape"/>
<feColorMatrix in="SourceAlpha" type="matrix" values="0 0 0 0 0 0 0 0 0 0 0 0 0 0 0 0 0 0 127 0" result="hardAlpha"/>
<feOffset/>
<feGaussianBlur stdDeviation="10"/>
<feComposite in2="hardAlpha" operator="arithmetic" k2="-1" k3="1"/>
<feColorMatrix type="matrix" values="0 0 0 0 0 0 0 0 0 0.65098 0 0 0 0 0.929412 0 0 0 1 0"/>
<feBlend mode="normal" in2="shape" result="effect2_innerShadow_570_2"/>
</filter>
</defs>
</svg>
