<svg width="32" height="32" viewBox="0 0 32 32" fill="none" xmlns="http://www.w3.org/2000/svg">
<path fill-rule="evenodd" clip-rule="evenodd" d="M7.22612 1.94971C7.75079 1.94971 8.17612 2.37504 8.17612 2.89971V4.75946C8.57322 4.83735 9.00588 4.95282 9.4514 5.11846C11.6617 5.75908 13.4361 5.49346 15.4284 4.93096C15.918 4.79274 16.3923 4.63768 16.8639 4.48352L16.8651 4.48315L16.8651 4.48312C19.3981 3.65511 21.8513 2.85318 26.1479 4.82355C26.4086 4.94311 26.573 5.20668 26.573 5.49349V17.831C26.573 18.0955 26.2892 18.2683 26.048 18.1598C24.9071 17.6467 22.889 16.9622 21.0319 16.9622C19.6739 16.9622 18.2088 17.4306 16.7316 17.903L16.7306 17.9034L16.7299 17.9036C15.2274 18.384 13.7123 18.8685 12.2843 18.8685C10.8919 18.8685 10.0849 18.6306 9.29584 18.398L9.2956 18.398C8.93656 18.2922 8.58122 18.1875 8.17612 18.1067V28.7122C8.17612 29.2369 7.75079 29.6623 7.22612 29.6623C6.70145 29.6623 6.27612 29.2369 6.27612 28.7122V17.4479V5.25037V2.89971C6.27612 2.37504 6.70145 1.94971 7.22612 1.94971ZM8.18 16.6255V6.35312C8.46108 6.40062 8.65583 6.46566 8.91661 6.55276C8.99628 6.57937 9.08211 6.60804 9.17845 6.63889C11.2209 7.14884 13.5329 6.801 15.374 6.35324C15.8264 6.24322 16.2647 6.11986 16.7005 5.99714C17.0836 5.88927 17.4467 5.76995 17.8035 5.6527C19.6271 5.05349 21.2866 4.50819 24.6072 5.81997C24.8481 5.91514 25 6.12495 25 6.35326V15.879C25 16.0896 24.7377 16.2271 24.5149 16.1407C23.4606 15.7323 22.2161 15.5 20.5 15.5C19 15.5 16 16.6255 16 16.6255C15.5562 16.7477 15.1733 16.8812 14.8148 17.0062C14.0515 17.2722 13.3981 17.5 12.5001 17.5C11.4161 17.5 10.2167 17.1754 9.42958 16.9624C9.28228 16.9225 9.14943 16.8865 9.03448 16.8574C8.90577 16.8247 8.80467 16.7921 8.70726 16.7608C8.55358 16.7113 8.40912 16.6648 8.18 16.6255Z" fill="black"/>
</svg>
