<?xml version="1.0" encoding="iso-8859-1"?>
<!-- Uploaded to: SVG Repo, www.svgrepo.com, Generator: SVG Repo Mixer Tools -->
<svg version="1.1" id="Layer_1" xmlns="http://www.w3.org/2000/svg" xmlns:xlink="http://www.w3.org/1999/xlink" 
	 viewBox="0 0 379.789 379.789" xml:space="preserve">
<g>
	<rect x="150.631" y="126.688" style="fill:#006098;" width="78.527" height="253.101"/>
	<g>
		<path style="fill:#FFB819;" d="M223.556,71.755C223.556,53.163,189.895,0,189.895,0s-33.661,53.163-33.661,71.755
			c0,18.591,15.07,33.663,33.661,33.663C208.487,105.418,223.556,90.346,223.556,71.755z"/>
		<path style="fill:#FFD26C;" d="M210.778,71.096c0-11.534-20.884-44.517-20.884-44.517s-20.884,32.982-20.884,44.517
			c0,11.534,9.35,20.886,20.884,20.886C201.43,91.981,210.778,82.63,210.778,71.096z"/>
	</g>
	<path style="fill:#00BCB4;" d="M150.631,126.688v32.231l32.23-32.231H150.631z M203.011,379.789l26.147-26.148v-46.463
		l-72.61,72.611H203.011z M227.482,126.688l-76.852,76.852v46.463l78.527-78.528v-44.786H227.482z M150.631,341.086l78.527-78.528
		v-46.463l-78.527,78.528V341.086z"/>
	<path style="fill:#4985B1;" d="M229.158,117.112h-78.527c-5.289,0-9.575,4.287-9.575,9.576c0,5.288,4.286,9.575,9.575,9.575h7.139
		c3.629,0,6.57,2.942,6.57,6.571v20.893c0,3.628,2.942,6.57,6.571,6.57c3.629,0,6.571-2.942,6.571-6.57v-20.893
		c0-3.629,2.941-6.571,6.57-6.571h12.23c4.234,0,7.667,3.433,7.667,7.666v56.415c0,4.233,3.432,7.666,7.666,7.666
		c4.233,0,7.666-3.433,7.666-7.666V143.93c0-4.233,3.432-7.666,7.666-7.666h2.211c5.289,0,9.575-4.287,9.575-9.575
		C238.733,121.399,234.447,117.112,229.158,117.112z"/>
</g>
</svg>