<svg width="525" height="295" viewBox="0 0 525 295" fill="none" xmlns="http://www.w3.org/2000/svg">
<rect width="525" height="295" rx="15" fill="#FFCB05"/>
<path d="M3 27C3 15.9543 11.9543 7 23 7H47C58.0457 7 67 15.9543 67 27V51C67 62.0457 58.0457 71 47 71H23C11.9543 71 3 62.0457 3 51V27Z" fill="white"/>
<path d="M12.0324 40.6076C7.08698 35.6622 7.08698 27.6545 12.0324 22.7091C16.9778 17.7636 24.9855 17.7636 29.9309 22.7091L32.2515 25.0296L14.3529 42.9281L12.0324 40.6076Z" fill="#F9C23C"/>
<path d="M57.9676 40.6076C62.913 35.6622 62.913 27.6545 57.9676 22.7091C53.0412 17.7636 45.0144 17.7636 40.069 22.7091L37.7485 25.0296L55.647 42.9281L57.9676 40.6076Z" fill="#F9C23C"/>
<path d="M26.7737 37.4504C21.8283 42.3958 16.2362 44.8115 14.277 42.8714C12.3369 40.9122 14.7525 35.3201 19.6979 30.3747C24.6434 25.4293 30.2545 23.0327 32.1946 24.9728C34.1347 26.9129 31.7191 32.505 26.7737 37.4504Z" fill="#6D4534"/>
<path d="M43.245 37.4497C48.1904 42.3951 53.7635 44.8298 55.7226 42.8707C57.6818 40.9115 55.2471 35.3384 50.3017 30.393C45.3563 25.4476 39.7642 23.032 37.8241 24.9721C35.884 26.9122 38.2996 32.5043 43.245 37.4497Z" fill="#6D4534"/>
<path d="M27.7794 42.7212C27.7794 43.4672 27.1747 44.0717 26.4289 44.0717C25.6829 44.0717 25.0784 43.4672 25.0784 42.7212C25.0784 41.9754 25.6829 41.3707 26.4289 41.3707C27.1747 41.3707 27.7794 41.9754 27.7794 42.7212Z" fill="#F9C23C"/>
<path d="M20.706 55.4634C21.4518 55.4634 22.0565 54.8587 22.0565 54.1129C22.0565 53.3671 21.4518 52.7625 20.706 52.7625C19.9601 52.7625 19.3555 53.3671 19.3555 54.1129C19.3555 54.8587 19.9601 55.4634 20.706 55.4634Z" fill="#F9C23C"/>
<path d="M48.2669 57.0404C49.3175 57.0404 50.169 56.1888 50.169 55.1383C50.169 54.0878 49.3175 53.2362 48.2669 53.2362C47.2164 53.2362 46.3649 54.0878 46.3649 55.1383C46.3649 56.1888 47.2164 57.0404 48.2669 57.0404Z" fill="#F9C23C"/>
<path d="M48.058 29.9179C48.3624 30.032 48.5906 30.2413 48.7428 30.4885C48.952 30.8309 49.0091 31.2874 48.8379 31.7059C48.02 33.8172 45.6234 36.6513 45.281 37.0317C44.5468 37.9291 43.7006 38.7006 42.7425 39.346C42.4265 40.4927 41.9369 41.5662 41.2866 42.5667C40.8682 43.1944 40.0122 43.3846 39.3845 42.9662C38.7569 42.5477 38.5667 41.6918 38.9851 41.0641C39.0912 40.9015 39.1913 40.7356 39.2856 40.5669C38.5212 40.533 37.798 40.2677 37.1211 39.7707C37.0811 39.7408 37.0433 39.7091 37.0075 39.676C36.2701 39.1072 35.7847 38.2941 35.6375 37.3741C35.4853 36.423 35.7135 35.472 36.2842 34.6921C37.4634 33.0754 39.7269 32.714 41.3437 33.8933L41.3817 33.9313C41.8572 34.2737 42.2377 34.6541 42.504 35.1106C42.6198 35.2989 42.7177 35.4969 42.798 35.7044C42.9323 35.5614 43.0626 35.4142 43.1887 35.2628C43.1887 35.2532 43.1935 35.2485 43.1982 35.2437C43.203 35.239 43.2077 35.2342 43.2077 35.2247C43.8735 34.4639 45.7375 32.1433 46.2891 30.6978C46.5554 29.994 47.3543 29.6516 48.058 29.9179ZM40.3164 37.5991C40.4267 36.696 40.1187 36.3768 39.784 36.1377L39.7459 36.0997C39.3465 35.8144 38.7949 35.8904 38.5096 36.2899C38.3764 36.4801 38.3194 36.7083 38.3574 36.9366C38.3955 37.1648 38.5096 37.3741 38.6998 37.5072C38.7373 37.5354 38.773 37.565 38.8069 37.596C39.131 37.8247 39.5356 37.9647 40.3164 37.5991Z" fill="#00A6ED"/>
<path d="M34.9617 58.9444C36.0174 58.9444 36.8733 58.0929 36.8733 57.0423C36.8733 55.9918 36.0174 55.1403 34.9617 55.1403C33.906 55.1403 33.0501 55.9918 33.0501 57.0423C33.0501 58.0929 33.906 58.9444 34.9617 58.9444Z" fill="#00A6ED"/>
<path d="M12.9264 52.2481C16.0077 49.6042 17.8718 45.9142 18.1761 41.8628C18.3853 39.0857 17.8337 36.3848 16.6354 33.9691C17.2821 33.0561 18.062 32.1622 18.8989 31.2682C20.839 34.5017 21.752 38.2678 21.4667 42.11C21.0863 47.0364 18.8228 51.5253 15.0757 54.7398C14.7714 55.0061 14.391 55.1393 14.0106 55.1393C13.535 55.1393 13.0785 54.9491 12.7552 54.5687C12.1655 53.8839 12.2416 52.8378 12.9264 52.2481Z" fill="#00A6ED"/>
<path d="M33.4687 44.0322C33.3546 45.0403 33.8871 46.0104 34.8001 46.4479C35.618 46.8473 35.9604 47.8174 35.561 48.6163C35.2947 49.2249 34.705 49.5673 34.0773 49.5673C33.8491 49.5673 33.6018 49.5293 33.3736 49.4151C31.1672 48.369 29.8737 46.0485 30.1781 43.6328L30.6346 39.9618C30.7297 39.2771 30.5205 38.6113 30.0449 38.0978C29.5694 37.5842 28.9608 37.3369 28.238 37.3369L27.2108 37.356C25.1376 37.432 23.1594 36.2908 22.1323 34.4458L19.8307 30.2612C20.6677 29.4243 21.5236 28.7015 22.3605 28.0358L25.0044 32.848C25.4419 33.6279 26.2408 34.1224 27.1348 34.0654L28.1809 34.0463C29.7786 34.0083 31.3954 34.674 32.4986 35.8914C33.6018 37.1087 34.1154 38.7254 33.9252 40.3612L33.4687 44.0322Z" fill="#F70A8D"/>
<path d="M54.3347 54.1128C53.8972 54.1128 53.4597 53.9225 53.1364 53.5802C48.0578 48.1022 48.3241 39.5618 53.669 34.3882C54.3917 35.4343 54.9814 36.4424 55.4189 37.3935C51.919 41.3498 51.881 47.3984 55.552 51.3547C56.1607 52.0205 56.1226 53.0476 55.4569 53.6753C55.1336 53.9606 54.7341 54.1128 54.3347 54.1128Z" fill="#F70A8D"/>
<path d="M23.9583 58.7146C24.2056 58.9048 24.5099 59 24.8142 59C25.2707 59 25.7082 58.7907 26.0125 58.3913C28.5423 54.8915 29.0749 50.4406 27.4011 46.4653C27.0777 45.7234 26.2218 45.3621 25.48 45.6854C24.7382 46.0088 24.3958 46.8647 24.7001 47.6065C25.9555 50.6118 25.556 54.0165 23.6349 56.6604C23.1594 57.3261 23.3116 58.2391 23.9583 58.7146Z" fill="#F70A8D"/>
<path d="M41.6288 50.172C42.5216 50.172 43.2456 49.4481 43.2456 48.5552C43.2456 47.6622 42.5216 46.9385 41.6288 46.9385C40.736 46.9385 40.012 47.6622 40.012 48.5552C40.012 49.4481 40.736 50.172 41.6288 50.172Z" fill="#F70A8D"/>
<path d="M67 27C67 15.9543 75.9543 7 87 7H111C122.046 7 131 15.9543 131 27V51C131 62.0457 122.046 71 111 71H87C75.9543 71 67 62.0457 67 51V27Z" fill="white"/>
<path d="M98.2594 58.9999C111.101 58.9999 117.518 50.3774 117.518 39.7409C117.518 29.1045 111.101 20.4819 98.2594 20.4819C85.4175 20.4819 79.0004 29.1045 79.0004 39.7409C79.0004 50.3774 85.4175 58.9999 98.2594 58.9999Z" fill="#FFB02E"/>
<path d="M81.9633 20.4819H99.7409L79.0004 39.7409V23.4449C79.0004 21.8085 80.327 20.4819 81.9633 20.4819Z" fill="#BB1D80"/>
<path d="M79.0004 28.5029L87.0214 20.4819H82.8312L79.0004 24.3127V28.5029Z" fill="#5092FF"/>
<path d="M79.0004 35.9102L94.4286 20.4819H90.2385L79.0004 31.72V35.9102Z" fill="#5092FF"/>
<path d="M116.778 24.5567C116.778 23.943 116.28 23.4456 115.667 23.4456C115.053 23.4456 114.556 23.943 114.556 24.5567C114.556 26.4853 112.939 27.8899 111.222 27.8899C110.609 27.8899 110.111 28.3874 110.111 29.001C110.111 29.6147 110.609 30.1121 111.222 30.1121C114.064 30.1121 116.778 27.8131 116.778 24.5567Z" fill="#F70A8D"/>
<path d="M90.1116 52.7028C90.1116 52.0891 89.6141 51.5917 89.0005 51.5917C88.3868 51.5917 87.8894 52.0891 87.8894 52.7028C87.8894 54.6315 86.2731 56.0361 84.5561 56.0361C83.9425 56.0361 83.445 56.5335 83.445 57.1472C83.445 57.7608 83.9425 58.2582 84.5561 58.2582C87.3975 58.2582 90.1116 55.9592 90.1116 52.7028Z" fill="#F70A8D"/>
<path d="M89.3431 37.0597C89.4143 36.6933 89.5774 36.2443 89.8875 35.9065C90.1531 35.6171 90.6252 35.2954 91.5925 35.2954C92.5433 35.2954 93.0274 35.6237 93.307 35.9307C93.6301 36.2855 93.7858 36.7379 93.8366 37.0304C93.9766 37.8364 94.7435 38.3764 95.5496 38.2366C96.3558 38.0966 96.8958 37.3295 96.7558 36.5234C96.6388 35.8495 96.3035 34.8205 95.4973 33.9355C94.6474 33.0024 93.3637 32.3325 91.5925 32.3325C89.838 32.3325 88.5596 32.9715 87.7046 33.903C86.8938 34.7864 86.566 35.8188 86.4347 36.4941C86.2785 37.2973 86.803 38.075 87.6061 38.2311C88.4093 38.3872 89.187 37.8628 89.3431 37.0597Z" fill="#402A32"/>
<path d="M104.159 37.0597C104.23 36.6933 104.393 36.2443 104.703 35.9065C104.969 35.6171 105.441 35.2954 106.408 35.2954C107.359 35.2954 107.843 35.6237 108.122 35.9307C108.446 36.2855 108.601 36.7379 108.652 37.0304C108.792 37.8364 109.559 38.3764 110.365 38.2366C111.171 38.0966 111.711 37.3295 111.571 36.5234C111.454 35.8495 111.119 34.8205 110.313 33.9355C109.463 33.0024 108.179 32.3325 106.408 32.3325C104.654 32.3325 103.375 32.9715 102.52 33.903C101.709 34.7864 101.381 35.8188 101.25 36.4941C101.094 37.2973 101.619 38.075 102.422 38.2311C103.225 38.3872 104.002 37.8628 104.159 37.0597Z" fill="#402A32"/>
<path d="M111.593 20.4815C111.593 21.2996 110.93 21.9629 110.112 21.9629C109.293 21.9629 108.63 21.2996 108.63 20.4815C108.63 19.6633 109.293 19 110.112 19C110.93 19 111.593 19.6633 111.593 20.4815Z" fill="#00A6ED"/>
<path d="M87.8893 47.1471C88.7075 47.1471 89.3708 46.4839 89.3708 45.6657C89.3708 44.8475 88.7075 44.1842 87.8893 44.1842C87.0711 44.1842 86.4078 44.8475 86.4078 45.6657C86.4078 46.4839 87.0711 47.1471 87.8893 47.1471Z" fill="#00A6ED"/>
<path d="M113.074 59.0002C113.892 59.0002 114.555 58.3369 114.555 57.5187C114.555 56.7005 113.892 56.0372 113.074 56.0372C112.255 56.0372 111.592 56.7005 111.592 57.5187C111.592 58.3369 112.255 59.0002 113.074 59.0002Z" fill="#00A6ED"/>
<path d="M113.55 35.2964C110.832 35.2964 108.629 37.4995 108.629 40.2169V40.4074C108.629 42.4938 110.321 44.1851 112.407 44.1851C114.003 44.1851 115.296 42.8918 115.296 41.2963V40.8519C115.296 40.2382 114.798 39.7408 114.185 39.7408C113.571 39.7408 113.074 40.2382 113.074 40.8519V41.2963C113.074 41.6644 112.775 41.963 112.407 41.963C111.548 41.963 110.851 41.2665 110.851 40.4074V40.2169C110.851 38.7267 112.06 37.5186 113.55 37.5186H113.814C115.451 37.5186 116.777 38.8451 116.777 40.4815V41.0165C116.777 43.5847 114.695 45.6666 112.127 45.6666H102.703C102.09 45.6666 101.592 46.1641 101.592 46.7777C101.592 47.3913 102.09 47.8888 102.703 47.8888H112.127C115.923 47.8888 118.999 44.812 118.999 41.0165V40.4815C118.999 37.6178 116.678 35.2964 113.814 35.2964H113.55Z" fill="#00A6ED"/>
<path d="M100.734 41.1021C99.9153 41.1021 99.2521 41.7653 99.2521 42.5835C99.2521 43.4017 99.9153 44.065 100.734 44.065C101.16 44.065 101.504 44.4091 101.504 44.8353C101.504 45.2615 101.16 45.6057 100.734 45.6057C99.9153 45.6057 99.2521 46.2689 99.2521 47.0871C99.2521 47.9054 99.9153 48.5686 100.734 48.5686C101.16 48.5686 101.504 48.9128 101.504 49.339C101.504 49.7652 101.16 50.1093 100.734 50.1093C99.9153 50.1093 99.2521 50.7726 99.2521 51.5908C99.2521 52.409 99.9153 53.0722 100.734 53.0722C102.796 53.0722 104.467 51.4016 104.467 49.339C104.467 48.4931 104.186 47.7131 103.712 47.0871C104.186 46.4612 104.467 45.6812 104.467 44.8353C104.467 42.7727 102.796 41.1021 100.734 41.1021Z" fill="#402A32"/>
<path d="M131 27C131 15.9543 139.954 7 151 7H175C186.046 7 195 15.9543 195 27V51C195 62.0457 186.046 71 175 71H151C139.954 71 131 62.0457 131 51V27Z" fill="white"/>
<path d="M146.752 58.8751L148.934 58.2912L149.519 57.0233L153.3 57.1226L157.232 56.0701L158.117 54.6972L161.797 54.8484L165.638 53.8202C168.306 53.1086 169.21 49.7584 167.254 47.8017L153.438 33.9711C151.481 32.0143 148.131 32.9037 147.419 35.5869L146.274 39.8659L146.434 43.3415L145.129 44.145L143.958 48.5196L144.154 51.8517L142.874 52.5688L142.364 54.4724C141.638 57.1407 144.084 59.5867 146.752 58.8751Z" fill="#F9C23C"/>
<path d="M150.831 51.6894C148.636 49.6403 146.767 47.1732 145.117 44.1921L146.269 39.887C148.164 44.0345 150.296 47.1346 152.854 49.5228C155.318 51.8245 158.238 53.5204 161.852 54.8335L157.214 56.0752C154.839 54.8936 152.727 53.4603 150.831 51.6894Z" fill="#3F5FFF"/>
<path d="M145.621 55.8921C144.572 54.9111 143.671 53.8124 142.872 52.5806L143.976 48.4553C145.017 50.6644 146.184 52.3599 147.646 53.727C149.104 55.0909 150.92 56.1868 153.336 57.1153L148.905 58.3012C147.685 57.6006 146.599 56.8062 145.621 55.8921Z" fill="#3F5FFF"/>
<path d="M167.595 52.6355C169.67 50.5601 167.091 44.6306 161.843 39.383C156.596 34.1353 150.681 31.556 148.606 33.6313C146.53 35.7066 149.11 41.6362 154.357 46.8838C159.605 52.1315 165.534 54.696 167.595 52.6355Z" fill="#6D4534"/>
<path d="M156.476 25.3299C158.315 28.769 158.685 32.7121 157.544 36.4329C156.58 39.6052 154.594 42.2883 151.896 44.1413C151.125 43.1777 150.458 42.2142 149.895 41.2803C151.955 39.872 153.467 37.8263 154.208 35.4101C155.083 32.5787 154.801 29.5843 153.408 26.9754C152.948 26.1156 153.275 25.0631 154.119 24.6184C154.979 24.1588 156.032 24.4849 156.476 25.3299Z" fill="#F70A8D"/>
<path d="M172.101 39.327C174.903 37.1129 178.539 36.6621 181.668 37.8292C182.472 38.1291 183.367 37.7204 183.667 36.9162C183.967 36.1121 183.558 35.2172 182.754 34.9173C178.649 33.3865 173.864 33.9734 170.174 36.8883C169.501 37.4202 169.386 38.3974 169.918 39.0708C170.45 39.7443 171.427 39.859 172.101 39.327Z" fill="#F70A8D"/>
<path d="M148.176 28.9162C149.125 28.9162 149.895 28.1463 149.895 27.1966C149.895 26.2469 149.125 25.4771 148.176 25.4771C147.226 25.4771 146.456 26.2469 146.456 27.1966C146.456 28.1463 147.226 28.9162 148.176 28.9162Z" fill="#F70A8D"/>
<path d="M178.001 27.1966C178.001 28.1463 177.231 28.9162 176.282 28.9162C175.332 28.9162 174.562 28.1463 174.562 27.1966C174.562 26.2469 175.332 25.4771 176.282 25.4771C177.231 25.4771 178.001 26.2469 178.001 27.1966Z" fill="#F70A8D"/>
<path d="M157.782 20.4231C157.782 21.209 157.144 21.8462 156.359 21.8462C155.573 21.8462 154.935 21.209 154.935 20.4231C154.935 19.6371 155.573 19 156.359 19C157.144 19 157.782 19.6371 157.782 20.4231Z" fill="#F9C23C"/>
<path d="M177.038 50.7383C177.038 51.5324 176.394 52.1762 175.6 52.1762C174.806 52.1762 174.162 51.5324 174.162 50.7383C174.162 49.9442 174.806 49.3004 175.6 49.3004C176.394 49.3004 177.038 49.9442 177.038 50.7383Z" fill="#F9C23C"/>
<path d="M171.33 20.5128C171.093 20.3053 170.796 20.1719 170.47 20.1571C169.67 20.1126 168.988 20.7204 168.929 21.5209C168.825 23.1515 167.698 26.1014 167.268 27.0946C167.268 27.102 167.265 27.1095 167.261 27.1169C167.257 27.1243 167.253 27.1317 167.253 27.1391C167.174 27.3349 167.089 27.5279 166.999 27.7179C166.847 27.5286 166.68 27.3552 166.497 27.1984C166.082 26.8278 165.578 26.5462 164.985 26.3535L164.941 26.3386C162.94 25.6716 160.761 26.7537 160.094 28.7697C159.767 29.7481 159.842 30.7858 160.301 31.7049C160.761 32.6239 161.546 33.3058 162.525 33.632C162.63 33.6669 162.736 33.6892 162.842 33.6993C163.591 33.9016 164.316 33.9086 165.014 33.7212C164.972 33.9247 164.923 34.1272 164.867 34.3287C164.659 35.0995 165.119 35.9 165.89 36.1075C166.661 36.3151 167.461 35.8555 167.669 35.0847C168.003 33.8771 168.147 32.6474 168.103 31.405C168.874 30.4388 169.49 29.3743 169.951 28.2212L169.973 28.1684C170.248 27.5034 171.69 24.0143 171.834 21.6839C171.849 21.2244 171.656 20.7945 171.33 20.5128ZM164.096 29.0959C164.504 29.232 164.923 29.461 165.102 30.3946C164.372 31.0726 163.903 30.9982 163.488 30.8599C163.438 30.8433 163.388 30.8295 163.338 30.8185C163.149 30.73 162.998 30.5738 162.91 30.3855C162.792 30.1632 162.777 29.9112 162.866 29.674C163.029 29.1848 163.562 28.918 164.052 29.081L164.096 29.0959Z" fill="#00A6ED"/>
<path d="M166.349 41.4721C171.404 40.0638 176.696 40.7013 181.262 43.2806C182.107 43.7698 182.404 44.8223 181.944 45.6524C181.47 46.4974 180.402 46.7939 179.557 46.3195C175.807 44.2145 171.449 43.6809 167.298 44.8371C163.874 45.7858 160.939 47.8019 158.819 50.5888C157.915 49.9662 156.981 49.2546 156.062 48.4541C158.626 45.0891 162.199 42.6284 166.349 41.4721Z" fill="#00A6ED"/>
<path d="M163.91 39.7306C163.91 40.6722 163.146 41.4354 162.205 41.4354C161.264 41.4354 160.5 40.6722 160.5 39.7306C160.5 38.7892 161.264 38.0259 162.205 38.0259C163.146 38.0259 163.91 38.7892 163.91 39.7306Z" fill="#00A6ED"/>
<path d="M195 27C195 15.9543 203.954 7 215 7H239C250.046 7 259 15.9543 259 27V51C259 62.0457 250.046 71 239 71H215C203.954 71 195 62.0457 195 51V27Z" fill="white"/>
<path d="M222.84 43.0658L222.837 43.0686L222.833 43.0732L222.823 43.0858C222.814 43.0956 222.804 43.1083 222.791 43.1239C222.766 43.1549 222.732 43.1973 222.69 43.2513C222.608 43.3591 222.496 43.5126 222.365 43.7121C222.103 44.111 221.764 44.6938 221.429 45.4609C220.757 46.9976 220.102 49.2644 220.102 52.2537C220.102 53.6837 219.779 54.6109 219.359 55.2249C218.94 55.8368 218.363 56.2273 217.695 56.4779C216.521 56.9182 215.238 56.886 214.282 56.8621C214.084 56.8571 213.9 56.8524 213.734 56.8524C213.148 56.8524 212.673 57.3276 212.673 57.9137C212.673 58.4998 213.148 58.9749 213.734 58.9749C213.833 58.9749 213.961 58.979 214.115 58.9838C215.028 59.0128 216.828 59.07 218.44 58.4652C219.423 58.0966 220.394 57.4702 221.11 56.4238C221.825 55.3796 222.224 54.0075 222.224 52.2537C222.224 49.5831 222.808 47.6049 223.373 46.3116C223.657 45.6637 223.937 45.1853 224.14 44.8767C224.241 44.7224 224.323 44.6106 224.376 44.5416C224.402 44.5071 224.421 44.4831 224.432 44.47L224.442 44.4584L224.44 44.4601L224.439 44.4612L224.442 44.4584C224.824 44.0173 224.778 43.3499 224.338 42.9651C223.897 42.5791 223.226 42.6247 222.84 43.0658Z" fill="#3F5FFF"/>
<path d="M225.118 43.1835L222.661 42.1306C222.045 41.8667 221.335 42.1855 221.123 42.821C220.943 43.3615 221.188 43.9523 221.698 44.2071L224.088 45.4025C224.64 45.6784 225.311 45.5001 225.654 44.9868C226.078 44.3503 225.821 43.4849 225.118 43.1835Z" fill="#3F5FFF"/>
<path d="M241.327 31.7349C241.327 38.7683 235.625 44.4699 228.592 44.4699C221.559 44.4699 215.857 38.7683 215.857 31.7349C215.857 24.7016 221.559 19 228.592 19C235.625 19 241.327 24.7016 241.327 31.7349Z" fill="#F8312F"/>
<path d="M224.641 46.8005L220.318 44.8791C219.794 44.6463 219.533 44.0536 219.714 43.5095C219.922 42.886 220.622 42.5772 221.223 42.8442L225.546 44.7655C226.07 44.9984 226.331 45.5911 226.15 46.1351C225.942 46.7586 225.242 47.0674 224.641 46.8005Z" fill="#CA0B4A"/>
<path d="M237.311 25.8444C238.581 27.1142 238.874 28.8798 237.966 29.7878C237.058 30.6959 235.293 30.4025 234.023 29.1326C232.753 27.8627 232.46 26.0972 233.368 25.1892C234.276 24.2812 236.041 24.5745 237.311 25.8444Z" fill="#FF8687"/>
<path d="M259 27C259 15.9543 267.954 7 279 7H303C314.046 7 323 15.9543 323 27V51C323 62.0457 314.046 71 303 71H279C267.954 71 259 62.0457 259 51V27Z" fill="white"/>
<path d="M280.277 31.8561V26.0842C280.277 25.6698 280.449 25.2698 280.734 24.9841L281.706 24.0269L282.677 24.9841C282.963 25.2698 283.134 25.6698 283.134 26.0842V31.8561H280.277ZM289.564 31.8561V26.0842C289.564 25.6698 289.735 25.2698 290.021 24.9841L290.992 24.0269L291.964 24.9841C292.25 25.2698 292.421 25.6698 292.421 26.0842V31.8561H289.564ZM298.85 26.0842V31.8561H301.707V26.0842C301.707 25.6698 301.55 25.2698 301.25 24.9841L300.279 24.0269L299.307 24.9841C299.022 25.2698 298.85 25.6698 298.85 26.0842Z" fill="#26EAFC"/>
<path d="M283.536 21.4681L282.25 19.3107C282.007 18.8964 281.393 18.8964 281.15 19.3107L279.878 21.4681C279.635 21.8681 279.521 22.3396 279.578 22.8396C279.693 23.8254 280.478 24.6112 281.464 24.7112C282.75 24.8541 283.85 23.854 283.85 22.5824C283.836 22.1824 283.721 21.7967 283.536 21.4681ZM292.822 21.4681L291.551 19.3107C291.308 18.8964 290.693 18.8964 290.451 19.3107L289.179 21.4681C288.936 21.8538 288.822 22.3396 288.879 22.8396C288.993 23.8111 289.779 24.5969 290.765 24.7112C292.051 24.8541 293.151 23.854 293.151 22.5824C293.136 22.1824 293.022 21.7967 292.822 21.4681ZM300.837 19.3107L302.109 21.4681C302.309 21.7967 302.423 22.1824 302.423 22.5824C302.423 23.854 301.337 24.8541 300.037 24.7112C299.066 24.6112 298.28 23.8254 298.165 22.8396C298.108 22.3396 298.223 21.8538 298.465 21.4681L299.737 19.3107C299.98 18.8964 300.594 18.8964 300.837 19.3107Z" fill="#FCD53F"/>
<path d="M281.706 20.6235L282.578 21.7379C282.792 21.9665 282.921 22.2522 282.921 22.5808C282.921 23.2523 282.378 23.7952 281.706 23.7952C281.035 23.7952 280.492 23.2523 280.492 22.5808C280.492 22.2522 280.621 21.9665 280.835 21.7379L281.706 20.6235ZM291.864 21.7379L290.993 20.6235L290.121 21.7522C289.907 21.9665 289.778 22.2665 289.778 22.5951C289.778 23.2666 290.321 23.8095 290.993 23.8095C291.664 23.8095 292.207 23.2666 292.207 22.5951C292.207 22.2522 292.079 21.9665 291.864 21.7379ZM301.151 21.7379L300.279 20.6235L299.408 21.7522C299.193 21.9665 299.065 22.2665 299.065 22.5951C299.065 23.2666 299.608 23.8095 300.279 23.8095C300.951 23.8095 301.494 23.2666 301.494 22.5951C301.494 22.2522 301.365 21.9665 301.151 21.7379Z" fill="#FFB02E"/>
<path d="M307.781 59H274.206C273.221 59 272.42 58.2 272.42 57.2142V37.5697H309.566V57.2142C309.566 58.2 308.766 59 307.781 59Z" fill="#D3883E"/>
<path d="M270.991 33.2879C270.991 30.9207 272.91 29.0018 275.277 29.0018H306.723C309.09 29.0018 311.009 30.9207 311.009 33.2879V40.4278V41.2278C311.009 42.3994 309.523 42.9423 308.78 42.0279C308.051 41.1278 306.737 40.985 305.837 41.6993L305.494 41.9708C303.422 43.5852 300.522 43.5852 298.451 41.9708L297.793 41.4564C297.022 40.8564 295.95 40.8564 295.179 41.4564L294.522 41.9708C292.45 43.5852 289.55 43.5852 287.478 41.9708L286.821 41.4564C286.05 40.8564 284.978 40.8564 284.207 41.4564L283.549 41.9708C281.478 43.5852 278.578 43.5852 276.506 41.9708L276.163 41.6993C275.263 40.9993 273.949 41.1421 273.22 42.0279C272.463 42.928 270.991 42.3994 270.991 41.2278V33.2879ZM272.42 47.5712H309.566V50.4286H272.42V47.5712Z" fill="#FFDEA7"/>
<path d="M289.779 32.0732C289.493 32.3589 289.493 32.8018 289.779 33.0876L290.836 34.1448C291.121 34.4305 291.564 34.4305 291.85 34.1448C292.136 33.8591 292.136 33.4162 291.85 33.1304L290.793 32.0732C290.507 31.7875 290.05 31.7875 289.779 32.0732Z" fill="#00A6ED"/>
<path d="M277.925 32.068C277.646 31.7892 277.194 31.7892 276.915 32.068C276.636 32.3471 276.636 32.7994 276.915 33.0784L278.343 34.5071C278.622 34.786 279.075 34.786 279.354 34.5071C279.633 34.2281 279.633 33.7758 279.354 33.4967L277.925 32.068ZM296.498 36.3541C296.219 36.0752 295.767 36.0752 295.488 36.3541C295.209 36.6331 295.209 37.0855 295.488 37.3645L296.916 38.7932C297.195 39.0721 297.648 39.0721 297.927 38.7932C298.205 38.5141 298.205 38.0618 297.927 37.7828L296.498 36.3541Z" fill="#FF6DC6"/>
<path d="M305.071 33.0784C305.349 32.7994 305.349 32.3471 305.071 32.068C304.792 31.7892 304.339 31.7892 304.06 32.068L302.631 33.4967C302.353 33.7758 302.353 34.2281 302.631 34.5071C302.911 34.786 303.363 34.786 303.642 34.5071L305.071 33.0784ZM285.069 37.3645C285.348 37.0855 285.348 36.6331 285.069 36.3541C284.79 36.0752 284.338 36.0752 284.059 36.3541L282.63 37.7828C282.351 38.0618 282.351 38.5141 282.63 38.7932C282.909 39.0721 283.361 39.0721 283.64 38.7932L285.069 37.3645Z" fill="#FF822D"/>
<path d="M289.773 32.068C290.052 31.7892 290.505 31.7892 290.784 32.068L292.212 33.4967C292.491 33.7758 292.491 34.2281 292.212 34.5071C291.933 34.786 291.481 34.786 291.202 34.5071L289.773 33.0784C289.494 32.7994 289.494 32.3471 289.773 32.068Z" fill="#00A6ED"/>
<path d="M323 27C323 15.9543 331.954 7 343 7H367C378.046 7 387 15.9543 387 27V51C387 62.0457 378.046 71 367 71H343C331.954 71 323 62.0457 323 51V27Z" fill="white"/>
<path d="M332.032 40.6075C327.087 35.6621 327.087 27.6544 332.032 22.709C336.978 17.7637 344.986 17.7637 349.931 22.709L352.251 25.0296L334.353 42.9281L332.032 40.6075Z" fill="#F9C23C"/>
<path d="M377.967 40.6075C382.913 35.6621 382.913 27.6544 377.967 22.709C373.041 17.7637 365.014 17.7637 360.069 22.709L357.748 25.0296L375.647 42.9281L377.967 40.6075Z" fill="#F9C23C"/>
<path d="M346.774 37.4504C341.829 42.3958 336.237 44.8114 334.277 42.8713C332.337 40.9122 334.753 35.3201 339.698 30.3747C344.644 25.4293 350.255 23.0327 352.195 24.9728C354.135 26.9129 351.719 32.505 346.774 37.4504Z" fill="#6D4534"/>
<path d="M363.246 37.4497C368.191 42.3951 373.764 44.8297 375.723 42.8706C377.683 40.9115 375.248 35.3384 370.303 30.393C365.357 25.4476 359.765 23.032 357.825 24.9721C355.885 26.9122 358.301 32.5043 363.246 37.4497Z" fill="#6D4534"/>
<path d="M347.779 42.7211C347.779 43.4671 347.174 44.0716 346.429 44.0716C345.683 44.0716 345.078 43.4671 345.078 42.7211C345.078 41.9753 345.683 41.3706 346.429 41.3706C347.174 41.3706 347.779 41.9753 347.779 42.7211Z" fill="#F9C23C"/>
<path d="M340.705 55.4632C341.451 55.4632 342.056 54.8585 342.056 54.1127C342.056 53.3669 341.451 52.7622 340.705 52.7622C339.96 52.7622 339.355 53.3669 339.355 54.1127C339.355 54.8585 339.96 55.4632 340.705 55.4632Z" fill="#F9C23C"/>
<path d="M368.266 57.0401C369.317 57.0401 370.169 56.1885 370.169 55.138C370.169 54.0875 369.317 53.236 368.266 53.236C367.216 53.236 366.364 54.0875 366.364 55.138C366.364 56.1885 367.216 57.0401 368.266 57.0401Z" fill="#F9C23C"/>
<path d="M368.057 29.9178C368.361 30.0319 368.59 30.2411 368.742 30.4884C368.951 30.8308 369.008 31.2873 368.837 31.7057C368.019 33.817 365.622 36.6511 365.28 37.0315C364.546 37.9289 363.699 38.7004 362.741 39.3458C362.425 40.4926 361.936 41.5661 361.286 42.5666C360.867 43.1943 360.011 43.3845 359.383 42.966C358.756 42.5476 358.566 41.6916 358.984 41.0639C359.09 40.9013 359.19 40.7355 359.285 40.5667C358.52 40.5329 357.797 40.2675 357.12 39.7705C357.08 39.7407 357.042 39.7089 357.006 39.6758C356.269 39.1071 355.784 38.294 355.636 37.3739C355.484 36.4229 355.712 35.4718 356.283 34.692C357.462 33.0752 359.726 32.7138 361.343 33.8931L361.381 33.9312C361.856 34.2735 362.237 34.654 362.503 35.1104C362.619 35.2988 362.717 35.4968 362.797 35.7043C362.931 35.5612 363.062 35.414 363.188 35.2626C363.188 35.2531 363.192 35.2484 363.197 35.2436C363.202 35.2388 363.207 35.2341 363.207 35.2246C363.872 34.4637 365.736 32.1432 366.288 30.6976C366.554 29.9939 367.353 29.6515 368.057 29.9178ZM360.315 37.5989C360.426 36.6958 360.118 36.3767 359.783 36.1376L359.745 36.0995C359.345 35.8142 358.794 35.8903 358.509 36.2897C358.375 36.4799 358.318 36.7082 358.356 36.9364C358.394 37.1647 358.509 37.3739 358.699 37.5071C358.736 37.5352 358.772 37.5649 358.806 37.5959C359.13 37.8245 359.535 37.9645 360.315 37.5989Z" fill="#00A6ED"/>
<path d="M354.962 58.9443C356.018 58.9443 356.874 58.0927 356.874 57.0422C356.874 55.9917 356.018 55.1401 354.962 55.1401C353.906 55.1401 353.05 55.9917 353.05 57.0422C353.05 58.0927 353.906 58.9443 354.962 58.9443Z" fill="#00A6ED"/>
<path d="M332.926 52.2479C336.007 49.604 337.871 45.914 338.176 41.8626C338.385 39.0856 337.833 36.3846 336.635 33.969C337.282 33.056 338.061 32.162 338.898 31.2681C340.838 34.5016 341.751 38.2677 341.466 42.1099C341.086 47.0362 338.822 51.5251 335.075 54.7396C334.771 55.0059 334.39 55.1391 334.01 55.1391C333.534 55.1391 333.078 54.9488 332.755 54.5684C332.165 53.8837 332.241 52.8375 332.926 52.2479Z" fill="#00A6ED"/>
<path d="M353.469 44.0321C353.355 45.0402 353.887 46.0102 354.8 46.4477C355.618 46.8471 355.961 47.8172 355.561 48.6161C355.295 49.2247 354.705 49.5671 354.078 49.5671C353.849 49.5671 353.602 49.5291 353.374 49.4149C351.167 48.3688 349.874 46.0483 350.178 43.6326L350.635 39.9616C350.73 39.2769 350.521 38.6112 350.045 38.0976C349.57 37.5841 348.961 37.3368 348.238 37.3368L347.211 37.3558C345.138 37.4319 343.16 36.2906 342.133 34.4456L339.831 30.2611C340.668 29.4242 341.524 28.7014 342.361 28.0356L345.005 32.8479C345.442 33.6277 346.241 34.1223 347.135 34.0652L348.181 34.0462C349.779 34.0082 351.396 34.6739 352.499 35.8912C353.602 37.1085 354.116 38.7253 353.925 40.3611L353.469 44.0321Z" fill="#F70A8D"/>
<path d="M374.334 54.1127C373.897 54.1127 373.459 53.9225 373.136 53.5801C368.057 48.1021 368.323 39.5618 373.668 34.3882C374.391 35.4343 374.981 36.4424 375.418 37.3935C371.918 41.3498 371.88 47.3984 375.551 51.3547C376.16 52.0204 376.122 53.0475 375.456 53.6752C375.133 53.9605 374.733 54.1127 374.334 54.1127Z" fill="#F70A8D"/>
<path d="M343.958 58.7146C344.205 58.9048 344.509 58.9999 344.814 58.9999C345.27 58.9999 345.708 58.7907 346.012 58.3913C348.542 54.8914 349.074 50.4406 347.401 46.4653C347.077 45.7234 346.221 45.3621 345.479 45.6854C344.738 46.0088 344.395 46.8647 344.7 47.6065C345.955 50.6118 345.556 54.0165 343.634 56.6604C343.159 57.3261 343.311 58.2391 343.958 58.7146Z" fill="#F70A8D"/>
<path d="M361.629 50.172C362.521 50.172 363.245 49.4481 363.245 48.5552C363.245 47.6622 362.521 46.9385 361.629 46.9385C360.736 46.9385 360.012 47.6622 360.012 48.5552C360.012 49.4481 360.736 50.172 361.629 50.172Z" fill="#F70A8D"/>
<path d="M387 27C387 15.9543 395.954 7 407 7H431C442.046 7 451 15.9543 451 27V51C451 62.0457 442.046 71 431 71H407C395.954 71 387 62.0457 387 51V27Z" fill="white"/>
<path d="M418.259 58.9999C431.101 58.9999 437.518 50.3774 437.518 39.7409C437.518 29.1045 431.101 20.4819 418.259 20.4819C405.418 20.4819 399 29.1045 399 39.7409C399 50.3774 405.418 58.9999 418.259 58.9999Z" fill="#FFB02E"/>
<path d="M401.963 20.4819H419.741L399 39.7409V23.4449C399 21.8085 400.327 20.4819 401.963 20.4819Z" fill="#BB1D80"/>
<path d="M399 28.5029L407.021 20.4819H402.831L399 24.3127V28.5029Z" fill="#5092FF"/>
<path d="M399 35.9102L414.429 20.4819H410.238L399 31.72V35.9102Z" fill="#5092FF"/>
<path d="M436.778 24.5567C436.778 23.943 436.28 23.4456 435.667 23.4456C435.053 23.4456 434.556 23.943 434.556 24.5567C434.556 26.4853 432.939 27.8899 431.222 27.8899C430.609 27.8899 430.111 28.3874 430.111 29.001C430.111 29.6147 430.609 30.1121 431.222 30.1121C434.064 30.1121 436.778 27.8131 436.778 24.5567Z" fill="#F70A8D"/>
<path d="M410.112 52.7028C410.112 52.0891 409.614 51.5917 409 51.5917C408.387 51.5917 407.889 52.0891 407.889 52.7028C407.889 54.6315 406.273 56.0361 404.556 56.0361C403.942 56.0361 403.445 56.5335 403.445 57.1472C403.445 57.7608 403.942 58.2582 404.556 58.2582C407.397 58.2582 410.112 55.9592 410.112 52.7028Z" fill="#F70A8D"/>
<path d="M409.343 37.0597C409.414 36.6933 409.577 36.2443 409.887 35.9065C410.153 35.6171 410.625 35.2954 411.592 35.2954C412.543 35.2954 413.027 35.6237 413.307 35.9307C413.63 36.2855 413.786 36.7379 413.837 37.0304C413.977 37.8364 414.744 38.3764 415.55 38.2366C416.356 38.0966 416.896 37.3295 416.756 36.5234C416.639 35.8495 416.304 34.8205 415.497 33.9355C414.647 33.0024 413.364 32.3325 411.592 32.3325C409.838 32.3325 408.56 32.9715 407.705 33.903C406.894 34.7864 406.566 35.8188 406.435 36.4941C406.279 37.2973 406.803 38.075 407.606 38.2311C408.409 38.3872 409.187 37.8628 409.343 37.0597Z" fill="#402A32"/>
<path d="M424.159 37.0597C424.23 36.6933 424.393 36.2443 424.703 35.9065C424.969 35.6171 425.441 35.2954 426.408 35.2954C427.359 35.2954 427.843 35.6237 428.122 35.9307C428.446 36.2855 428.601 36.7379 428.652 37.0304C428.792 37.8364 429.559 38.3764 430.365 38.2366C431.171 38.0966 431.711 37.3295 431.571 36.5234C431.454 35.8495 431.119 34.8205 430.313 33.9355C429.463 33.0024 428.179 32.3325 426.408 32.3325C424.654 32.3325 423.375 32.9715 422.52 33.903C421.709 34.7864 421.381 35.8188 421.25 36.4941C421.094 37.2973 421.619 38.075 422.422 38.2311C423.225 38.3872 424.002 37.8628 424.159 37.0597Z" fill="#402A32"/>
<path d="M431.593 20.4815C431.593 21.2996 430.93 21.9629 430.112 21.9629C429.293 21.9629 428.63 21.2996 428.63 20.4815C428.63 19.6633 429.293 19 430.112 19C430.93 19 431.593 19.6633 431.593 20.4815Z" fill="#00A6ED"/>
<path d="M407.889 47.1471C408.707 47.1471 409.371 46.4839 409.371 45.6657C409.371 44.8475 408.707 44.1842 407.889 44.1842C407.071 44.1842 406.408 44.8475 406.408 45.6657C406.408 46.4839 407.071 47.1471 407.889 47.1471Z" fill="#00A6ED"/>
<path d="M433.074 59.0002C433.892 59.0002 434.555 58.3369 434.555 57.5187C434.555 56.7005 433.892 56.0372 433.074 56.0372C432.255 56.0372 431.592 56.7005 431.592 57.5187C431.592 58.3369 432.255 59.0002 433.074 59.0002Z" fill="#00A6ED"/>
<path d="M433.55 35.2964C430.832 35.2964 428.629 37.4995 428.629 40.2169V40.4074C428.629 42.4938 430.321 44.1851 432.407 44.1851C434.003 44.1851 435.296 42.8918 435.296 41.2963V40.8519C435.296 40.2382 434.798 39.7408 434.185 39.7408C433.571 39.7408 433.074 40.2382 433.074 40.8519V41.2963C433.074 41.6644 432.775 41.963 432.407 41.963C431.548 41.963 430.851 41.2665 430.851 40.4074V40.2169C430.851 38.7267 432.06 37.5186 433.55 37.5186H433.814C435.451 37.5186 436.777 38.8451 436.777 40.4815V41.0165C436.777 43.5847 434.695 45.6666 432.127 45.6666H422.703C422.09 45.6666 421.592 46.1641 421.592 46.7777C421.592 47.3913 422.09 47.8888 422.703 47.8888H432.127C435.923 47.8888 438.999 44.812 438.999 41.0165V40.4815C438.999 37.6178 436.678 35.2964 433.814 35.2964H433.55Z" fill="#00A6ED"/>
<path d="M420.733 41.1021C419.915 41.1021 419.252 41.7653 419.252 42.5835C419.252 43.4017 419.915 44.065 420.733 44.065C421.16 44.065 421.504 44.4091 421.504 44.8353C421.504 45.2615 421.16 45.6057 420.733 45.6057C419.915 45.6057 419.252 46.2689 419.252 47.0871C419.252 47.9054 419.915 48.5686 420.733 48.5686C421.16 48.5686 421.504 48.9128 421.504 49.339C421.504 49.7652 421.16 50.1093 420.733 50.1093C419.915 50.1093 419.252 50.7726 419.252 51.5908C419.252 52.409 419.915 53.0722 420.733 53.0722C422.796 53.0722 424.467 51.4016 424.467 49.339C424.467 48.4931 424.186 47.7131 423.712 47.0871C424.186 46.4612 424.467 45.6812 424.467 44.8353C424.467 42.7727 422.796 41.1021 420.733 41.1021Z" fill="#402A32"/>
<path d="M451 27C451 15.9543 459.954 7 471 7H495C506.046 7 515 15.9543 515 27V51C515 62.0457 506.046 71 495 71H471C459.954 71 451 62.0457 451 51V27Z" fill="white"/>
<path d="M478.84 43.0658L478.837 43.0686L478.833 43.0732L478.823 43.0858C478.814 43.0956 478.804 43.1083 478.791 43.1239C478.766 43.1549 478.732 43.1973 478.69 43.2513C478.608 43.3591 478.496 43.5126 478.365 43.7121C478.103 44.111 477.764 44.6938 477.429 45.4609C476.757 46.9976 476.102 49.2644 476.102 52.2537C476.102 53.6837 475.779 54.6109 475.359 55.2249C474.94 55.8368 474.363 56.2273 473.695 56.4779C472.521 56.9182 471.238 56.886 470.282 56.8621C470.084 56.8571 469.9 56.8524 469.734 56.8524C469.148 56.8524 468.673 57.3276 468.673 57.9137C468.673 58.4998 469.148 58.9749 469.734 58.9749C469.833 58.9749 469.961 58.979 470.115 58.9838C471.028 59.0128 472.828 59.07 474.44 58.4652C475.423 58.0966 476.394 57.4702 477.11 56.4238C477.825 55.3796 478.224 54.0075 478.224 52.2537C478.224 49.5831 478.808 47.6049 479.373 46.3116C479.657 45.6637 479.937 45.1853 480.14 44.8767C480.241 44.7224 480.323 44.6106 480.376 44.5416C480.402 44.5071 480.421 44.4831 480.432 44.47L480.442 44.4584L480.44 44.4601L480.439 44.4612L480.442 44.4584C480.824 44.0173 480.778 43.3499 480.338 42.9651C479.897 42.5791 479.226 42.6247 478.84 43.0658Z" fill="#3F5FFF"/>
<path d="M481.118 43.1835L478.661 42.1306C478.045 41.8667 477.335 42.1855 477.123 42.821C476.943 43.3615 477.188 43.9523 477.698 44.2071L480.088 45.4025C480.64 45.6784 481.311 45.5001 481.654 44.9868C482.078 44.3503 481.821 43.4849 481.118 43.1835Z" fill="#3F5FFF"/>
<path d="M497.327 31.7349C497.327 38.7683 491.625 44.4699 484.592 44.4699C477.559 44.4699 471.857 38.7683 471.857 31.7349C471.857 24.7016 477.559 19 484.592 19C491.625 19 497.327 24.7016 497.327 31.7349Z" fill="#F8312F"/>
<path d="M480.641 46.8005L476.318 44.8791C475.794 44.6463 475.533 44.0536 475.714 43.5095C475.922 42.886 476.622 42.5772 477.223 42.8442L481.546 44.7655C482.07 44.9984 482.331 45.5911 482.15 46.1351C481.942 46.7586 481.242 47.0674 480.641 46.8005Z" fill="#CA0B4A"/>
<path d="M493.311 25.8444C494.581 27.1142 494.874 28.8798 493.966 29.7878C493.058 30.6959 491.293 30.4025 490.023 29.1326C488.753 27.8627 488.46 26.0972 489.368 25.1892C490.276 24.2812 492.041 24.5745 493.311 25.8444Z" fill="#FF8687"/>
<path d="M3 97C3 85.9543 11.9543 77 23 77H47C58.0457 77 67 85.9543 67 97V121C67 132.046 58.0457 141 47 141H23C11.9543 141 3 132.046 3 121V97Z" fill="white"/>
<path d="M16.5025 105.472H22.5145V108.028H22.8385C23.7745 105.976 25.9345 105.04 29.7145 105.04C33.8185 105.04 36.0865 106.084 37.4545 108.604C38.5345 106.048 40.6225 105.04 44.7985 105.04C48.3265 105.04 50.4145 105.688 51.8905 107.236C53.3665 108.748 53.6905 110.152 53.6905 114.544V122.5H47.3185V114.544C47.2825 111.7 47.2105 111.376 46.5985 110.764C45.9505 110.116 44.8705 109.828 42.9985 109.828C41.0905 109.828 39.9025 110.152 39.2185 110.908C38.4985 111.7 38.2825 112.708 38.2825 115.48V122.5H31.9105V114.544C31.9105 111.88 31.8385 111.412 31.2265 110.764C30.6505 110.116 29.5345 109.828 27.6985 109.828C25.7905 109.828 24.5305 110.152 23.8105 110.872C23.0905 111.592 22.8745 112.672 22.8745 115.48V122.5H16.5025V105.472Z" fill="black"/>
<path d="M67 97C67 85.9543 75.9543 77 87 77H111C122.046 77 131 85.9543 131 97V121C131 132.046 122.046 141 111 141H87C75.9543 141 67 132.046 67 121V97Z" fill="white"/>
<path d="M104.071 117.064H110.407C109.939 121.78 107.599 122.932 98.4911 122.932C93.5591 122.932 91.2191 122.5 89.6711 121.348C88.0151 120.088 87.5111 118.396 87.5111 114.04C87.5111 109.468 88.0151 107.776 89.8151 106.516C91.4711 105.364 93.5951 105.004 99.1391 105.004C104.899 105.004 106.915 105.364 108.463 106.624C109.975 107.884 110.551 109.792 110.551 113.644C110.551 113.86 110.551 114.652 110.515 115.372H93.8831C93.8831 117.1 94.0631 117.676 94.6751 118.144C95.3591 118.648 96.6911 118.864 98.9951 118.864C103.063 118.864 103.819 118.576 104.071 117.064ZM93.8831 111.88H104.143C104.107 110.548 104.035 110.224 103.639 109.828C103.063 109.216 101.767 108.964 99.2471 108.964C94.9631 108.964 93.9551 109.504 93.8831 111.88Z" fill="black"/>
<path d="M131 97C131 85.9543 139.954 77 151 77H175C186.046 77 195 85.9543 195 97V121C195 132.046 186.046 141 175 141H151C139.954 141 131 132.046 131 121V97Z" fill="white"/>
<path d="M144.503 105.472H150.515V108.028H150.839C151.775 105.976 153.935 105.04 157.715 105.04C161.819 105.04 164.087 106.084 165.455 108.604C166.535 106.048 168.623 105.04 172.799 105.04C176.327 105.04 178.415 105.688 179.891 107.236C181.367 108.748 181.691 110.152 181.691 114.544V122.5H175.319V114.544C175.283 111.7 175.211 111.376 174.599 110.764C173.951 110.116 172.871 109.828 170.999 109.828C169.091 109.828 167.903 110.152 167.219 110.908C166.499 111.7 166.283 112.708 166.283 115.48V122.5H159.911V114.544C159.911 111.88 159.839 111.412 159.227 110.764C158.651 110.116 157.535 109.828 155.699 109.828C153.791 109.828 152.531 110.152 151.811 110.872C151.091 111.592 150.875 112.672 150.875 115.48V122.5H144.503V105.472Z" fill="black"/>
<path d="M195 97C195 85.9543 203.954 77 215 77H239C250.046 77 259 85.9543 259 97V121C259 132.046 250.046 141 239 141H215C203.954 141 195 132.046 195 121V97Z" fill="white"/>
<path d="M227.516 105.04C233.348 105.04 235.796 105.436 237.38 106.588C239.108 107.848 239.576 109.396 239.576 113.68C239.576 118.36 239.144 119.944 237.596 121.24C235.976 122.572 233.852 122.932 227.552 122.932C221.18 122.932 219.056 122.572 217.436 121.24C215.852 119.944 215.456 118.36 215.456 113.428C215.456 109.432 215.96 107.812 217.652 106.588C219.236 105.436 221.72 105.04 227.516 105.04ZM227.552 109.828C222.692 109.828 221.828 110.476 221.828 114.112C221.828 116.38 222.116 117.136 223.268 117.604C224.06 117.964 225.5 118.144 227.552 118.144C232.376 118.144 233.204 117.532 233.204 113.932C233.204 111.628 232.844 110.8 231.656 110.332C230.864 110.008 229.352 109.828 227.552 109.828Z" fill="black"/>
<path d="M259 97C259 85.9543 267.954 77 279 77H303C314.046 77 323 85.9543 323 97V121C323 132.046 314.046 141 303 141H279C267.954 141 259 132.046 259 121V97Z" fill="white"/>
<path d="M281.995 105.472H288.007V108.028H288.331C289.519 105.868 291.319 105.04 294.883 105.04C300.031 105.04 301.759 106.768 301.759 111.88V113.032H295.747C295.747 110.512 295.027 109.828 292.399 109.828C290.959 109.828 289.771 110.26 289.159 111.052C288.547 111.88 288.367 112.816 288.367 115.444V122.5H281.995V105.472Z" fill="black"/>
<path d="M323 97C323 85.9543 331.954 77 343 77H367C378.046 77 387 85.9543 387 97V121C387 132.046 378.046 141 367 141H343C331.954 141 323 132.046 323 121V97Z" fill="white"/>
<path d="M343.153 105.472H350.137L354.997 117.856L360.397 105.472H367.453L358.381 124.696C356.617 128.404 356.509 128.584 355.429 129.232C354.385 129.88 352.981 130.168 350.785 130.168C349.453 130.168 348.481 130.132 348.049 130.06V125.704C348.409 125.668 348.445 125.668 349.489 125.668C351.613 125.704 352.261 125.128 353.305 122.5H350.749L343.153 105.472Z" fill="black"/>
<path d="M387 97C387 85.9543 395.954 77 407 77H431C442.046 77 451 85.9543 451 97V121C451 132.046 442.046 141 431 141H407C395.954 141 387 132.046 387 121V97Z" fill="white"/>
<path d="M408.277 101.856V96.0842C408.277 95.6698 408.449 95.2698 408.734 94.9841L409.706 94.0269L410.677 94.9841C410.963 95.2698 411.134 95.6698 411.134 96.0842V101.856H408.277ZM417.564 101.856V96.0842C417.564 95.6698 417.735 95.2698 418.021 94.9841L418.992 94.0269L419.964 94.9841C420.25 95.2698 420.421 95.6698 420.421 96.0842V101.856H417.564ZM426.85 96.0842V101.856H429.707V96.0842C429.707 95.6698 429.55 95.2698 429.25 94.9841L428.279 94.0269L427.307 94.9841C427.022 95.2698 426.85 95.6698 426.85 96.0842Z" fill="#26EAFC"/>
<path d="M411.536 91.4681L410.25 89.3107C410.007 88.8964 409.393 88.8964 409.15 89.3107L407.878 91.4681C407.635 91.8681 407.521 92.3396 407.578 92.8396C407.693 93.8254 408.478 94.6112 409.464 94.7112C410.75 94.8541 411.85 93.854 411.85 92.5824C411.836 92.1824 411.721 91.7967 411.536 91.4681ZM420.822 91.4681L419.551 89.3107C419.308 88.8964 418.693 88.8964 418.451 89.3107L417.179 91.4681C416.936 91.8538 416.822 92.3396 416.879 92.8396C416.993 93.8111 417.779 94.5969 418.765 94.7112C420.051 94.8541 421.151 93.854 421.151 92.5824C421.136 92.1824 421.022 91.7967 420.822 91.4681ZM428.837 89.3107L430.109 91.4681C430.309 91.7967 430.423 92.1824 430.423 92.5824C430.423 93.854 429.337 94.8541 428.037 94.7112C427.066 94.6112 426.28 93.8254 426.165 92.8396C426.108 92.3396 426.223 91.8538 426.465 91.4681L427.737 89.3107C427.98 88.8964 428.594 88.8964 428.837 89.3107Z" fill="#FCD53F"/>
<path d="M409.706 90.6235L410.578 91.7379C410.792 91.9665 410.921 92.2522 410.921 92.5808C410.921 93.2523 410.378 93.7952 409.706 93.7952C409.035 93.7952 408.492 93.2523 408.492 92.5808C408.492 92.2522 408.621 91.9665 408.835 91.7379L409.706 90.6235ZM419.864 91.7379L418.993 90.6235L418.121 91.7522C417.907 91.9665 417.778 92.2665 417.778 92.5951C417.778 93.2666 418.321 93.8095 418.993 93.8095C419.664 93.8095 420.207 93.2666 420.207 92.5951C420.207 92.2522 420.079 91.9665 419.864 91.7379ZM429.151 91.7379L428.279 90.6235L427.408 91.7522C427.193 91.9665 427.065 92.2665 427.065 92.5951C427.065 93.2666 427.608 93.8095 428.279 93.8095C428.951 93.8095 429.494 93.2666 429.494 92.5951C429.494 92.2522 429.365 91.9665 429.151 91.7379Z" fill="#FFB02E"/>
<path d="M435.781 129H402.206C401.221 129 400.42 128.2 400.42 127.214V107.57H437.566V127.214C437.566 128.2 436.766 129 435.781 129Z" fill="#D3883E"/>
<path d="M398.991 103.288C398.991 100.921 400.91 99.0018 403.277 99.0018H434.723C437.09 99.0018 439.009 100.921 439.009 103.288V110.428V111.228C439.009 112.399 437.523 112.942 436.78 112.028C436.051 111.128 434.737 110.985 433.837 111.699L433.494 111.971C431.422 113.585 428.522 113.585 426.451 111.971L425.793 111.456C425.022 110.856 423.95 110.856 423.179 111.456L422.522 111.971C420.45 113.585 417.55 113.585 415.478 111.971L414.821 111.456C414.05 110.856 412.978 110.856 412.207 111.456L411.549 111.971C409.478 113.585 406.578 113.585 404.506 111.971L404.163 111.699C403.263 110.999 401.949 111.142 401.22 112.028C400.463 112.928 398.991 112.399 398.991 111.228V103.288ZM400.42 117.571H437.566V120.429H400.42V117.571Z" fill="#FFDEA7"/>
<path d="M417.779 102.073C417.493 102.359 417.493 102.802 417.779 103.088L418.836 104.145C419.121 104.431 419.564 104.431 419.85 104.145C420.136 103.859 420.136 103.416 419.85 103.13L418.793 102.073C418.507 101.787 418.05 101.787 417.779 102.073Z" fill="#00A6ED"/>
<path d="M405.925 102.068C405.646 101.789 405.194 101.789 404.915 102.068C404.636 102.347 404.636 102.799 404.915 103.078L406.343 104.507C406.622 104.786 407.075 104.786 407.354 104.507C407.633 104.228 407.633 103.776 407.354 103.497L405.925 102.068ZM424.498 106.354C424.219 106.075 423.767 106.075 423.488 106.354C423.209 106.633 423.209 107.085 423.488 107.364L424.916 108.793C425.195 109.072 425.648 109.072 425.927 108.793C426.205 108.514 426.205 108.062 425.927 107.783L424.498 106.354Z" fill="#FF6DC6"/>
<path d="M433.071 103.078C433.349 102.799 433.349 102.347 433.071 102.068C432.792 101.789 432.339 101.789 432.06 102.068L430.631 103.497C430.353 103.776 430.353 104.228 430.631 104.507C430.911 104.786 431.363 104.786 431.642 104.507L433.071 103.078ZM413.069 107.364C413.348 107.085 413.348 106.633 413.069 106.354C412.79 106.075 412.338 106.075 412.059 106.354L410.63 107.783C410.351 108.062 410.351 108.514 410.63 108.793C410.909 109.072 411.361 109.072 411.64 108.793L413.069 107.364Z" fill="#FF822D"/>
<path d="M417.773 102.068C418.052 101.789 418.505 101.789 418.784 102.068L420.212 103.497C420.491 103.776 420.491 104.228 420.212 104.507C419.933 104.786 419.481 104.786 419.202 104.507L417.773 103.078C417.494 102.799 417.494 102.347 417.773 102.068Z" fill="#00A6ED"/>
<path d="M451 97C451 85.9543 459.954 77 471 77H495C506.046 77 515 85.9543 515 97V121C515 132.046 506.046 141 495 141H471C459.954 141 451 132.046 451 121V97Z" fill="white"/>
<path d="M460.032 110.608C455.087 105.662 455.087 97.6544 460.032 92.709C464.978 87.7637 472.986 87.7637 477.931 92.709L480.251 95.0296L462.353 112.928L460.032 110.608Z" fill="#F9C23C"/>
<path d="M505.968 110.608C510.913 105.662 510.913 97.6544 505.968 92.709C501.041 87.7637 493.014 87.7637 488.069 92.709L485.749 95.0296L503.647 112.928L505.968 110.608Z" fill="#F9C23C"/>
<path d="M474.774 107.451C469.829 112.396 464.236 114.812 462.277 112.871C460.337 110.912 462.753 105.32 467.698 100.375C472.644 95.4294 478.255 93.0328 480.195 94.9729C482.135 96.913 479.719 102.505 474.774 107.451Z" fill="#6D4534"/>
<path d="M491.246 107.45C496.191 112.395 501.764 114.83 503.724 112.871C505.683 110.911 503.248 105.338 498.303 100.393C493.357 95.4476 487.765 93.032 485.825 94.9721C483.885 96.9122 486.301 102.504 491.246 107.45Z" fill="#6D4534"/>
<path d="M475.779 112.721C475.779 113.467 475.174 114.072 474.429 114.072C473.683 114.072 473.078 113.467 473.078 112.721C473.078 111.976 473.683 111.371 474.429 111.371C475.174 111.371 475.779 111.976 475.779 112.721Z" fill="#F9C23C"/>
<path d="M468.705 125.463C469.451 125.463 470.056 124.859 470.056 124.113C470.056 123.367 469.451 122.762 468.705 122.762C467.96 122.762 467.355 123.367 467.355 124.113C467.355 124.859 467.96 125.463 468.705 125.463Z" fill="#F9C23C"/>
<path d="M496.266 127.04C497.317 127.04 498.169 126.189 498.169 125.138C498.169 124.088 497.317 123.236 496.266 123.236C495.216 123.236 494.364 124.088 494.364 125.138C494.364 126.189 495.216 127.04 496.266 127.04Z" fill="#F9C23C"/>
<path d="M496.057 99.9179C496.361 100.032 496.59 100.241 496.742 100.489C496.951 100.831 497.008 101.287 496.837 101.706C496.019 103.817 493.622 106.651 493.28 107.032C492.546 107.929 491.7 108.701 490.742 109.346C490.426 110.493 489.936 111.566 489.286 112.567C488.867 113.194 488.011 113.385 487.384 112.966C486.756 112.548 486.566 111.692 486.984 111.064C487.09 110.901 487.19 110.736 487.285 110.567C486.52 110.533 485.797 110.268 485.12 109.771C485.08 109.741 485.042 109.709 485.007 109.676C484.269 109.107 483.784 108.294 483.637 107.374C483.484 106.423 483.713 105.472 484.283 104.692C485.463 103.075 487.726 102.714 489.343 103.893L489.381 103.931C489.856 104.274 490.237 104.654 490.503 105.111C490.619 105.299 490.717 105.497 490.797 105.704C490.931 105.561 491.062 105.414 491.188 105.263C491.188 105.253 491.193 105.248 491.197 105.244C491.202 105.239 491.207 105.234 491.207 105.225C491.873 104.464 493.737 102.143 494.288 100.698C494.554 99.994 495.353 99.6516 496.057 99.9179ZM488.315 107.599C488.426 106.696 488.118 106.377 487.783 106.138L487.745 106.1C487.346 105.814 486.794 105.89 486.509 106.29C486.376 106.48 486.318 106.708 486.357 106.937C486.395 107.165 486.509 107.374 486.699 107.507C486.736 107.535 486.772 107.565 486.806 107.596C487.13 107.825 487.535 107.965 488.315 107.599Z" fill="#00A6ED"/>
<path d="M482.962 128.944C484.018 128.944 484.874 128.093 484.874 127.042C484.874 125.992 484.018 125.14 482.962 125.14C481.906 125.14 481.05 125.992 481.05 127.042C481.05 128.093 481.906 128.944 482.962 128.944Z" fill="#00A6ED"/>
<path d="M460.926 122.248C464.007 119.604 465.871 115.914 466.175 111.863C466.385 109.086 465.833 106.385 464.635 103.969C465.282 103.056 466.061 102.162 466.898 101.268C468.838 104.502 469.751 108.268 469.466 112.11C469.086 117.036 466.822 121.525 463.075 124.74C462.771 125.006 462.39 125.139 462.01 125.139C461.534 125.139 461.078 124.949 460.755 124.568C460.165 123.884 460.241 122.838 460.926 122.248Z" fill="#00A6ED"/>
<path d="M481.469 114.032C481.355 115.04 481.887 116.01 482.8 116.448C483.618 116.847 483.961 117.817 483.561 118.616C483.295 119.225 482.705 119.567 482.078 119.567C481.849 119.567 481.602 119.529 481.374 119.415C479.167 118.369 477.874 116.048 478.178 113.633L478.635 109.962C478.73 109.277 478.521 108.611 478.045 108.098C477.57 107.584 476.961 107.337 476.238 107.337L475.211 107.356C473.138 107.432 471.16 106.291 470.133 104.446L467.831 100.261C468.668 99.4242 469.524 98.7014 470.361 98.0356L473.005 102.848C473.442 103.628 474.241 104.122 475.135 104.065L476.181 104.046C477.779 104.008 479.396 104.674 480.499 105.891C481.602 107.109 482.116 108.725 481.925 110.361L481.469 114.032Z" fill="#F70A8D"/>
<path d="M502.334 124.113C501.897 124.113 501.459 123.923 501.136 123.58C496.057 118.102 496.323 109.562 501.668 104.388C502.391 105.434 502.981 106.443 503.418 107.394C499.918 111.35 499.88 117.399 503.551 121.355C504.16 122.021 504.122 123.048 503.456 123.675C503.133 123.961 502.733 124.113 502.334 124.113Z" fill="#F70A8D"/>
<path d="M471.958 128.715C472.205 128.905 472.509 129 472.814 129C473.27 129 473.708 128.791 474.012 128.391C476.542 124.891 477.074 120.441 475.401 116.465C475.077 115.723 474.221 115.362 473.479 115.685C472.738 116.009 472.395 116.865 472.7 117.607C473.955 120.612 473.556 124.017 471.634 126.66C471.159 127.326 471.311 128.239 471.958 128.715Z" fill="#F70A8D"/>
<path d="M489.629 120.172C490.521 120.172 491.245 119.448 491.245 118.555C491.245 117.662 490.521 116.938 489.629 116.938C488.736 116.938 488.012 117.662 488.012 118.555C488.012 119.448 488.736 120.172 489.629 120.172Z" fill="#F70A8D"/>
<path d="M3 167C3 155.954 11.9543 147 23 147H47C58.0457 147 67 155.954 67 167V191C67 202.046 58.0457 211 47 211H23C11.9543 211 3 202.046 3 191V167Z" fill="white"/>
<path d="M34.2594 199C47.1012 199 53.5183 190.377 53.5183 179.741C53.5183 169.104 47.1012 160.482 34.2594 160.482C21.4175 160.482 15.0005 169.104 15.0005 179.741C15.0005 190.377 21.4175 199 34.2594 199Z" fill="#FFB02E"/>
<path d="M17.9634 160.482H35.7408L15.0005 179.741V163.445C15.0005 161.808 16.327 160.482 17.9634 160.482Z" fill="#BB1D80"/>
<path d="M15.0005 168.503L23.0214 160.482H18.8312L15.0005 164.313V168.503Z" fill="#5092FF"/>
<path d="M15.0005 175.91L30.4286 160.482H26.2385L15.0005 171.72V175.91Z" fill="#5092FF"/>
<path d="M52.7775 164.557C52.7775 163.943 52.28 163.446 51.6664 163.446C51.0528 163.446 50.5553 163.943 50.5553 164.557C50.5553 166.485 48.9391 167.89 47.2221 167.89C46.6084 167.89 46.111 168.387 46.111 169.001C46.111 169.615 46.6084 170.112 47.2221 170.112C50.0635 170.112 52.7775 167.813 52.7775 164.557Z" fill="#F70A8D"/>
<path d="M26.1112 192.703C26.1112 192.089 25.6137 191.592 25.0001 191.592C24.3865 191.592 23.889 192.089 23.889 192.703C23.889 194.631 22.2728 196.036 20.5557 196.036C19.9421 196.036 19.4446 196.533 19.4446 197.147C19.4446 197.761 19.9421 198.258 20.5557 198.258C23.3971 198.258 26.1112 195.959 26.1112 192.703Z" fill="#F70A8D"/>
<path d="M25.3431 177.06C25.4142 176.693 25.5773 176.244 25.8874 175.906C26.153 175.617 26.6252 175.295 27.5924 175.295C28.5432 175.295 29.0273 175.624 29.3069 175.931C29.63 176.285 29.7857 176.738 29.8365 177.03C29.9765 177.836 30.7435 178.376 31.5495 178.236C32.3557 178.096 32.8957 177.329 32.7557 176.523C32.6387 175.849 32.3034 174.82 31.4972 173.935C30.6473 173.002 29.3636 172.332 27.5924 172.332C25.8379 172.332 24.5596 172.971 23.7045 173.903C22.8938 174.786 22.5659 175.819 22.4346 176.494C22.2784 177.297 22.8029 178.075 23.6061 178.231C24.4092 178.387 25.1869 177.863 25.3431 177.06Z" fill="#402A32"/>
<path d="M40.1584 177.06C40.2297 176.693 40.3928 176.244 40.7027 175.906C40.9683 175.617 41.4405 175.295 42.4079 175.295C43.3585 175.295 43.8427 175.624 44.1222 175.931C44.4455 176.285 44.6012 176.738 44.6518 177.03C44.7918 177.836 45.5588 178.376 46.365 178.236C47.171 178.096 47.711 177.329 47.571 176.523C47.454 175.849 47.1189 174.82 46.3125 173.935C45.4628 173.002 44.179 172.332 42.4079 172.332C40.6534 172.332 39.3749 172.971 38.5199 173.903C37.7091 174.786 37.3813 175.819 37.25 176.494C37.0939 177.297 37.6183 178.075 38.4214 178.231C39.2245 178.387 40.0023 177.863 40.1584 177.06Z" fill="#402A32"/>
<path d="M47.5929 160.481C47.5929 161.3 46.9297 161.963 46.1115 161.963C45.2933 161.963 44.63 161.3 44.63 160.481C44.63 159.663 45.2933 159 46.1115 159C46.9297 159 47.5929 159.663 47.5929 160.481Z" fill="#00A6ED"/>
<path d="M23.8894 187.147C24.7075 187.147 25.3708 186.484 25.3708 185.666C25.3708 184.847 24.7075 184.184 23.8894 184.184C23.0712 184.184 22.4079 184.847 22.4079 185.666C22.4079 186.484 23.0712 187.147 23.8894 187.147Z" fill="#00A6ED"/>
<path d="M49.0737 199C49.8919 199 50.5551 198.337 50.5551 197.519C50.5551 196.7 49.8919 196.037 49.0737 196.037C48.2555 196.037 47.5922 196.7 47.5922 197.519C47.5922 198.337 48.2555 199 49.0737 199Z" fill="#00A6ED"/>
<path d="M49.5498 175.296C46.8324 175.296 44.6293 177.499 44.6293 180.217V180.407C44.6293 182.494 46.3207 184.185 48.407 184.185C50.0026 184.185 51.2959 182.892 51.2959 181.296V180.852C51.2959 180.238 50.7984 179.741 50.1848 179.741C49.5712 179.741 49.0737 180.238 49.0737 180.852V181.296C49.0737 181.664 48.7752 181.963 48.407 181.963C47.5479 181.963 46.8515 181.267 46.8515 180.407V180.217C46.8515 178.727 48.0596 177.519 49.5498 177.519H49.8144C51.4508 177.519 52.7773 178.845 52.7773 180.481V181.016C52.7773 183.585 50.6954 185.667 48.1272 185.667H38.7035C38.0899 185.667 37.5924 186.164 37.5924 186.778C37.5924 187.391 38.0899 187.889 38.7035 187.889H48.1272C51.9227 187.889 54.9995 184.812 54.9995 181.016V180.481C54.9995 177.618 52.6781 175.296 49.8144 175.296H49.5498Z" fill="#00A6ED"/>
<path d="M36.7333 181.102C35.9151 181.102 35.2518 181.765 35.2518 182.584C35.2518 183.402 35.9151 184.065 36.7333 184.065C37.1595 184.065 37.5036 184.409 37.5036 184.835C37.5036 185.262 37.1595 185.606 36.7333 185.606C35.9151 185.606 35.2518 186.269 35.2518 187.087C35.2518 187.905 35.9151 188.569 36.7333 188.569C37.1595 188.569 37.5036 188.913 37.5036 189.339C37.5036 189.765 37.1595 190.109 36.7333 190.109C35.9151 190.109 35.2518 190.773 35.2518 191.591C35.2518 192.409 35.9151 193.072 36.7333 193.072C38.7959 193.072 40.4666 191.402 40.4666 189.339C40.4666 188.493 40.1855 187.713 39.7118 187.087C40.1855 186.461 40.4666 185.681 40.4666 184.835C40.4666 182.773 38.7959 181.102 36.7333 181.102Z" fill="#402A32"/>
<path d="M67 167C67 155.954 75.9543 147 87 147H111C122.046 147 131 155.954 131 167V191C131 202.046 122.046 211 111 211H87C75.9543 211 67 202.046 67 191V167Z" fill="white"/>
<path d="M94.84 183.066L94.8375 183.069L94.8335 183.073L94.8227 183.086C94.8144 183.096 94.8038 183.108 94.791 183.124C94.7656 183.155 94.7316 183.197 94.6903 183.251C94.6078 183.359 94.496 183.513 94.3651 183.712C94.1034 184.111 93.7645 184.694 93.429 185.461C92.7566 186.998 92.1019 189.264 92.1019 192.254C92.1019 193.684 91.779 194.611 91.3587 195.225C90.94 195.837 90.3633 196.227 89.6952 196.478C88.5208 196.918 87.2379 196.886 86.282 196.862C86.0842 196.857 85.9003 196.852 85.7344 196.852C85.1483 196.852 84.6732 197.328 84.6732 197.914C84.6732 198.5 85.1483 198.975 85.7344 198.975C85.8328 198.975 85.9613 198.979 86.1149 198.984C87.0281 199.013 88.8276 199.07 90.4404 198.465C91.4232 198.097 92.3941 197.47 93.1103 196.424C93.825 195.38 94.2243 194.007 94.2243 192.254C94.2243 189.583 94.8077 187.605 95.3735 186.312C95.657 185.664 95.9372 185.185 96.1397 184.877C96.241 184.722 96.3226 184.611 96.3756 184.542C96.402 184.507 96.4213 184.483 96.432 184.47L96.4416 184.458L96.4402 184.46L96.4392 184.461L96.4416 184.458C96.8235 184.017 96.7778 183.35 96.3382 182.965C95.8971 182.579 95.2259 182.625 94.84 183.066Z" fill="#3F5FFF"/>
<path d="M97.1175 183.183L94.6607 182.131C94.045 181.867 93.3352 182.185 93.1234 182.821C92.9433 183.361 93.1879 183.952 93.6976 184.207L96.0884 185.402C96.6402 185.678 97.3112 185.5 97.6535 184.987C98.0779 184.35 97.8206 183.485 97.1175 183.183Z" fill="#3F5FFF"/>
<path d="M113.327 171.735C113.327 178.768 107.625 184.47 100.592 184.47C93.5586 184.47 87.8571 178.768 87.8571 171.735C87.8571 164.702 93.5586 159 100.592 159C107.625 159 113.327 164.702 113.327 171.735Z" fill="#F8312F"/>
<path d="M96.6413 186.801L92.3182 184.879C91.7943 184.646 91.5328 184.054 91.7142 183.51C91.922 182.886 92.622 182.577 93.2227 182.844L97.5456 184.765C98.0696 184.998 98.3311 185.591 98.1498 186.135C97.942 186.759 97.242 187.067 96.6413 186.801Z" fill="#CA0B4A"/>
<path d="M109.311 165.844C110.581 167.114 110.874 168.88 109.966 169.788C109.058 170.696 107.293 170.403 106.023 169.133C104.753 167.863 104.46 166.097 105.368 165.189C106.276 164.281 108.041 164.574 109.311 165.844Z" fill="#FF8687"/>
<path d="M131 167C131 155.954 139.954 147 151 147H175C186.046 147 195 155.954 195 167V191C195 202.046 186.046 211 175 211H151C139.954 211 131 202.046 131 191V167Z" fill="white"/>
<path d="M152.277 171.856V166.084C152.277 165.67 152.449 165.27 152.734 164.984L153.706 164.027L154.677 164.984C154.963 165.27 155.134 165.67 155.134 166.084V171.856H152.277ZM161.564 171.856V166.084C161.564 165.67 161.735 165.27 162.021 164.984L162.992 164.027L163.964 164.984C164.25 165.27 164.421 165.67 164.421 166.084V171.856H161.564ZM170.85 166.084V171.856H173.707V166.084C173.707 165.67 173.55 165.27 173.25 164.984L172.279 164.027L171.307 164.984C171.022 165.27 170.85 165.67 170.85 166.084Z" fill="#26EAFC"/>
<path d="M155.536 161.468L154.25 159.311C154.007 158.896 153.393 158.896 153.15 159.311L151.878 161.468C151.635 161.868 151.521 162.34 151.578 162.84C151.693 163.825 152.478 164.611 153.464 164.711C154.75 164.854 155.85 163.854 155.85 162.582C155.836 162.182 155.721 161.797 155.536 161.468ZM164.822 161.468L163.551 159.311C163.308 158.896 162.693 158.896 162.451 159.311L161.179 161.468C160.936 161.854 160.822 162.34 160.879 162.84C160.993 163.811 161.779 164.597 162.765 164.711C164.051 164.854 165.151 163.854 165.151 162.582C165.136 162.182 165.022 161.797 164.822 161.468ZM172.837 159.311L174.109 161.468C174.309 161.797 174.423 162.182 174.423 162.582C174.423 163.854 173.337 164.854 172.037 164.711C171.066 164.611 170.28 163.825 170.165 162.84C170.108 162.34 170.223 161.854 170.465 161.468L171.737 159.311C171.98 158.896 172.594 158.896 172.837 159.311Z" fill="#FCD53F"/>
<path d="M153.706 160.624L154.578 161.738C154.792 161.967 154.921 162.252 154.921 162.581C154.921 163.252 154.378 163.795 153.706 163.795C153.035 163.795 152.492 163.252 152.492 162.581C152.492 162.252 152.621 161.967 152.835 161.738L153.706 160.624ZM163.864 161.738L162.993 160.624L162.121 161.752C161.907 161.967 161.778 162.267 161.778 162.595C161.778 163.267 162.321 163.81 162.993 163.81C163.664 163.81 164.207 163.267 164.207 162.595C164.207 162.252 164.079 161.967 163.864 161.738ZM173.151 161.738L172.279 160.624L171.408 161.752C171.193 161.967 171.065 162.267 171.065 162.595C171.065 163.267 171.608 163.81 172.279 163.81C172.951 163.81 173.494 163.267 173.494 162.595C173.494 162.252 173.365 161.967 173.151 161.738Z" fill="#FFB02E"/>
<path d="M179.781 199H146.206C145.22 199 144.42 198.2 144.42 197.214V177.57H181.566V197.214C181.566 198.2 180.766 199 179.781 199Z" fill="#D3883E"/>
<path d="M142.991 173.288C142.991 170.921 144.91 169.002 147.277 169.002H178.723C181.09 169.002 183.009 170.921 183.009 173.288V180.428V181.228C183.009 182.399 181.523 182.942 180.78 182.028C180.051 181.128 178.737 180.985 177.837 181.699L177.494 181.971C175.422 183.585 172.522 183.585 170.451 181.971L169.793 181.456C169.022 180.856 167.95 180.856 167.179 181.456L166.522 181.971C164.45 183.585 161.55 183.585 159.478 181.971L158.821 181.456C158.05 180.856 156.978 180.856 156.207 181.456L155.549 181.971C153.478 183.585 150.578 183.585 148.506 181.971L148.163 181.699C147.263 180.999 145.949 181.142 145.22 182.028C144.463 182.928 142.991 182.399 142.991 181.228V173.288ZM144.42 187.571H181.566V190.429H144.42V187.571Z" fill="#FFDEA7"/>
<path d="M161.779 172.073C161.493 172.359 161.493 172.802 161.779 173.088L162.836 174.145C163.121 174.431 163.564 174.431 163.85 174.145C164.136 173.859 164.136 173.416 163.85 173.13L162.793 172.073C162.507 171.787 162.05 171.787 161.779 172.073Z" fill="#00A6ED"/>
<path d="M149.925 172.068C149.646 171.789 149.194 171.789 148.915 172.068C148.636 172.347 148.636 172.799 148.915 173.078L150.343 174.507C150.622 174.786 151.075 174.786 151.354 174.507C151.633 174.228 151.633 173.776 151.354 173.497L149.925 172.068ZM168.498 176.354C168.219 176.075 167.767 176.075 167.488 176.354C167.209 176.633 167.209 177.085 167.488 177.364L168.916 178.793C169.195 179.072 169.648 179.072 169.927 178.793C170.205 178.514 170.205 178.062 169.927 177.783L168.498 176.354Z" fill="#FF6DC6"/>
<path d="M177.071 173.078C177.349 172.799 177.349 172.347 177.071 172.068C176.792 171.789 176.339 171.789 176.06 172.068L174.631 173.497C174.353 173.776 174.353 174.228 174.631 174.507C174.911 174.786 175.363 174.786 175.642 174.507L177.071 173.078ZM157.069 177.364C157.348 177.085 157.348 176.633 157.069 176.354C156.79 176.075 156.338 176.075 156.059 176.354L154.63 177.783C154.351 178.062 154.351 178.514 154.63 178.793C154.909 179.072 155.361 179.072 155.64 178.793L157.069 177.364Z" fill="#FF822D"/>
<path d="M161.773 172.068C162.052 171.789 162.505 171.789 162.784 172.068L164.212 173.497C164.491 173.776 164.491 174.228 164.212 174.507C163.933 174.786 163.481 174.786 163.202 174.507L161.773 173.078C161.494 172.799 161.494 172.347 161.773 172.068Z" fill="#00A6ED"/>
<path d="M195 167C195 155.954 203.954 147 215 147H239C250.046 147 259 155.954 259 167V191C259 202.046 250.046 211 239 211H215C203.954 211 195 202.046 195 191V167Z" fill="white"/>
<path d="M208.503 175.472H214.515V178.028H214.839C215.775 175.976 217.935 175.04 221.715 175.04C225.819 175.04 228.087 176.084 229.455 178.604C230.535 176.048 232.623 175.04 236.799 175.04C240.327 175.04 242.415 175.688 243.891 177.236C245.367 178.748 245.691 180.152 245.691 184.544V192.5H239.319V184.544C239.283 181.7 239.211 181.376 238.599 180.764C237.951 180.116 236.871 179.828 234.999 179.828C233.091 179.828 231.903 180.152 231.219 180.908C230.499 181.7 230.283 182.708 230.283 185.48V192.5H223.911V184.544C223.911 181.88 223.839 181.412 223.227 180.764C222.651 180.116 221.535 179.828 219.699 179.828C217.791 179.828 216.531 180.152 215.811 180.872C215.091 181.592 214.875 182.672 214.875 185.48V192.5H208.503V175.472Z" fill="black"/>
<path d="M259 167C259 155.954 267.954 147 279 147H303C314.046 147 323 155.954 323 167V191C323 202.046 314.046 211 303 211H279C267.954 211 259 202.046 259 191V167Z" fill="white"/>
<path d="M288.194 175.472H294.566V192.5H288.194V175.472ZM288.194 168.488H294.566V173.276H288.194V168.488Z" fill="black"/>
<path d="M323 167C323 155.954 331.954 147 343 147H367C378.046 147 387 155.954 387 167V191C387 202.046 378.046 211 367 211H343C331.954 211 323 202.046 323 191V167Z" fill="white"/>
<path d="M343.143 175.472H351.711L354.915 180.008H355.203L358.623 175.472H366.795L359.955 183.356L367.515 192.5H359.343L355.275 186.74H354.951L350.775 192.5H342.891L350.199 183.716L343.143 175.472Z" fill="black"/>
<path d="M387 167C387 155.954 395.954 147 407 147H431C442.046 147 451 155.954 451 167V191C451 202.046 442.046 211 431 211H407C395.954 211 387 202.046 387 191V167Z" fill="white"/>
<path d="M424.071 187.064H430.407C429.939 191.78 427.599 192.932 418.491 192.932C413.559 192.932 411.219 192.5 409.671 191.348C408.015 190.088 407.511 188.396 407.511 184.04C407.511 179.468 408.015 177.776 409.815 176.516C411.471 175.364 413.595 175.004 419.139 175.004C424.899 175.004 426.915 175.364 428.463 176.624C429.975 177.884 430.551 179.792 430.551 183.644C430.551 183.86 430.551 184.652 430.515 185.372H413.883C413.883 187.1 414.063 187.676 414.675 188.144C415.359 188.648 416.691 188.864 418.995 188.864C423.063 188.864 423.819 188.576 424.071 187.064ZM413.883 181.88H424.143C424.107 180.548 424.035 180.224 423.639 179.828C423.063 179.216 421.767 178.964 419.247 178.964C414.963 178.964 413.955 179.504 413.883 181.88Z" fill="black"/>
<path d="M451 167C451 155.954 459.954 147 471 147H495C506.046 147 515 155.954 515 167V191C515 202.046 506.046 211 495 211H471C459.954 211 451 202.046 451 191V167Z" fill="white"/>
<path d="M473.995 175.472H480.007V178.028H480.331C481.519 175.868 483.319 175.04 486.883 175.04C492.031 175.04 493.759 176.768 493.759 181.88V183.032H487.747C487.747 180.512 487.027 179.828 484.399 179.828C482.959 179.828 481.771 180.26 481.159 181.052C480.547 181.88 480.367 182.816 480.367 185.444V192.5H473.995V175.472Z" fill="black"/>
<path d="M3 237C3 225.954 11.9543 217 23 217H47C58.0457 217 67 225.954 67 237V261C67 272.046 58.0457 281 47 281H23C11.9543 281 3 272.046 3 261V237Z" fill="white"/>
<path d="M24.2777 241.856V236.084C24.2777 235.67 24.4492 235.27 24.7349 234.984L25.7064 234.027L26.6779 234.984C26.9636 235.27 27.1351 235.67 27.1351 236.084V241.856H24.2777ZM33.5642 241.856V236.084C33.5642 235.67 33.7356 235.27 34.0214 234.984L34.9929 234.027L35.9644 234.984C36.2501 235.27 36.4216 235.67 36.4216 236.084V241.856H33.5642ZM42.8507 236.084V241.856H45.7081V236.084C45.7081 235.67 45.5509 235.27 45.2509 234.984L44.2794 234.027L43.3079 234.984C43.0221 235.27 42.8507 235.67 42.8507 236.084Z" fill="#26EAFC"/>
<path d="M27.5356 231.468L26.2497 229.311C26.0069 228.896 25.3925 228.896 25.1496 229.311L23.8781 231.468C23.6352 231.868 23.5209 232.34 23.5781 232.84C23.6924 233.825 24.4782 234.611 25.464 234.711C26.7498 234.854 27.8499 233.854 27.8499 232.582C27.8356 232.182 27.7213 231.797 27.5356 231.468ZM36.8221 231.468L35.5505 229.311C35.3076 228.896 34.6933 228.896 34.4504 229.311L33.1789 231.468C32.936 231.854 32.8217 232.34 32.8789 232.84C32.9932 233.811 33.7789 234.597 34.7647 234.711C36.0506 234.854 37.1507 233.854 37.1507 232.582C37.1364 232.182 37.0221 231.797 36.8221 231.468ZM44.837 229.311L46.1085 231.468C46.3086 231.797 46.4228 232.182 46.4228 232.582C46.4228 233.854 45.337 234.854 44.0369 234.711C43.0654 234.611 42.2796 233.825 42.1654 232.84C42.1082 232.34 42.2225 231.854 42.4654 231.468L43.7369 229.311C43.9798 228.896 44.5941 228.896 44.837 229.311Z" fill="#FCD53F"/>
<path d="M25.7062 230.624L26.5777 231.738C26.792 231.967 26.9206 232.252 26.9206 232.581C26.9206 233.252 26.3777 233.795 25.7062 233.795C25.0347 233.795 24.4918 233.252 24.4918 232.581C24.4918 232.252 24.6204 231.967 24.8347 231.738L25.7062 230.624ZM35.8642 231.738L34.9927 230.624L34.1212 231.752C33.9069 231.967 33.7783 232.267 33.7783 232.595C33.7783 233.267 34.3212 233.81 34.9927 233.81C35.6642 233.81 36.2071 233.267 36.2071 232.595C36.2071 232.252 36.0785 231.967 35.8642 231.738ZM45.1507 231.738L44.2792 230.624L43.4077 231.752C43.1934 231.967 43.0648 232.267 43.0648 232.595C43.0648 233.267 43.6077 233.81 44.2792 233.81C44.9507 233.81 45.4936 233.267 45.4936 232.595C45.4936 232.252 45.365 231.967 45.1507 231.738Z" fill="#FFB02E"/>
<path d="M51.7801 269H18.2059C17.2201 269 16.42 268.2 16.42 267.214V247.57H53.566V267.214C53.566 268.2 52.7659 269 51.7801 269Z" fill="#D3883E"/>
<path d="M14.9912 243.288C14.9912 240.921 16.9101 239.002 19.2773 239.002H50.7227C53.0899 239.002 55.0088 240.921 55.0088 243.288V250.428V251.228C55.0088 252.399 53.523 252.942 52.78 252.028C52.0514 251.128 50.737 250.985 49.8369 251.699L49.4941 251.971C47.4225 253.585 44.5222 253.585 42.4506 251.971L41.7934 251.456C41.0219 250.856 39.9504 250.856 39.1789 251.456L38.5217 251.971C36.4501 253.585 33.5499 253.585 31.4783 251.971L30.8211 251.456C30.0496 250.856 28.9781 250.856 28.2066 251.456L27.5494 251.971C25.4778 253.585 22.5776 253.585 20.506 251.971L20.1631 251.699C19.263 250.999 17.9486 251.142 17.22 252.028C16.4628 252.928 14.9912 252.399 14.9912 251.228V243.288ZM16.4199 257.571H53.5658V260.429H16.4199V257.571Z" fill="#FFDEA7"/>
<path d="M33.7784 242.073C33.4927 242.359 33.4927 242.802 33.7784 243.088L34.8356 244.145C35.1214 244.431 35.5643 244.431 35.85 244.145C36.1357 243.859 36.1357 243.416 35.85 243.13L34.7928 242.073C34.507 241.787 34.0498 241.787 33.7784 242.073Z" fill="#00A6ED"/>
<path d="M21.9254 242.068C21.6464 241.789 21.1941 241.789 20.9152 242.068C20.6362 242.347 20.6362 242.799 20.9152 243.078L22.3439 244.507C22.6228 244.786 23.0751 244.786 23.3541 244.507C23.6331 244.228 23.6331 243.776 23.3541 243.497L21.9254 242.068ZM40.4984 246.354C40.2194 246.075 39.7671 246.075 39.4881 246.354C39.2092 246.633 39.2092 247.085 39.4881 247.364L40.9167 248.793C41.1958 249.072 41.6481 249.072 41.9271 248.793C42.206 248.514 42.206 248.062 41.9271 247.783L40.4984 246.354Z" fill="#FF6DC6"/>
<path d="M49.0705 243.078C49.3494 242.799 49.3494 242.347 49.0705 242.068C48.7915 241.789 48.3392 241.789 48.0602 242.068L46.6315 243.497C46.3526 243.776 46.3526 244.228 46.6315 244.507C46.9105 244.786 47.3628 244.786 47.6419 244.507L49.0705 243.078ZM29.0689 247.364C29.3478 247.085 29.3478 246.633 29.0689 246.354C28.7899 246.075 28.3375 246.075 28.0585 246.354L26.6298 247.783C26.3509 248.062 26.3509 248.514 26.6298 248.793C26.9089 249.072 27.3612 249.072 27.6402 248.793L29.0689 247.364Z" fill="#FF822D"/>
<path d="M33.7732 242.068C34.0523 241.789 34.5046 241.789 34.7836 242.068L36.2123 243.497C36.4912 243.776 36.4912 244.228 36.2123 244.507C35.9333 244.786 35.481 244.786 35.2019 244.507L33.7732 243.078C33.4944 242.799 33.4944 242.347 33.7732 242.068Z" fill="#00A6ED"/>
<path d="M67 237C67 225.954 75.9543 217 87 217H111C122.046 217 131 225.954 131 237V261C131 272.046 122.046 281 111 281H87C75.9543 281 67 272.046 67 261V237Z" fill="white"/>
<path d="M98.2594 269C111.101 269 117.518 260.377 117.518 249.741C117.518 239.104 111.101 230.482 98.2594 230.482C85.4176 230.482 79.0005 239.104 79.0005 249.741C79.0005 260.377 85.4176 269 98.2594 269Z" fill="#FFB02E"/>
<path d="M81.9634 230.482H99.7409L79.0005 249.741V233.445C79.0005 231.808 80.327 230.482 81.9634 230.482Z" fill="#BB1D80"/>
<path d="M79.0005 238.503L87.0214 230.482H82.8312L79.0005 234.313V238.503Z" fill="#5092FF"/>
<path d="M79.0005 245.91L94.4287 230.482H90.2385L79.0005 241.72V245.91Z" fill="#5092FF"/>
<path d="M116.778 234.557C116.778 233.943 116.28 233.446 115.666 233.446C115.053 233.446 114.555 233.943 114.555 234.557C114.555 236.485 112.939 237.89 111.222 237.89C110.608 237.89 110.111 238.387 110.111 239.001C110.111 239.615 110.608 240.112 111.222 240.112C114.064 240.112 116.778 237.813 116.778 234.557Z" fill="#F70A8D"/>
<path d="M90.1112 262.703C90.1112 262.089 89.6137 261.592 89.0001 261.592C88.3865 261.592 87.889 262.089 87.889 262.703C87.889 264.631 86.2728 266.036 84.5557 266.036C83.9421 266.036 83.4446 266.533 83.4446 267.147C83.4446 267.761 83.9421 268.258 84.5557 268.258C87.3971 268.258 90.1112 265.959 90.1112 262.703Z" fill="#F70A8D"/>
<path d="M89.3431 247.06C89.4142 246.693 89.5773 246.244 89.8874 245.906C90.153 245.617 90.6252 245.295 91.5924 245.295C92.5432 245.295 93.0273 245.624 93.3069 245.931C93.63 246.285 93.7857 246.738 93.8365 247.03C93.9765 247.836 94.7435 248.376 95.5495 248.236C96.3557 248.096 96.8957 247.329 96.7557 246.523C96.6387 245.849 96.3034 244.82 95.4972 243.935C94.6473 243.002 93.3636 242.332 91.5924 242.332C89.8379 242.332 88.5596 242.971 87.7045 243.903C86.8938 244.786 86.5659 245.819 86.4346 246.494C86.2784 247.297 86.8029 248.075 87.6061 248.231C88.4092 248.387 89.1869 247.863 89.3431 247.06Z" fill="#402A32"/>
<path d="M104.158 247.06C104.23 246.693 104.393 246.244 104.703 245.906C104.968 245.617 105.441 245.295 106.408 245.295C107.359 245.295 107.843 245.624 108.122 245.931C108.446 246.285 108.601 246.738 108.652 247.03C108.792 247.836 109.559 248.376 110.365 248.236C111.171 248.096 111.711 247.329 111.571 246.523C111.454 245.849 111.119 244.82 110.313 243.935C109.463 243.002 108.179 242.332 106.408 242.332C104.653 242.332 103.375 242.971 102.52 243.903C101.709 244.786 101.381 245.819 101.25 246.494C101.094 247.297 101.618 248.075 102.421 248.231C103.225 248.387 104.002 247.863 104.158 247.06Z" fill="#402A32"/>
<path d="M111.593 230.481C111.593 231.3 110.93 231.963 110.111 231.963C109.293 231.963 108.63 231.3 108.63 230.481C108.63 229.663 109.293 229 110.111 229C110.93 229 111.593 229.663 111.593 230.481Z" fill="#00A6ED"/>
<path d="M87.8894 257.147C88.7075 257.147 89.3708 256.484 89.3708 255.666C89.3708 254.847 88.7075 254.184 87.8894 254.184C87.0712 254.184 86.4079 254.847 86.4079 255.666C86.4079 256.484 87.0712 257.147 87.8894 257.147Z" fill="#00A6ED"/>
<path d="M113.074 269C113.892 269 114.555 268.337 114.555 267.519C114.555 266.7 113.892 266.037 113.074 266.037C112.255 266.037 111.592 266.7 111.592 267.519C111.592 268.337 112.255 269 113.074 269Z" fill="#00A6ED"/>
<path d="M113.55 245.296C110.832 245.296 108.629 247.499 108.629 250.217V250.407C108.629 252.494 110.321 254.185 112.407 254.185C114.003 254.185 115.296 252.892 115.296 251.296V250.852C115.296 250.238 114.798 249.741 114.185 249.741C113.571 249.741 113.074 250.238 113.074 250.852V251.296C113.074 251.664 112.775 251.963 112.407 251.963C111.548 251.963 110.852 251.267 110.852 250.407V250.217C110.852 248.727 112.06 247.519 113.55 247.519H113.814C115.451 247.519 116.777 248.845 116.777 250.481V251.016C116.777 253.585 114.695 255.667 112.127 255.667H102.704C102.09 255.667 101.592 256.164 101.592 256.778C101.592 257.391 102.09 257.889 102.704 257.889H112.127C115.923 257.889 119 254.812 119 251.016V250.481C119 247.618 116.678 245.296 113.814 245.296H113.55Z" fill="#00A6ED"/>
<path d="M100.733 251.102C99.9151 251.102 99.2519 251.765 99.2519 252.584C99.2519 253.402 99.9151 254.065 100.733 254.065C101.16 254.065 101.504 254.409 101.504 254.835C101.504 255.262 101.16 255.606 100.733 255.606C99.9151 255.606 99.2519 256.269 99.2519 257.087C99.2519 257.905 99.9151 258.569 100.733 258.569C101.16 258.569 101.504 258.913 101.504 259.339C101.504 259.765 101.16 260.109 100.733 260.109C99.9151 260.109 99.2519 260.773 99.2519 261.591C99.2519 262.409 99.9151 263.072 100.733 263.072C102.796 263.072 104.467 261.402 104.467 259.339C104.467 258.493 104.186 257.713 103.712 257.087C104.186 256.461 104.467 255.681 104.467 254.835C104.467 252.773 102.796 251.102 100.733 251.102Z" fill="#402A32"/>
<path d="M131 237C131 225.954 139.954 217 151 217H175C186.046 217 195 225.954 195 237V261C195 272.046 186.046 281 175 281H151C139.954 281 131 272.046 131 261V237Z" fill="white"/>
<path d="M140.032 250.608C135.087 245.662 135.087 237.654 140.032 232.709C144.978 227.764 152.986 227.764 157.931 232.709L160.251 235.03L142.353 252.928L140.032 250.608Z" fill="#F9C23C"/>
<path d="M185.968 250.608C190.913 245.662 190.913 237.654 185.968 232.709C181.041 227.764 173.014 227.764 168.069 232.709L165.749 235.03L183.647 252.928L185.968 250.608Z" fill="#F9C23C"/>
<path d="M154.774 247.451C149.829 252.396 144.236 254.812 142.277 252.871C140.337 250.912 142.753 245.32 147.698 240.375C152.644 235.429 158.255 233.033 160.195 234.973C162.135 236.913 159.719 242.505 154.774 247.451Z" fill="#6D4534"/>
<path d="M171.246 247.45C176.191 252.395 181.764 254.83 183.724 252.871C185.683 250.911 183.248 245.338 178.303 240.393C173.357 235.448 167.765 233.032 165.825 234.972C163.885 236.912 166.301 242.504 171.246 247.45Z" fill="#6D4534"/>
<path d="M155.779 252.721C155.779 253.467 155.174 254.072 154.429 254.072C153.683 254.072 153.078 253.467 153.078 252.721C153.078 251.976 153.683 251.371 154.429 251.371C155.174 251.371 155.779 251.976 155.779 252.721Z" fill="#F9C23C"/>
<path d="M148.705 265.463C149.451 265.463 150.056 264.859 150.056 264.113C150.056 263.367 149.451 262.762 148.705 262.762C147.96 262.762 147.355 263.367 147.355 264.113C147.355 264.859 147.96 265.463 148.705 265.463Z" fill="#F9C23C"/>
<path d="M176.266 267.04C177.317 267.04 178.169 266.189 178.169 265.138C178.169 264.088 177.317 263.236 176.266 263.236C175.216 263.236 174.364 264.088 174.364 265.138C174.364 266.189 175.216 267.04 176.266 267.04Z" fill="#F9C23C"/>
<path d="M176.057 239.918C176.361 240.032 176.59 240.241 176.742 240.489C176.951 240.831 177.008 241.287 176.837 241.706C176.019 243.817 173.622 246.651 173.28 247.032C172.546 247.929 171.7 248.701 170.742 249.346C170.426 250.493 169.936 251.566 169.286 252.567C168.867 253.194 168.011 253.385 167.384 252.966C166.756 252.548 166.566 251.692 166.984 251.064C167.09 250.901 167.19 250.736 167.285 250.567C166.52 250.533 165.797 250.268 165.12 249.771C165.08 249.741 165.042 249.709 165.007 249.676C164.269 249.107 163.784 248.294 163.637 247.374C163.484 246.423 163.713 245.472 164.283 244.692C165.463 243.075 167.726 242.714 169.343 243.893L169.381 243.931C169.856 244.274 170.237 244.654 170.503 245.111C170.619 245.299 170.717 245.497 170.797 245.704C170.931 245.561 171.062 245.414 171.188 245.263C171.188 245.253 171.193 245.248 171.197 245.244C171.202 245.239 171.207 245.234 171.207 245.225C171.873 244.464 173.737 242.143 174.288 240.698C174.554 239.994 175.353 239.652 176.057 239.918ZM168.315 247.599C168.426 246.696 168.118 246.377 167.783 246.138L167.745 246.1C167.346 245.814 166.794 245.89 166.509 246.29C166.376 246.48 166.318 246.708 166.357 246.937C166.395 247.165 166.509 247.374 166.699 247.507C166.736 247.535 166.772 247.565 166.806 247.596C167.13 247.825 167.535 247.965 168.315 247.599Z" fill="#00A6ED"/>
<path d="M162.962 268.944C164.018 268.944 164.874 268.093 164.874 267.042C164.874 265.992 164.018 265.14 162.962 265.14C161.906 265.14 161.05 265.992 161.05 267.042C161.05 268.093 161.906 268.944 162.962 268.944Z" fill="#00A6ED"/>
<path d="M140.926 262.248C144.007 259.604 145.871 255.914 146.175 251.863C146.385 249.086 145.833 246.385 144.635 243.969C145.282 243.056 146.061 242.162 146.898 241.268C148.838 244.502 149.751 248.268 149.466 252.11C149.086 257.036 146.822 261.525 143.075 264.74C142.771 265.006 142.39 265.139 142.01 265.139C141.534 265.139 141.078 264.949 140.755 264.568C140.165 263.884 140.241 262.838 140.926 262.248Z" fill="#00A6ED"/>
<path d="M161.469 254.032C161.355 255.04 161.887 256.01 162.8 256.448C163.618 256.847 163.961 257.817 163.561 258.616C163.295 259.225 162.705 259.567 162.078 259.567C161.849 259.567 161.602 259.529 161.374 259.415C159.167 258.369 157.874 256.048 158.178 253.633L158.635 249.962C158.73 249.277 158.521 248.611 158.045 248.098C157.57 247.584 156.961 247.337 156.238 247.337L155.211 247.356C153.138 247.432 151.16 246.291 150.133 244.446L147.831 240.261C148.668 239.424 149.524 238.701 150.361 238.036L153.005 242.848C153.442 243.628 154.241 244.122 155.135 244.065L156.181 244.046C157.779 244.008 159.396 244.674 160.499 245.891C161.602 247.109 162.116 248.725 161.925 250.361L161.469 254.032Z" fill="#F70A8D"/>
<path d="M182.334 264.113C181.897 264.113 181.459 263.923 181.136 263.58C176.057 258.102 176.323 249.562 181.668 244.388C182.391 245.434 182.981 246.443 183.418 247.394C179.918 251.35 179.88 257.399 183.551 261.355C184.16 262.021 184.122 263.048 183.456 263.675C183.133 263.961 182.733 264.113 182.334 264.113Z" fill="#F70A8D"/>
<path d="M151.958 268.715C152.205 268.905 152.509 269 152.814 269C153.27 269 153.708 268.791 154.012 268.391C156.542 264.891 157.074 260.441 155.401 256.465C155.077 255.723 154.221 255.362 153.479 255.685C152.738 256.009 152.395 256.865 152.7 257.607C153.955 260.612 153.556 264.017 151.634 266.66C151.159 267.326 151.311 268.239 151.958 268.715Z" fill="#F70A8D"/>
<path d="M169.629 260.172C170.521 260.172 171.245 259.448 171.245 258.555C171.245 257.662 170.521 256.938 169.629 256.938C168.736 256.938 168.012 257.662 168.012 258.555C168.012 259.448 168.736 260.172 169.629 260.172Z" fill="#F70A8D"/>
<path d="M195 237C195 225.954 203.954 217 215 217H239C250.046 217 259 225.954 259 237V261C259 272.046 250.046 281 239 281H215C203.954 281 195 272.046 195 261V237Z" fill="white"/>
<path d="M222.84 253.066L222.837 253.069L222.833 253.073L222.823 253.086C222.814 253.096 222.804 253.108 222.791 253.124C222.766 253.155 222.732 253.197 222.69 253.251C222.608 253.359 222.496 253.513 222.365 253.712C222.103 254.111 221.764 254.694 221.429 255.461C220.757 256.998 220.102 259.264 220.102 262.254C220.102 263.684 219.779 264.611 219.359 265.225C218.94 265.837 218.363 266.227 217.695 266.478C216.521 266.918 215.238 266.886 214.282 266.862C214.084 266.857 213.9 266.852 213.734 266.852C213.148 266.852 212.673 267.328 212.673 267.914C212.673 268.5 213.148 268.975 213.734 268.975C213.833 268.975 213.961 268.979 214.115 268.984C215.028 269.013 216.828 269.07 218.44 268.465C219.423 268.097 220.394 267.47 221.11 266.424C221.825 265.38 222.224 264.007 222.224 262.254C222.224 259.583 222.808 257.605 223.373 256.312C223.657 255.664 223.937 255.185 224.14 254.877C224.241 254.722 224.323 254.611 224.376 254.542C224.402 254.507 224.421 254.483 224.432 254.47L224.442 254.458L224.44 254.46L224.439 254.461L224.442 254.458C224.824 254.017 224.778 253.35 224.338 252.965C223.897 252.579 223.226 252.625 222.84 253.066Z" fill="#3F5FFF"/>
<path d="M225.118 253.183L222.661 252.131C222.045 251.867 221.335 252.185 221.123 252.821C220.943 253.361 221.188 253.952 221.698 254.207L224.088 255.402C224.64 255.678 225.311 255.5 225.654 254.987C226.078 254.35 225.821 253.485 225.118 253.183Z" fill="#3F5FFF"/>
<path d="M241.327 241.735C241.327 248.768 235.625 254.47 228.592 254.47C221.559 254.47 215.857 248.768 215.857 241.735C215.857 234.702 221.559 229 228.592 229C235.625 229 241.327 234.702 241.327 241.735Z" fill="#F8312F"/>
<path d="M224.641 256.801L220.318 254.879C219.794 254.646 219.533 254.054 219.714 253.51C219.922 252.886 220.622 252.577 221.223 252.844L225.546 254.765C226.07 254.998 226.331 255.591 226.15 256.135C225.942 256.759 225.242 257.067 224.641 256.801Z" fill="#CA0B4A"/>
<path d="M237.311 235.844C238.581 237.114 238.874 238.88 237.966 239.788C237.058 240.696 235.293 240.403 234.023 239.133C232.753 237.863 232.46 236.097 233.368 235.189C234.276 234.281 236.041 234.574 237.311 235.844Z" fill="#FF8687"/>
<path d="M259 237C259 225.954 267.954 217 279 217H303C314.046 217 323 225.954 323 237V261C323 272.046 314.046 281 303 281H279C267.954 281 259 272.046 259 261V237Z" fill="white"/>
<path d="M290.259 269C303.101 269 309.518 260.377 309.518 249.741C309.518 239.104 303.101 230.482 290.259 230.482C277.418 230.482 271 239.104 271 249.741C271 260.377 277.418 269 290.259 269Z" fill="#FFB02E"/>
<path d="M273.963 230.482H291.741L271 249.741V233.445C271 231.808 272.327 230.482 273.963 230.482Z" fill="#BB1D80"/>
<path d="M271 238.503L279.021 230.482H274.831L271 234.313V238.503Z" fill="#5092FF"/>
<path d="M271 245.91L286.429 230.482H282.238L271 241.72V245.91Z" fill="#5092FF"/>
<path d="M308.778 234.557C308.778 233.943 308.28 233.446 307.667 233.446C307.053 233.446 306.556 233.943 306.556 234.557C306.556 236.485 304.939 237.89 303.222 237.89C302.609 237.89 302.111 238.387 302.111 239.001C302.111 239.615 302.609 240.112 303.222 240.112C306.064 240.112 308.778 237.813 308.778 234.557Z" fill="#F70A8D"/>
<path d="M282.112 262.703C282.112 262.089 281.614 261.592 281 261.592C280.387 261.592 279.889 262.089 279.889 262.703C279.889 264.631 278.273 266.036 276.556 266.036C275.942 266.036 275.445 266.534 275.445 267.147C275.445 267.761 275.942 268.258 276.556 268.258C279.397 268.258 282.112 265.959 282.112 262.703Z" fill="#F70A8D"/>
<path d="M281.343 247.06C281.414 246.693 281.577 246.244 281.887 245.907C282.153 245.617 282.625 245.295 283.592 245.295C284.543 245.295 285.027 245.624 285.307 245.931C285.63 246.285 285.786 246.738 285.837 247.03C285.977 247.836 286.744 248.376 287.55 248.237C288.356 248.097 288.896 247.329 288.756 246.523C288.639 245.85 288.304 244.82 287.497 243.935C286.647 243.002 285.364 242.333 283.592 242.333C281.838 242.333 280.56 242.971 279.705 243.903C278.894 244.786 278.566 245.819 278.435 246.494C278.279 247.297 278.803 248.075 279.606 248.231C280.409 248.387 281.187 247.863 281.343 247.06Z" fill="#402A32"/>
<path d="M296.159 247.06C296.23 246.693 296.393 246.244 296.703 245.907C296.969 245.617 297.441 245.295 298.408 245.295C299.359 245.295 299.843 245.624 300.122 245.931C300.446 246.285 300.601 246.738 300.652 247.03C300.792 247.836 301.559 248.376 302.365 248.237C303.171 248.097 303.711 247.329 303.571 246.523C303.454 245.85 303.119 244.82 302.313 243.935C301.463 243.002 300.179 242.333 298.408 242.333C296.654 242.333 295.375 242.971 294.52 243.903C293.709 244.786 293.381 245.819 293.25 246.494C293.094 247.297 293.619 248.075 294.422 248.231C295.225 248.387 296.002 247.863 296.159 247.06Z" fill="#402A32"/>
<path d="M303.593 230.481C303.593 231.3 302.93 231.963 302.112 231.963C301.293 231.963 300.63 231.3 300.63 230.481C300.63 229.663 301.293 229 302.112 229C302.93 229 303.593 229.663 303.593 230.481Z" fill="#00A6ED"/>
<path d="M279.889 257.147C280.707 257.147 281.371 256.484 281.371 255.666C281.371 254.847 280.707 254.184 279.889 254.184C279.071 254.184 278.408 254.847 278.408 255.666C278.408 256.484 279.071 257.147 279.889 257.147Z" fill="#00A6ED"/>
<path d="M305.074 269C305.892 269 306.555 268.337 306.555 267.519C306.555 266.7 305.892 266.037 305.074 266.037C304.255 266.037 303.592 266.7 303.592 267.519C303.592 268.337 304.255 269 305.074 269Z" fill="#00A6ED"/>
<path d="M305.55 245.296C302.832 245.296 300.629 247.499 300.629 250.217V250.407C300.629 252.494 302.321 254.185 304.407 254.185C306.003 254.185 307.296 252.892 307.296 251.296V250.852C307.296 250.238 306.798 249.741 306.185 249.741C305.571 249.741 305.074 250.238 305.074 250.852V251.296C305.074 251.664 304.775 251.963 304.407 251.963C303.548 251.963 302.851 251.267 302.851 250.407V250.217C302.851 248.727 304.06 247.519 305.55 247.519H305.814C307.451 247.519 308.777 248.845 308.777 250.481V251.016C308.777 253.585 306.695 255.667 304.127 255.667H294.703C294.09 255.667 293.592 256.164 293.592 256.778C293.592 257.391 294.09 257.889 294.703 257.889H304.127C307.923 257.889 310.999 254.812 310.999 251.016V250.481C310.999 247.618 308.678 245.296 305.814 245.296H305.55Z" fill="#00A6ED"/>
<path d="M292.734 251.102C291.915 251.102 291.252 251.765 291.252 252.584C291.252 253.402 291.915 254.065 292.734 254.065C293.16 254.065 293.504 254.409 293.504 254.835C293.504 255.262 293.16 255.606 292.734 255.606C291.915 255.606 291.252 256.269 291.252 257.087C291.252 257.905 291.915 258.569 292.734 258.569C293.16 258.569 293.504 258.913 293.504 259.339C293.504 259.765 293.16 260.109 292.734 260.109C291.915 260.109 291.252 260.773 291.252 261.591C291.252 262.409 291.915 263.072 292.734 263.072C294.796 263.072 296.467 261.402 296.467 259.339C296.467 258.493 296.186 257.713 295.712 257.087C296.186 256.461 296.467 255.681 296.467 254.835C296.467 252.773 294.796 251.102 292.734 251.102Z" fill="#402A32"/>
<path d="M323 237C323 225.954 331.954 217 343 217H367C378.046 217 387 225.954 387 237V261C387 272.046 378.046 281 367 281H343C331.954 281 323 272.046 323 261V237Z" fill="white"/>
<path d="M338.752 268.875L340.934 268.291L341.519 267.023L345.3 267.123L349.232 266.07L350.117 264.697L353.797 264.848L357.638 263.82C360.306 263.109 361.21 259.758 359.254 257.802L345.438 243.971C343.481 242.014 340.131 242.904 339.419 245.587L338.274 249.866L338.434 253.342L337.129 254.145L335.958 258.52L336.154 261.852L334.874 262.569L334.364 264.472C333.638 267.141 336.084 269.587 338.752 268.875Z" fill="#F9C23C"/>
<path d="M342.831 261.689C340.636 259.64 338.767 257.173 337.117 254.192L338.269 249.887C340.164 254.035 342.296 257.135 344.854 259.523C347.318 261.824 350.238 263.52 353.852 264.834L349.214 266.075C346.839 264.894 344.727 263.46 342.831 261.689Z" fill="#3F5FFF"/>
<path d="M337.621 265.892C336.572 264.911 335.671 263.812 334.872 262.581L335.976 258.455C337.017 260.664 338.184 262.36 339.646 263.727C341.104 265.091 342.92 266.187 345.336 267.115L340.905 268.301C339.685 267.601 338.599 266.806 337.621 265.892Z" fill="#3F5FFF"/>
<path d="M359.595 262.635C361.67 260.56 359.091 254.631 353.843 249.383C348.596 244.135 342.681 241.556 340.606 243.631C338.53 245.707 341.11 251.636 346.357 256.884C351.605 262.131 357.534 264.696 359.595 262.635Z" fill="#6D4534"/>
<path d="M348.476 235.33C350.315 238.769 350.685 242.712 349.544 246.433C348.58 249.605 346.594 252.288 343.896 254.141C343.125 253.178 342.458 252.214 341.895 251.28C343.955 249.872 345.467 247.826 346.208 245.41C347.083 242.579 346.801 239.584 345.408 236.975C344.948 236.116 345.275 235.063 346.119 234.618C346.979 234.159 348.032 234.485 348.476 235.33Z" fill="#F70A8D"/>
<path d="M364.101 249.327C366.903 247.113 370.539 246.662 373.668 247.829C374.472 248.129 375.367 247.72 375.667 246.916C375.967 246.112 375.558 245.217 374.754 244.917C370.649 243.386 365.864 243.973 362.174 246.888C361.501 247.42 361.386 248.397 361.918 249.071C362.45 249.744 363.427 249.859 364.101 249.327Z" fill="#F70A8D"/>
<path d="M340.176 238.916C341.125 238.916 341.895 238.146 341.895 237.197C341.895 236.247 341.125 235.477 340.176 235.477C339.226 235.477 338.456 236.247 338.456 237.197C338.456 238.146 339.226 238.916 340.176 238.916Z" fill="#F70A8D"/>
<path d="M370.001 237.197C370.001 238.146 369.231 238.916 368.282 238.916C367.332 238.916 366.562 238.146 366.562 237.197C366.562 236.247 367.332 235.477 368.282 235.477C369.231 235.477 370.001 236.247 370.001 237.197Z" fill="#F70A8D"/>
<path d="M349.782 230.423C349.782 231.209 349.144 231.846 348.359 231.846C347.573 231.846 346.935 231.209 346.935 230.423C346.935 229.637 347.573 229 348.359 229C349.144 229 349.782 229.637 349.782 230.423Z" fill="#F9C23C"/>
<path d="M369.038 260.738C369.038 261.532 368.394 262.176 367.6 262.176C366.806 262.176 366.162 261.532 366.162 260.738C366.162 259.944 366.806 259.3 367.6 259.3C368.394 259.3 369.038 259.944 369.038 260.738Z" fill="#F9C23C"/>
<path d="M363.33 230.513C363.093 230.305 362.796 230.172 362.47 230.157C361.67 230.113 360.988 230.72 360.929 231.521C360.825 233.151 359.698 236.101 359.268 237.095C359.268 237.102 359.265 237.109 359.261 237.117C359.257 237.124 359.253 237.132 359.253 237.139C359.174 237.335 359.089 237.528 358.999 237.718C358.847 237.529 358.68 237.355 358.497 237.198C358.082 236.828 357.578 236.546 356.985 236.353L356.941 236.339C354.94 235.672 352.761 236.754 352.094 238.77C351.767 239.748 351.842 240.786 352.301 241.705C352.761 242.624 353.546 243.306 354.525 243.632C354.63 243.667 354.736 243.689 354.842 243.699C355.591 243.902 356.316 243.909 357.014 243.721C356.972 243.925 356.923 244.127 356.867 244.329C356.659 245.1 357.119 245.9 357.89 246.108C358.661 246.315 359.461 245.856 359.669 245.085C360.003 243.877 360.147 242.647 360.103 241.405C360.874 240.439 361.49 239.374 361.951 238.221L361.973 238.168C362.248 237.503 363.69 234.014 363.834 231.684C363.849 231.224 363.656 230.795 363.33 230.513ZM356.096 239.096C356.504 239.232 356.923 239.461 357.102 240.395C356.372 241.073 355.903 240.998 355.488 240.86C355.438 240.843 355.388 240.83 355.338 240.819C355.149 240.73 354.998 240.574 354.91 240.386C354.792 240.163 354.777 239.911 354.866 239.674C355.029 239.185 355.562 238.918 356.052 239.081L356.096 239.096Z" fill="#00A6ED"/>
<path d="M358.349 251.472C363.404 250.064 368.696 250.701 373.262 253.281C374.107 253.77 374.404 254.822 373.944 255.652C373.47 256.497 372.402 256.794 371.557 256.32C367.807 254.215 363.449 253.681 359.298 254.837C355.874 255.786 352.939 257.802 350.819 260.589C349.915 259.966 348.981 259.255 348.062 258.454C350.626 255.089 354.199 252.628 358.349 251.472Z" fill="#00A6ED"/>
<path d="M355.91 249.731C355.91 250.672 355.146 251.435 354.205 251.435C353.264 251.435 352.5 250.672 352.5 249.731C352.5 248.789 353.264 248.026 354.205 248.026C355.146 248.026 355.91 248.789 355.91 249.731Z" fill="#00A6ED"/>
<path d="M387 237C387 225.954 395.954 217 407 217H431C442.046 217 451 225.954 451 237V261C451 272.046 442.046 281 431 281H407C395.954 281 387 272.046 387 261V237Z" fill="white"/>
<path d="M414.84 253.066L414.837 253.069L414.833 253.073L414.823 253.086C414.814 253.096 414.804 253.108 414.791 253.124C414.766 253.155 414.732 253.197 414.69 253.251C414.608 253.359 414.496 253.513 414.365 253.712C414.103 254.111 413.764 254.694 413.429 255.461C412.757 256.998 412.102 259.264 412.102 262.254C412.102 263.684 411.779 264.611 411.359 265.225C410.94 265.837 410.363 266.227 409.695 266.478C408.521 266.918 407.238 266.886 406.282 266.862C406.084 266.857 405.9 266.852 405.734 266.852C405.148 266.852 404.673 267.328 404.673 267.914C404.673 268.5 405.148 268.975 405.734 268.975C405.833 268.975 405.961 268.979 406.115 268.984C407.028 269.013 408.828 269.07 410.44 268.465C411.423 268.097 412.394 267.47 413.11 266.424C413.825 265.38 414.224 264.007 414.224 262.254C414.224 259.583 414.808 257.605 415.373 256.312C415.657 255.664 415.937 255.185 416.14 254.877C416.241 254.722 416.323 254.611 416.376 254.542C416.402 254.507 416.421 254.483 416.432 254.47L416.442 254.458L416.44 254.46L416.439 254.461L416.442 254.458C416.824 254.017 416.778 253.35 416.338 252.965C415.897 252.579 415.226 252.625 414.84 253.066Z" fill="#3F5FFF"/>
<path d="M417.118 253.183L414.661 252.131C414.045 251.867 413.335 252.185 413.123 252.821C412.943 253.361 413.188 253.952 413.698 254.207L416.088 255.402C416.64 255.678 417.311 255.5 417.654 254.987C418.078 254.35 417.821 253.485 417.118 253.183Z" fill="#3F5FFF"/>
<path d="M433.327 241.735C433.327 248.768 427.625 254.47 420.592 254.47C413.559 254.47 407.857 248.768 407.857 241.735C407.857 234.702 413.559 229 420.592 229C427.625 229 433.327 234.702 433.327 241.735Z" fill="#F8312F"/>
<path d="M416.641 256.801L412.318 254.879C411.794 254.646 411.533 254.054 411.714 253.51C411.922 252.886 412.622 252.577 413.223 252.844L417.546 254.765C418.07 254.998 418.331 255.591 418.15 256.135C417.942 256.759 417.242 257.067 416.641 256.801Z" fill="#CA0B4A"/>
<path d="M429.311 235.844C430.581 237.114 430.874 238.88 429.966 239.788C429.058 240.696 427.293 240.403 426.023 239.133C424.753 237.863 424.46 236.097 425.368 235.189C426.276 234.281 428.041 234.574 429.311 235.844Z" fill="#FF8687"/>
<path d="M451 237C451 225.954 459.954 217 471 217H495C506.046 217 515 225.954 515 237V261C515 272.046 506.046 281 495 281H471C459.954 281 451 272.046 451 261V237Z" fill="white"/>
<path d="M472.277 241.856V236.084C472.277 235.67 472.449 235.27 472.734 234.984L473.706 234.027L474.677 234.984C474.963 235.27 475.134 235.67 475.134 236.084V241.856H472.277ZM481.564 241.856V236.084C481.564 235.67 481.735 235.27 482.021 234.984L482.992 234.027L483.964 234.984C484.25 235.27 484.421 235.67 484.421 236.084V241.856H481.564ZM490.85 236.084V241.856H493.707V236.084C493.707 235.67 493.55 235.27 493.25 234.984L492.279 234.027L491.307 234.984C491.022 235.27 490.85 235.67 490.85 236.084Z" fill="#26EAFC"/>
<path d="M475.536 231.468L474.25 229.311C474.007 228.896 473.393 228.896 473.15 229.311L471.878 231.468C471.635 231.868 471.521 232.34 471.578 232.84C471.693 233.825 472.478 234.611 473.464 234.711C474.75 234.854 475.85 233.854 475.85 232.582C475.836 232.182 475.721 231.797 475.536 231.468ZM484.822 231.468L483.551 229.311C483.308 228.896 482.693 228.896 482.451 229.311L481.179 231.468C480.936 231.854 480.822 232.34 480.879 232.84C480.993 233.811 481.779 234.597 482.765 234.711C484.051 234.854 485.151 233.854 485.151 232.582C485.136 232.182 485.022 231.797 484.822 231.468ZM492.837 229.311L494.109 231.468C494.309 231.797 494.423 232.182 494.423 232.582C494.423 233.854 493.337 234.854 492.037 234.711C491.066 234.611 490.28 233.825 490.165 232.84C490.108 232.34 490.223 231.854 490.465 231.468L491.737 229.311C491.98 228.896 492.594 228.896 492.837 229.311Z" fill="#FCD53F"/>
<path d="M473.706 230.624L474.578 231.738C474.792 231.967 474.921 232.252 474.921 232.581C474.921 233.252 474.378 233.795 473.706 233.795C473.035 233.795 472.492 233.252 472.492 232.581C472.492 232.252 472.621 231.967 472.835 231.738L473.706 230.624ZM483.864 231.738L482.993 230.624L482.121 231.752C481.907 231.967 481.778 232.267 481.778 232.595C481.778 233.267 482.321 233.81 482.993 233.81C483.664 233.81 484.207 233.267 484.207 232.595C484.207 232.252 484.079 231.967 483.864 231.738ZM493.151 231.738L492.279 230.624L491.408 231.752C491.193 231.967 491.065 232.267 491.065 232.595C491.065 233.267 491.608 233.81 492.279 233.81C492.951 233.81 493.494 233.267 493.494 232.595C493.494 232.252 493.365 231.967 493.151 231.738Z" fill="#FFB02E"/>
<path d="M499.781 269H466.206C465.221 269 464.42 268.2 464.42 267.214V247.57H501.566V267.214C501.566 268.2 500.766 269 499.781 269Z" fill="#D3883E"/>
<path d="M462.991 243.288C462.991 240.921 464.91 239.002 467.277 239.002H498.723C501.09 239.002 503.009 240.921 503.009 243.288V250.428V251.228C503.009 252.399 501.523 252.942 500.78 252.028C500.051 251.128 498.737 250.985 497.837 251.699L497.494 251.971C495.422 253.585 492.522 253.585 490.451 251.971L489.793 251.456C489.022 250.856 487.95 250.856 487.179 251.456L486.522 251.971C484.45 253.585 481.55 253.585 479.478 251.971L478.821 251.456C478.05 250.856 476.978 250.856 476.207 251.456L475.549 251.971C473.478 253.585 470.578 253.585 468.506 251.971L468.163 251.699C467.263 250.999 465.949 251.142 465.22 252.028C464.463 252.928 462.991 252.399 462.991 251.228V243.288ZM464.42 257.571H501.566V260.429H464.42V257.571Z" fill="#FFDEA7"/>
<path d="M481.779 242.073C481.493 242.359 481.493 242.802 481.779 243.088L482.836 244.145C483.121 244.431 483.564 244.431 483.85 244.145C484.136 243.859 484.136 243.416 483.85 243.13L482.793 242.073C482.507 241.787 482.05 241.787 481.779 242.073Z" fill="#00A6ED"/>
<path d="M469.925 242.068C469.646 241.789 469.194 241.789 468.915 242.068C468.636 242.347 468.636 242.799 468.915 243.078L470.343 244.507C470.622 244.786 471.075 244.786 471.354 244.507C471.633 244.228 471.633 243.776 471.354 243.497L469.925 242.068ZM488.498 246.354C488.219 246.075 487.767 246.075 487.488 246.354C487.209 246.633 487.209 247.085 487.488 247.364L488.916 248.793C489.195 249.072 489.648 249.072 489.927 248.793C490.205 248.514 490.205 248.062 489.927 247.783L488.498 246.354Z" fill="#FF6DC6"/>
<path d="M497.071 243.078C497.349 242.799 497.349 242.347 497.071 242.068C496.792 241.789 496.339 241.789 496.06 242.068L494.631 243.497C494.353 243.776 494.353 244.228 494.631 244.507C494.911 244.786 495.363 244.786 495.642 244.507L497.071 243.078ZM477.069 247.364C477.348 247.085 477.348 246.633 477.069 246.354C476.79 246.075 476.338 246.075 476.059 246.354L474.63 247.783C474.351 248.062 474.351 248.514 474.63 248.793C474.909 249.072 475.361 249.072 475.64 248.793L477.069 247.364Z" fill="#FF822D"/>
<path d="M481.773 242.068C482.052 241.789 482.505 241.789 482.784 242.068L484.212 243.497C484.491 243.776 484.491 244.228 484.212 244.507C483.933 244.786 483.481 244.786 483.202 244.507L481.773 243.078C481.494 242.799 481.494 242.347 481.773 242.068Z" fill="#00A6ED"/>
</svg>
