<svg width="74" height="89" viewBox="0 0 74 89" fill="none" xmlns="http://www.w3.org/2000/svg">
<path fill-rule="evenodd" clip-rule="evenodd" d="M0.664769 80.5594C1.11598 82.5934 2.62536 84.2907 4.96184 85.6152C5.71403 86.0982 6.53465 86.4843 7.40572 86.7536C6.51401 86.4118 5.69698 86.0319 4.96184 85.6152C2.70617 84.1666 1.06599 81.8458 0.527074 79.184C0.519341 79.6485 0.564518 80.1075 0.664769 80.5594ZM70.2067 73.1251C70.9677 72.4589 71.6119 71.687 72.1281 70.8438C73.6082 68.7228 74.2181 66.6095 73.7774 64.6229C73.6805 64.1861 73.5348 63.7648 73.3426 63.3595C73.9556 65.9284 73.4827 68.6313 72.1281 70.8438C71.5969 71.6051 70.9537 72.3673 70.2067 73.1251Z" fill="#A85735" fill-opacity="0.7"/>
<path d="M65.7233 75.3647L12.5202 86.9534C10.7214 87.3462 8.98109 87.2407 7.40572 86.7536C14.7119 89.5544 27.0317 89.8028 40.4062 86.8821C53.7156 83.9757 64.7395 78.6709 70.2067 73.1251C68.9936 74.187 67.4839 74.9802 65.7233 75.3647Z" fill="#A85735" fill-opacity="0.7"/>
<path d="M12.5202 86.9534L65.7233 75.3647C67.4839 74.9802 68.9936 74.187 70.2067 73.1251C70.9537 72.3673 71.5969 71.6051 72.1281 70.8438C73.4827 68.6313 73.9556 65.9284 73.3426 63.3595C70.0507 56.4168 53.1166 54.1335 34.0359 58.3003C15.0021 62.4569 0.653865 71.5684 0.527074 79.184C1.06599 81.8458 2.70617 84.1666 4.96184 85.6152C5.69698 86.0319 6.51401 86.4118 7.40572 86.7536C8.98109 87.2407 10.7214 87.3462 12.5202 86.9534Z" fill="#A85735" fill-opacity="0.7"/>
<path d="M17.3003 22.7618L15.3964 28.7083L11.5857 40.6095L8.15431 51.3274L4.17052 63.77L0.818127 74.2407C0.274119 75.9344 0.21006 77.6182 0.527074 79.184C0.653865 71.5684 15.0021 62.4569 34.0359 58.3003C53.1166 54.1335 70.0507 56.4168 73.3426 63.3595C72.9688 61.7934 72.1915 60.2771 70.9643 58.9521L62.6391 49.9217L54.3139 40.8913L45.8027 31.6591L37.9248 23.1138L34.2211 19.0963C29.048 13.4369 19.6352 15.4924 17.3003 22.7618Z" fill="#A85735" fill-opacity="0.7"/>
<path d="M16.9644 21.1902L0.48225 72.6692C-1.85268 79.9385 4.65403 87.0262 12.1843 85.3818L65.3874 73.7931C72.9176 72.1486 75.8586 63.0274 70.6284 57.3805L33.8852 17.5247C28.7121 11.8653 19.2993 13.9208 16.9644 21.1902Z" fill="#FFB81A"/>
<path d="M27.7109 41.3698C35.8146 39.3095 44.4114 38.6282 53.8863 39.2203L62.2622 48.3058C49.6818 46.5484 39.2048 46.8999 29.7603 49.3011C20.6578 51.6149 12.2944 55.8883 3.78695 62.3485L7.83515 49.7042C14.1731 45.9342 20.7077 43.1499 27.7109 41.3698Z" fill="#FFCB05"/>
<path d="M25.6693 22.9979C29.5467 22.0151 33.4795 21.5502 37.5701 21.5222L45.5963 30.2281C38.8474 29.3671 33.1162 29.561 27.7128 30.9307C22.322 32.2969 17.0247 34.8924 11.2192 39.1349L15.0858 27.058C18.5611 25.261 22.0567 23.9134 25.6693 22.9979Z" fill="#FFCB05"/>
<path d="M0.328892 78.9878C2.08528 86.9053 19.8756 89.7206 40.0703 85.3105C60.2651 80.9005 75.1979 70.9689 73.4415 63.0513C71.6851 55.1338 53.8949 52.3186 33.7 56.7287C13.5052 61.1388 -1.41495 71.1268 0.328892 78.9878Z" fill="#6D4534"/>
<path fill-rule="evenodd" clip-rule="evenodd" d="M15.1539 3.74294L12.3992 7.98836L18.0691 11.6673L11.5203 13.062L12.5744 18.0118L18.8247 16.6807L15.197 22.2716L19.4425 25.0263L23.1876 19.2544L24.5823 25.8032L29.5321 24.7491L28.1374 18.2003L33.6263 21.7618L36.381 17.5164L31.0732 14.0723L37.3235 12.7412L36.2694 7.79141L29.7206 9.18605L33.2159 3.79918L28.9705 1.04449L25.5926 6.25035L24.2615 0L19.3117 1.05411L20.6428 7.30445L15.1539 3.74294Z" fill="#DC267F"/>
</svg>
