<svg width="555" height="418" viewBox="0 0 555 418" fill="none" xmlns="http://www.w3.org/2000/svg">
<path d="M299.127 64.1641C301.576 61.7919 305.628 62.5123 307.11 65.583L320.324 92.9776C321.557 95.5336 324.668 96.5523 327.174 95.2207L358.231 78.718C361.369 77.0509 365.195 79.0962 365.552 82.6311L368.111 107.973C368.421 111.044 371.412 113.103 374.391 112.297L411.265 102.321C415.049 101.298 418.485 104.828 417.36 108.583L411.102 129.472C410.094 132.836 412.776 136.164 416.277 135.892L454.725 132.914C459.06 132.579 461.728 137.555 459.049 140.98L446.633 156.856C444.192 159.978 446.179 164.563 450.126 164.917L486.292 168.155C490.969 168.573 492.542 174.625 488.66 177.268L471.748 188.781C468.187 191.205 469.154 196.697 473.329 197.76L504.684 205.739C509.445 206.951 509.787 213.584 505.175 215.278L484.108 223.018C479.885 224.57 479.699 230.475 483.817 232.288L509.354 243.531C513.932 245.547 513.041 252.293 508.096 253.05L482.567 256.958C478.083 257.645 476.757 263.469 480.503 266.029L500.306 279.559C504.412 282.364 502.35 288.792 497.378 288.686L467.267 288.043C462.845 287.949 460.487 293.221 463.505 296.454L478.011 311.993C481.301 315.517 478.189 321.197 473.449 320.322L439.55 314.065C435.466 313.312 432.297 317.578 434.197 321.27L443.386 339.125C445.463 343.159 441.524 347.651 437.253 346.12L401.745 333.391C398.22 332.128 394.609 335.043 395.101 338.755L397.825 359.296C398.369 363.398 393.98 366.347 390.388 364.295L356.754 345.079C353.902 343.449 350.28 344.966 349.44 348.142L343.457 370.775C342.507 374.369 338.106 375.706 335.317 373.248L307.571 348.802C305.37 346.862 301.98 347.226 300.24 349.588L283.713 372.021C281.669 374.796 277.497 374.719 275.556 371.872L257.016 344.67C255.436 342.352 252.258 341.787 249.976 343.419L223.198 362.565C220.394 364.569 216.451 363.204 215.489 359.895L207.705 333.139C206.885 330.323 203.828 328.813 201.093 329.875L166.622 343.263C163.157 344.609 159.487 341.837 159.834 338.136L162.017 314.828C162.323 311.557 159.445 308.885 156.206 309.431L118.011 315.88C113.931 316.569 110.828 312.287 112.752 308.625L122.388 290.28C124.129 286.966 121.743 282.984 117.999 282.955L80.2793 282.668C75.7422 282.633 73.5931 277.059 76.9325 273.988L91.7115 260.394C94.7683 257.582 93.263 252.485 89.1691 251.785L55.1912 245.977C50.4393 245.165 49.4758 238.76 53.7785 236.586L72.7507 226.998C76.6984 225.002 76.3018 219.241 72.1179 217.806L43.6294 208.032C38.9257 206.419 39.2055 199.674 44.0267 198.455L67.2786 192.578C71.6775 191.466 72.4405 185.542 68.4669 183.352L45.8492 170.886C41.4682 168.471 42.9558 161.831 47.9483 161.517L75.7952 159.762C80.2857 159.479 82.1468 153.872 78.7169 150.96L61.6075 136.434C57.8624 133.255 60.4688 127.146 65.3557 127.649L97.5404 130.964C101.825 131.405 104.626 126.582 102.118 123.079L90.2097 106.443C87.4765 102.625 91.0382 97.4857 95.573 98.7044L130.64 108.128C134.467 109.156 137.912 105.537 136.696 101.765L130.512 82.5823C129.178 78.4438 133.397 74.6922 137.351 76.5014L172.417 92.5462C175.61 94.0073 179.275 91.8081 179.488 88.303L180.812 66.5362C181.05 62.6236 185.492 60.4939 188.692 62.7588L219.869 84.8307C222.388 86.6141 225.905 85.7116 227.255 82.9357L238.39 60.028C239.943 56.8326 244.24 56.2312 246.611 58.8775L270.079 85.0721C271.972 87.1857 275.243 87.3014 277.282 85.3269L299.127 64.1641Z" fill="#46112B"/>
<path d="M307.184 53.5825L319.345 78.7932C321.688 83.6496 327.598 85.585 332.359 83.055L361.184 67.7387C362.753 66.9052 364.666 67.9278 364.844 69.6953L367.135 92.3832C367.724 98.2179 373.407 102.131 379.068 100.599L413.069 91.4005C414.961 90.8887 416.679 92.6538 416.117 94.5313L410.792 112.303C408.878 118.694 413.974 125.016 420.626 124.501L455.356 121.811C457.524 121.643 458.858 124.131 457.519 125.843L447.634 138.484C442.995 144.414 446.771 153.127 454.27 153.798L485.821 156.623C488.159 156.832 488.945 159.858 487.004 161.179L474.237 169.871C467.472 174.477 469.309 184.912 477.241 186.93L503.32 193.567C505.701 194.173 505.871 197.49 503.566 198.337L487.853 204.11C479.829 207.058 479.477 218.276 487.301 221.721L507.425 230.582C509.715 231.59 509.269 234.963 506.796 235.341L487.169 238.346C478.648 239.651 476.13 250.717 483.248 255.581L498.18 265.783C500.233 267.186 499.202 270.4 496.716 270.347L472.337 269.826C463.934 269.647 459.455 279.663 465.189 285.807L476.009 297.397C477.654 299.159 476.098 301.999 473.728 301.561L444.813 296.225C437.053 294.792 431.031 302.898 434.642 309.914L441.739 323.703C442.777 325.72 440.808 327.966 438.672 327.201L407.095 315.881C400.399 313.481 393.537 319.021 394.472 326.073L396.715 342.987C396.987 345.037 394.793 346.512 392.996 345.486L362.246 327.917C356.826 324.821 349.944 327.703 348.349 333.738L343.112 353.547C342.637 355.344 340.437 356.013 339.042 354.784L313.329 332.129C309.147 328.444 302.706 329.134 299.4 333.622L284.357 354.041C283.335 355.428 281.249 355.39 280.278 353.966L263.109 328.775C260.107 324.371 254.069 323.298 249.734 326.398L224.935 344.129C223.533 345.131 221.562 344.448 221.08 342.794L213.995 318.441C212.438 313.089 206.63 310.221 201.434 312.239L169.489 324.646C167.756 325.319 165.921 323.933 166.095 322.082L168.005 301.682C168.587 295.467 163.12 290.389 156.965 291.428L122.044 297.324C120.004 297.669 118.452 295.528 119.414 293.696L127.348 278.592C130.656 272.294 126.124 264.729 119.01 264.674L85.4667 264.418C83.1981 264.401 82.1236 261.614 83.7933 260.079L95.2073 249.58C101.015 244.237 98.1551 234.553 90.3767 233.224L61.3943 228.269C59.0183 227.863 58.5366 224.661 60.6879 223.574L74.8389 216.422C82.3395 212.631 81.5859 201.684 73.6367 198.957L50.5713 191.044C48.2194 190.238 48.3593 186.865 50.7699 186.256L68.3031 181.824C76.6609 179.712 78.1107 168.455 70.5608 164.294L53.1716 154.71C50.9811 153.502 51.7249 150.182 54.2211 150.025L76.1663 148.642C84.6983 148.105 88.2343 137.452 81.7174 131.919L68.9565 121.085C67.084 119.495 68.3872 116.441 70.8306 116.692L97.5999 119.449C105.742 120.288 111.062 111.125 106.298 104.47L97.3082 91.911C95.9415 90.0018 97.7224 87.4321 99.9898 88.0415L130.581 96.2624C137.853 98.2165 144.399 91.3389 142.089 84.1729L137.165 68.9006C136.498 66.8313 138.607 64.9556 140.585 65.8602L172.26 80.3537C178.327 83.1297 185.29 78.9512 185.695 72.2916L186.821 53.774C186.94 51.8177 189.162 50.7529 190.761 51.8853L219.51 72.2377C224.296 75.6262 230.979 73.9115 233.543 68.6372L243.512 48.1285C244.288 46.5308 246.437 46.2301 247.622 47.5532L269.403 71.8646C273.001 75.8805 279.216 76.1003 283.089 72.3487L303.193 52.873C304.417 51.687 306.443 52.0471 307.184 53.5825Z" fill="#DC267F" stroke="white" stroke-width="7"/>
</svg>
